G04 #@! TF.GenerationSoftware,KiCad,Pcbnew,9.0.0-9.0.0-2~ubuntu22.04.1*
G04 #@! TF.CreationDate,2025-03-10T11:03:09-07:00*
G04 #@! TF.ProjectId,RDAT,52444154-2e6b-4696-9361-645f70636258,rev?*
G04 #@! TF.SameCoordinates,Original*
G04 #@! TF.FileFunction,Soldermask,Bot*
G04 #@! TF.FilePolarity,Negative*
%FSLAX46Y46*%
G04 Gerber Fmt 4.6, Leading zero omitted, Abs format (unit mm)*
G04 Created by KiCad (PCBNEW 9.0.0-9.0.0-2~ubuntu22.04.1) date 2025-03-10 11:03:09*
%MOMM*%
%LPD*%
G01*
G04 APERTURE LIST*
G04 Aperture macros list*
%AMRotRect*
0 Rectangle, with rotation*
0 The origin of the aperture is its center*
0 $1 length*
0 $2 width*
0 $3 Rotation angle, in degrees counterclockwise*
0 Add horizontal line*
21,1,$1,$2,0,0,$3*%
G04 Aperture macros list end*
%ADD10C,1.701800*%
%ADD11C,3.000000*%
%ADD12C,3.429000*%
%ADD13R,2.600000X2.600000*%
%ADD14C,2.032000*%
%ADD15R,0.850000X0.850000*%
%ADD16O,0.850000X0.850000*%
%ADD17C,1.100000*%
%ADD18C,1.600000*%
%ADD19RotRect,2.600000X2.600000X165.000000*%
%ADD20C,2.745000*%
%ADD21RotRect,2.600000X2.600000X195.300000*%
%ADD22C,2.600000*%
%ADD23C,4.400000*%
%ADD24C,0.800000*%
%ADD25RotRect,2.600000X2.600000X204.000000*%
%ADD26R,0.930000X0.930000*%
%ADD27C,0.930000*%
%ADD28O,4.150000X2.075000*%
%ADD29RotRect,2.600000X2.600000X162.000000*%
%ADD30RotRect,2.600000X2.600000X202.000000*%
%ADD31RotRect,2.600000X2.600000X198.000000*%
%ADD32RotRect,2.600000X2.600000X164.000000*%
%ADD33RotRect,2.600000X2.600000X203.000000*%
%ADD34RotRect,2.600000X2.600000X157.500000*%
%ADD35C,1.524000*%
%ADD36RotRect,2.600000X2.600000X181.500000*%
%ADD37RotRect,2.600000X2.600000X197.000000*%
%ADD38RotRect,2.600000X2.600000X168.000000*%
%ADD39RotRect,2.600000X2.600000X177.000000*%
%ADD40RotRect,2.600000X2.600000X185.000000*%
%ADD41RotRect,2.600000X2.600000X187.500000*%
%ADD42RotRect,2.600000X2.600000X154.000000*%
%ADD43RotRect,2.600000X2.600000X167.000000*%
%ADD44RotRect,2.600000X2.600000X194.500000*%
%ADD45RotRect,2.600000X2.600000X191.000000*%
%ADD46RotRect,2.600000X2.600000X175.000000*%
%ADD47RotRect,2.600000X2.600000X208.000000*%
%ADD48RotRect,2.600000X2.600000X161.000000*%
%ADD49C,1.150000*%
%ADD50C,1.650000*%
%ADD51RotRect,2.600000X2.600000X188.500000*%
%ADD52RotRect,2.600000X2.600000X170.000000*%
%ADD53RotRect,2.600000X2.600000X179.000000*%
%ADD54RotRect,2.600000X2.600000X210.000000*%
%ADD55RotRect,2.600000X2.600000X153.000000*%
%ADD56RotRect,2.600000X2.600000X202.500000*%
%ADD57C,0.499999*%
%ADD58C,1.050000*%
%ADD59C,1.300000*%
%ADD60RotRect,2.600000X2.600000X172.000000*%
%ADD61R,1.208000X1.208000*%
%ADD62C,1.208000*%
%ADD63C,3.366000*%
%ADD64R,1.000000X1.000000*%
G04 APERTURE END LIST*
D10*
G04 #@! TO.C,S79*
X452860080Y-358337669D03*
D11*
X447360080Y-364287669D03*
D12*
X447360080Y-358337669D03*
D11*
X442360080Y-362087669D03*
D10*
X441860080Y-358337669D03*
D13*
X450635080Y-364287669D03*
D14*
X447360080Y-352437669D03*
X452360080Y-354537669D03*
D13*
X439085080Y-362087669D03*
G04 #@! TD*
D15*
G04 #@! TO.C,J1*
X227700000Y-353250000D03*
D16*
X226700000Y-353250000D03*
G04 #@! TD*
D10*
G04 #@! TO.C,S77*
X385079339Y-359443459D03*
D11*
X379579339Y-365393459D03*
D12*
X379579339Y-359443459D03*
D11*
X374579339Y-363193459D03*
D10*
X374079339Y-359443459D03*
D13*
X382854339Y-365393459D03*
D14*
X379579339Y-353543459D03*
X384579339Y-355643459D03*
D13*
X371304339Y-363193459D03*
G04 #@! TD*
D17*
G04 #@! TO.C,J4*
X484100000Y-239750000D03*
D18*
X464100000Y-239750000D03*
G04 #@! TD*
D10*
G04 #@! TO.C,S56*
X178697617Y-347742874D03*
D11*
X171845052Y-352066628D03*
D12*
X173385025Y-346319369D03*
D11*
X167584824Y-348647496D03*
D10*
X168072433Y-344895864D03*
D19*
X175008459Y-352914260D03*
D14*
X174912057Y-340620407D03*
X179198167Y-343942946D03*
D19*
X164421417Y-347799863D03*
G04 #@! TD*
D10*
G04 #@! TO.C,S101*
X385040286Y-264076889D03*
D11*
X379540286Y-270026889D03*
D12*
X379540286Y-264076889D03*
D11*
X374540286Y-267826889D03*
D10*
X374040286Y-264076889D03*
D13*
X382815286Y-270026889D03*
D14*
X379540286Y-258176889D03*
X384540286Y-260276889D03*
D13*
X371265286Y-267826889D03*
G04 #@! TD*
D20*
G04 #@! TO.C,BT2*
X194372500Y-178610000D03*
X194372500Y-183690000D03*
X201992500Y-181150000D03*
G04 #@! TD*
D10*
G04 #@! TO.C,S35*
X301138908Y-306415998D03*
D11*
X297403887Y-313606417D03*
D12*
X295833842Y-307867300D03*
D11*
X292000579Y-312803756D03*
D10*
X290528776Y-309318602D03*
D21*
X300562812Y-312742232D03*
D14*
X294276991Y-302176411D03*
X299653912Y-302882618D03*
D21*
X288841653Y-313667940D03*
G04 #@! TD*
D10*
G04 #@! TO.C,S69*
X71706858Y-337068283D03*
D11*
X66206858Y-343018283D03*
D12*
X66206858Y-337068283D03*
D11*
X61206858Y-340818283D03*
D10*
X60706858Y-337068283D03*
D13*
X69481858Y-343018283D03*
D14*
X66206858Y-331168283D03*
X71206858Y-333268283D03*
D13*
X57931858Y-340818283D03*
G04 #@! TD*
D22*
G04 #@! TO.C,H5*
X267450000Y-195100000D03*
D23*
X267450000Y-195100000D03*
G04 #@! TD*
D24*
G04 #@! TO.C,R_{SR}1*
X111200000Y-196890500D03*
X111200000Y-203440500D03*
G04 #@! TD*
D10*
G04 #@! TO.C,S86*
X462301364Y-320146072D03*
D11*
X456801364Y-326096072D03*
D12*
X456801364Y-320146072D03*
D11*
X451801364Y-323896072D03*
D10*
X451301364Y-320146072D03*
D13*
X460076364Y-326096072D03*
D14*
X456801364Y-314246072D03*
X461801364Y-316346072D03*
D13*
X448526364Y-323896072D03*
G04 #@! TD*
D10*
G04 #@! TO.C,S8*
X265624500Y-276212948D03*
D11*
X263020083Y-283885595D03*
D12*
X260600000Y-278450000D03*
D11*
X257557535Y-283909479D03*
D10*
X255575500Y-280687052D03*
D25*
X266011944Y-282553533D03*
D14*
X258200254Y-273060082D03*
X263622128Y-272944844D03*
D25*
X254565674Y-285241541D03*
G04 #@! TD*
D10*
G04 #@! TO.C,S39*
X380316827Y-302293461D03*
D11*
X374816827Y-308243461D03*
D12*
X374816827Y-302293461D03*
D11*
X369816827Y-306043461D03*
D10*
X369316827Y-302293461D03*
D13*
X378091827Y-308243461D03*
D14*
X374816827Y-296393461D03*
X379816827Y-298493461D03*
D13*
X366541827Y-306043461D03*
G04 #@! TD*
D26*
G04 #@! TO.C,J8*
X61325000Y-187525000D03*
D27*
X61325000Y-188625000D03*
X61325000Y-189725000D03*
X61325000Y-190825000D03*
X60525000Y-191575000D03*
X61325000Y-192325000D03*
X61325000Y-194175000D03*
X60525000Y-194925000D03*
X61325000Y-195675000D03*
X61325000Y-196775000D03*
X61325000Y-197875000D03*
X61325000Y-198975000D03*
X58675000Y-198600000D03*
X58675000Y-197500000D03*
X58675000Y-196400000D03*
X58675000Y-195300000D03*
X59475000Y-194550000D03*
X58675000Y-193800000D03*
X58675000Y-192700000D03*
X59475000Y-191950000D03*
X58675000Y-191200000D03*
X58675000Y-190100000D03*
X58675000Y-189000000D03*
X58675000Y-187900000D03*
X60000000Y-188300000D03*
X60000000Y-189400000D03*
X60000000Y-190500000D03*
X60000000Y-196000000D03*
X60000000Y-197100000D03*
X60000000Y-198200000D03*
D28*
X60000000Y-184350000D03*
X60000000Y-202150000D03*
G04 #@! TD*
D20*
G04 #@! TO.C,BT13*
X287729200Y-163390000D03*
X287729200Y-158310000D03*
X280109200Y-160850000D03*
G04 #@! TD*
D10*
G04 #@! TO.C,S6*
X210192865Y-274801027D03*
D11*
X203123403Y-278760220D03*
D12*
X204962054Y-273101434D03*
D11*
X199047958Y-275122811D03*
D10*
X199731243Y-271401841D03*
D29*
X206238113Y-279772251D03*
D14*
X206785254Y-267490202D03*
X210891601Y-271032504D03*
D29*
X195933248Y-274110780D03*
G04 #@! TD*
D24*
G04 #@! TO.C,R_{AC}1*
X95250000Y-201945000D03*
X95250000Y-195395000D03*
G04 #@! TD*
D10*
G04 #@! TO.C,S34*
X281683123Y-312642324D03*
D11*
X278812521Y-320219404D03*
D12*
X276583612Y-314702660D03*
D11*
X273352467Y-320052631D03*
D10*
X271484101Y-316762996D03*
D30*
X281849048Y-318992567D03*
D14*
X274373433Y-309232275D03*
X279796026Y-309306328D03*
D30*
X270315940Y-321279469D03*
G04 #@! TD*
D10*
G04 #@! TO.C,S22*
X286318863Y-290446544D03*
D11*
X282926703Y-297804923D03*
D12*
X281088052Y-292146137D03*
D11*
X277491583Y-297257684D03*
D10*
X275857241Y-293845730D03*
D31*
X286041413Y-296792893D03*
D14*
X279264852Y-286534905D03*
X284669070Y-286987037D03*
D31*
X274376873Y-298269715D03*
G04 #@! TD*
D10*
G04 #@! TO.C,S70*
X74258368Y-359279991D03*
D11*
X68758368Y-365229991D03*
D12*
X68758368Y-359279991D03*
D11*
X63758368Y-363029991D03*
D10*
X63258368Y-359279991D03*
D13*
X72033368Y-365229991D03*
D14*
X68758368Y-353379991D03*
X73758368Y-355479991D03*
D13*
X60483368Y-363029991D03*
G04 #@! TD*
D10*
G04 #@! TO.C,S31*
X192913733Y-310353892D03*
D11*
X185986752Y-314557394D03*
D12*
X187626794Y-308837887D03*
D11*
X181786845Y-311064433D03*
D10*
X182339855Y-307321882D03*
D32*
X189134884Y-315460106D03*
D14*
X189253054Y-303166443D03*
X193480523Y-306563279D03*
D32*
X178638713Y-310161719D03*
G04 #@! TD*
D17*
G04 #@! TO.C,A1*
X270025000Y-252100000D03*
D18*
X201225000Y-252100000D03*
G04 #@! TD*
D10*
G04 #@! TO.C,S47*
X286135013Y-332280282D03*
D11*
X283397086Y-339906307D03*
D12*
X281072236Y-334429303D03*
D11*
X277934953Y-339834852D03*
D10*
X276009459Y-336578324D03*
D33*
X286411741Y-338626662D03*
D14*
X278766922Y-328998324D03*
X284189982Y-328977729D03*
D33*
X274920300Y-341114496D03*
G04 #@! TD*
D10*
G04 #@! TO.C,S57*
X198151044Y-355156320D03*
D11*
X190792741Y-358548644D03*
D12*
X193069707Y-353051561D03*
D11*
X187015246Y-354602692D03*
D10*
X187988370Y-350946802D03*
D34*
X193818446Y-359801932D03*
D14*
X195327539Y-347600672D03*
X199143302Y-351454236D03*
D34*
X183989541Y-353349404D03*
G04 #@! TD*
D10*
G04 #@! TO.C,S65*
X418416833Y-340393471D03*
D11*
X412916833Y-346343471D03*
D12*
X412916833Y-340393471D03*
D11*
X407916833Y-344143471D03*
D10*
X407416833Y-340393471D03*
D13*
X416191833Y-346343471D03*
D14*
X412916833Y-334493471D03*
X417916833Y-336593471D03*
D13*
X404641833Y-344143471D03*
G04 #@! TD*
D35*
G04 #@! TO.C,J5*
X61520000Y-249100000D03*
X61520000Y-251099999D03*
X61520000Y-253100000D03*
X61520000Y-255099998D03*
X58900000Y-249100000D03*
X58900000Y-251099999D03*
X58900000Y-253100000D03*
X58900000Y-255099998D03*
G04 #@! TD*
D10*
G04 #@! TO.C,S50*
X346379289Y-321365838D03*
D11*
X341036927Y-327457772D03*
D12*
X340881174Y-321509811D03*
D11*
X335981051Y-325389411D03*
D10*
X335383059Y-321653784D03*
D36*
X344310805Y-327372043D03*
D14*
X340726730Y-315611833D03*
X345779988Y-317580228D03*
D36*
X332707173Y-325475140D03*
G04 #@! TD*
D10*
G04 #@! TO.C,S2*
X127836482Y-264162220D03*
D11*
X122336482Y-270112220D03*
D12*
X122336482Y-264162220D03*
D11*
X117336482Y-267912220D03*
D10*
X116836482Y-264162220D03*
D13*
X125611482Y-270112220D03*
D14*
X122336482Y-258262220D03*
X127336482Y-260362220D03*
D13*
X114061482Y-267912220D03*
G04 #@! TD*
D10*
G04 #@! TO.C,S16*
X146954339Y-282735485D03*
D11*
X141454339Y-288685485D03*
D12*
X141454339Y-282735485D03*
D11*
X136454339Y-286485485D03*
D10*
X135954339Y-282735485D03*
D13*
X144729339Y-288685485D03*
D14*
X141454339Y-276835485D03*
X146454339Y-278935485D03*
D13*
X133179339Y-286485485D03*
G04 #@! TD*
D20*
G04 #@! TO.C,BT16*
X403447500Y-158310000D03*
X403447500Y-163390000D03*
X411067500Y-160850000D03*
G04 #@! TD*
D10*
G04 #@! TO.C,S73*
X165945291Y-368282577D03*
D11*
X158586988Y-371674901D03*
D12*
X160863954Y-366177818D03*
D11*
X154809493Y-367728949D03*
D10*
X155782617Y-364073059D03*
D34*
X161612693Y-372928189D03*
D14*
X163121786Y-360726929D03*
X166937549Y-364580493D03*
D34*
X151783788Y-366475661D03*
G04 #@! TD*
D10*
G04 #@! TO.C,S48*
X305407892Y-325419687D03*
D11*
X301887828Y-332717744D03*
D12*
X300148216Y-327027731D03*
D11*
X296463086Y-332075732D03*
D10*
X294888540Y-328635775D03*
D37*
X305019726Y-331760227D03*
D14*
X298423223Y-321385533D03*
X303818727Y-321931914D03*
D37*
X293331188Y-333033250D03*
G04 #@! TD*
D20*
G04 #@! TO.C,BT15*
X357362500Y-163390000D03*
X357362500Y-158310000D03*
X349742500Y-160850000D03*
G04 #@! TD*
D10*
G04 #@! TO.C,S43*
X175713942Y-325671925D03*
D11*
X169097055Y-330348389D03*
D12*
X170334130Y-324528411D03*
D11*
X164663723Y-327156906D03*
D10*
X164954318Y-323384897D03*
D38*
X172300489Y-331029300D03*
D14*
X171560809Y-318757340D03*
X176014932Y-321851010D03*
D38*
X161460290Y-326475995D03*
G04 #@! TD*
D10*
G04 #@! TO.C,S96*
X462401584Y-263147941D03*
D11*
X456901584Y-269097941D03*
D12*
X456901584Y-263147941D03*
D11*
X451901584Y-266897941D03*
D10*
X451401584Y-263147941D03*
D13*
X460176584Y-269097941D03*
D14*
X456901584Y-257247941D03*
X461901584Y-259347941D03*
D13*
X448626584Y-266897941D03*
G04 #@! TD*
D10*
G04 #@! TO.C,S85*
X443318515Y-320132572D03*
D11*
X437818515Y-326082572D03*
D12*
X437818515Y-320132572D03*
D11*
X432818515Y-323882572D03*
D10*
X432318515Y-320132572D03*
D13*
X441093515Y-326082572D03*
D14*
X437818515Y-314232572D03*
X442818515Y-316332572D03*
D13*
X429543515Y-323882572D03*
G04 #@! TD*
D10*
G04 #@! TO.C,S89*
X481286227Y-301181793D03*
D11*
X475786227Y-307131793D03*
D12*
X475786227Y-301181793D03*
D11*
X470786227Y-304931793D03*
D10*
X470286227Y-301181793D03*
D13*
X479061227Y-307131793D03*
D14*
X475786227Y-295281793D03*
X480786227Y-297381793D03*
D13*
X467511227Y-304931793D03*
G04 #@! TD*
D10*
G04 #@! TO.C,S84*
X443318515Y-339149437D03*
D11*
X437818515Y-345099437D03*
D12*
X437818515Y-339149437D03*
D11*
X432818515Y-342899437D03*
D10*
X432318515Y-339149437D03*
D13*
X441093515Y-345099437D03*
D14*
X437818515Y-333249437D03*
X442818515Y-335349437D03*
D13*
X429543515Y-342899437D03*
G04 #@! TD*
D20*
G04 #@! TO.C,BT5*
X287729200Y-183690000D03*
X287729200Y-178610000D03*
X280109200Y-181150000D03*
G04 #@! TD*
D10*
G04 #@! TO.C,S102*
X403860568Y-264146136D03*
D11*
X398360568Y-270096136D03*
D12*
X398360568Y-264146136D03*
D11*
X393360568Y-267896136D03*
D10*
X392860568Y-264146136D03*
D13*
X401635568Y-270096136D03*
D14*
X398360568Y-258246136D03*
X403360568Y-260346136D03*
D13*
X390085568Y-267896136D03*
G04 #@! TD*
D10*
G04 #@! TO.C,S103*
X394589874Y-283243497D03*
D11*
X389089874Y-289193497D03*
D12*
X389089874Y-283243497D03*
D11*
X384089874Y-286993497D03*
D10*
X383589874Y-283243497D03*
D13*
X392364874Y-289193497D03*
D14*
X389089874Y-277343497D03*
X394089874Y-279443497D03*
D13*
X380814874Y-286993497D03*
G04 #@! TD*
D10*
G04 #@! TO.C,S63*
X355648115Y-340556027D03*
D11*
X350305753Y-346647961D03*
D12*
X350150000Y-340700000D03*
D11*
X345249877Y-344579600D03*
D10*
X344651885Y-340843973D03*
D36*
X353579631Y-346562232D03*
D14*
X349995556Y-334802022D03*
X355048814Y-336770417D03*
D36*
X341975999Y-344665329D03*
G04 #@! TD*
D10*
G04 #@! TO.C,S88*
X500300000Y-310750000D03*
D11*
X494800000Y-316700000D03*
D12*
X494800000Y-310750000D03*
D11*
X489800000Y-314500000D03*
D10*
X489300000Y-310750000D03*
D13*
X498075000Y-316700000D03*
D14*
X494800000Y-304850000D03*
X499800000Y-306950000D03*
D13*
X486525000Y-314500000D03*
G04 #@! TD*
D10*
G04 #@! TO.C,S91*
X443317447Y-301173652D03*
D11*
X437817447Y-307123652D03*
D12*
X437817447Y-301173652D03*
D11*
X432817447Y-304923652D03*
D10*
X432317447Y-301173652D03*
D13*
X441092447Y-307123652D03*
D14*
X437817447Y-295273652D03*
X442817447Y-297373652D03*
D13*
X429542447Y-304923652D03*
G04 #@! TD*
D10*
G04 #@! TO.C,S42*
X155374448Y-321889140D03*
D11*
X149570587Y-327543138D03*
D12*
X149881986Y-321601292D03*
D11*
X144692578Y-325084473D03*
D10*
X144389524Y-321313444D03*
D39*
X152841099Y-327714538D03*
D14*
X150190768Y-315709378D03*
X155074010Y-318068180D03*
D39*
X141422067Y-324913073D03*
G04 #@! TD*
D20*
G04 #@! TO.C,BT7*
X333714200Y-178610000D03*
X333714200Y-183690000D03*
X341334200Y-181150000D03*
G04 #@! TD*
D10*
G04 #@! TO.C,S62*
X335440857Y-341008802D03*
D11*
X330480363Y-347415517D03*
D12*
X329961786Y-341488159D03*
D11*
X325307647Y-345659668D03*
D10*
X324482715Y-341967516D03*
D40*
X333742900Y-347130082D03*
D14*
X329447567Y-335610610D03*
X334611568Y-337266840D03*
D40*
X322045109Y-345945103D03*
G04 #@! TD*
D10*
G04 #@! TO.C,S64*
X387461908Y-340400000D03*
D11*
X381961908Y-346350000D03*
D12*
X381961908Y-340400000D03*
D11*
X376961908Y-344150000D03*
D10*
X376461908Y-340400000D03*
D13*
X385236908Y-346350000D03*
D14*
X381961908Y-334500000D03*
X386961908Y-336600000D03*
D13*
X373686908Y-344150000D03*
G04 #@! TD*
D10*
G04 #@! TO.C,S49*
X326085417Y-322098776D03*
D11*
X321409101Y-328715767D03*
D12*
X320632470Y-322816670D03*
D11*
X316164719Y-327187219D03*
D10*
X315179523Y-323534564D03*
D41*
X324656083Y-328288294D03*
D14*
X319862365Y-316967145D03*
X325093695Y-318396549D03*
D41*
X312917737Y-327614692D03*
G04 #@! TD*
D10*
G04 #@! TO.C,S24*
X326454254Y-283077810D03*
D11*
X321493760Y-289484525D03*
D12*
X320975183Y-283557167D03*
D11*
X316321044Y-287728676D03*
D10*
X315496112Y-284036524D03*
D40*
X324756297Y-289199090D03*
D14*
X320460964Y-277679618D03*
X325624965Y-279335848D03*
D40*
X313058506Y-288014111D03*
G04 #@! TD*
D10*
G04 #@! TO.C,S94*
X481286227Y-282197941D03*
D11*
X475786227Y-288147941D03*
D12*
X475786227Y-282197941D03*
D11*
X470786227Y-285947941D03*
D10*
X470286227Y-282197941D03*
D13*
X479061227Y-288147941D03*
D14*
X475786227Y-276297941D03*
X480786227Y-278397941D03*
D13*
X467511227Y-285947941D03*
G04 #@! TD*
D24*
G04 #@! TO.C,R_{AC}2*
X95250000Y-193545000D03*
X95250000Y-186995000D03*
G04 #@! TD*
D10*
G04 #@! TO.C,S13*
X366035220Y-264028765D03*
D11*
X360535220Y-269978765D03*
D12*
X360535220Y-264028765D03*
D11*
X355535220Y-267778765D03*
D10*
X355035220Y-264028765D03*
D13*
X363810220Y-269978765D03*
D14*
X360535220Y-258128765D03*
X365535220Y-260228765D03*
D13*
X352260220Y-267778765D03*
G04 #@! TD*
D20*
G04 #@! TO.C,BT6*
X357362500Y-183690000D03*
X357362500Y-178610000D03*
X349742500Y-181150000D03*
G04 #@! TD*
D10*
G04 #@! TO.C,S32*
X212131196Y-317513523D03*
D11*
X204772893Y-320905847D03*
D12*
X207049859Y-315408764D03*
D11*
X200995398Y-316959895D03*
D10*
X201968522Y-313304005D03*
D34*
X207798598Y-322159135D03*
D14*
X209307691Y-309957875D03*
X213123454Y-313811439D03*
D34*
X197969693Y-315706607D03*
G04 #@! TD*
D10*
G04 #@! TO.C,S45*
X213808763Y-340184242D03*
D11*
X206257088Y-343121026D03*
D12*
X208865396Y-337773201D03*
D11*
X202727534Y-338951823D03*
D10*
X203922029Y-335362160D03*
D42*
X209200638Y-344556691D03*
D14*
X211451786Y-332470316D03*
X215025177Y-336549638D03*
D42*
X199783983Y-337516157D03*
G04 #@! TD*
D20*
G04 #@! TO.C,BT9*
X148387500Y-163390000D03*
X148387500Y-158310000D03*
X140767500Y-160850000D03*
G04 #@! TD*
G04 #@! TO.C,BT12*
X263980800Y-158310000D03*
X263980800Y-163390000D03*
X271600800Y-160850000D03*
G04 #@! TD*
D10*
G04 #@! TO.C,S54*
X138381837Y-340393463D03*
D11*
X132881837Y-346343463D03*
D12*
X132881837Y-340393463D03*
D11*
X127881837Y-344143463D03*
D10*
X127381837Y-340393463D03*
D13*
X136156837Y-346343463D03*
D14*
X132881837Y-334493463D03*
X137881837Y-336593463D03*
D13*
X124606837Y-344143463D03*
G04 #@! TD*
D10*
G04 #@! TO.C,S81*
X500242587Y-348550000D03*
D11*
X494742587Y-354500000D03*
D12*
X494742587Y-348550000D03*
D11*
X489742587Y-352300000D03*
D10*
X489242587Y-348550000D03*
D13*
X498017587Y-354500000D03*
D14*
X494742587Y-342650000D03*
X499742587Y-344750000D03*
D13*
X486467587Y-352300000D03*
G04 #@! TD*
D10*
G04 #@! TO.C,S37*
X341880921Y-302173666D03*
D11*
X336538559Y-308265600D03*
D12*
X336382806Y-302317639D03*
D11*
X331482683Y-306197239D03*
D10*
X330884691Y-302461612D03*
D36*
X339812437Y-308179871D03*
D14*
X336228362Y-296419661D03*
X341281620Y-298388056D03*
D36*
X328208805Y-306282968D03*
G04 #@! TD*
D10*
G04 #@! TO.C,S98*
X404129327Y-302293472D03*
D11*
X398629327Y-308243472D03*
D12*
X398629327Y-302293472D03*
D11*
X393629327Y-306043472D03*
D10*
X393129327Y-302293472D03*
D13*
X401904327Y-308243472D03*
D14*
X398629327Y-296393472D03*
X403629327Y-298493472D03*
D13*
X390354327Y-306043472D03*
G04 #@! TD*
D10*
G04 #@! TO.C,S80*
X481350009Y-358100212D03*
D11*
X475850009Y-364050212D03*
D12*
X475850009Y-358100212D03*
D11*
X470850009Y-361850212D03*
D10*
X470350009Y-358100212D03*
D13*
X479125009Y-364050212D03*
D14*
X475850009Y-352200212D03*
X480850009Y-354300212D03*
D13*
X467575009Y-361850212D03*
G04 #@! TD*
D10*
G04 #@! TO.C,S5*
X189100936Y-268596618D03*
D11*
X182403443Y-273156890D03*
D12*
X183741901Y-267359388D03*
D11*
X178026484Y-269888520D03*
D10*
X178382866Y-266122158D03*
D43*
X185594504Y-273893605D03*
D14*
X185069112Y-261610604D03*
X189468566Y-264781537D03*
D43*
X174835422Y-269151805D03*
G04 #@! TD*
D10*
G04 #@! TO.C,S52*
X396972381Y-321343493D03*
D11*
X391472381Y-327293493D03*
D12*
X391472381Y-321343493D03*
D11*
X386472381Y-325093493D03*
D10*
X385972381Y-321343493D03*
D13*
X394747381Y-327293493D03*
D14*
X391472381Y-315443493D03*
X396472381Y-317543493D03*
D13*
X383197381Y-325093493D03*
G04 #@! TD*
D10*
G04 #@! TO.C,S61*
X314883979Y-343555367D03*
D11*
X311048928Y-350692936D03*
D12*
X309559167Y-344932457D03*
D11*
X305657354Y-349814911D03*
D10*
X304234355Y-346309547D03*
D44*
X314219611Y-349872941D03*
D14*
X308081925Y-339220386D03*
X313448461Y-340001596D03*
D44*
X302486670Y-350634905D03*
G04 #@! TD*
D10*
G04 #@! TO.C,S10*
X306093533Y-264847174D03*
D11*
X301829897Y-271737304D03*
D12*
X300694583Y-265896622D03*
D11*
X296501981Y-270531769D03*
D10*
X295295633Y-266946070D03*
D45*
X305044726Y-271112404D03*
D14*
X299568810Y-260105022D03*
X304877645Y-261212394D03*
D45*
X293287152Y-271156668D03*
G04 #@! TD*
D20*
G04 #@! TO.C,BT8*
X403322500Y-178610000D03*
X403322500Y-183690000D03*
X410942500Y-181150000D03*
G04 #@! TD*
D10*
G04 #@! TO.C,S4*
X168649850Y-264730125D03*
D11*
X162652202Y-270178126D03*
D12*
X163170779Y-264250768D03*
D11*
X157862968Y-267550719D03*
D10*
X157691708Y-263771411D03*
D46*
X165914740Y-270463562D03*
D14*
X163684998Y-258373219D03*
X168482944Y-260901007D03*
D46*
X154600434Y-267265284D03*
G04 #@! TD*
D20*
G04 #@! TO.C,BT1*
X148387500Y-183690000D03*
X148387500Y-178610000D03*
X140767500Y-181150000D03*
G04 #@! TD*
D10*
G04 #@! TO.C,S33*
X263001986Y-321082896D03*
D11*
X260939130Y-328918528D03*
D12*
X258145774Y-323664990D03*
D11*
X255491554Y-329323401D03*
D10*
X253289562Y-326247084D03*
D47*
X263830783Y-327381009D03*
D14*
X255375892Y-318455599D03*
X260776520Y-317962431D03*
D47*
X252599901Y-330860921D03*
G04 #@! TD*
D10*
G04 #@! TO.C,S100*
X500228976Y-263193739D03*
D11*
X494728976Y-269143739D03*
D12*
X494728976Y-263193739D03*
D11*
X489728976Y-266943739D03*
D10*
X489228976Y-263193739D03*
D13*
X498003976Y-269143739D03*
D14*
X494728976Y-257293739D03*
X499728976Y-259393739D03*
D13*
X486453976Y-266943739D03*
G04 #@! TD*
D10*
G04 #@! TO.C,S26*
X366029351Y-282989474D03*
D11*
X360529351Y-288939474D03*
D12*
X360529351Y-282989474D03*
D11*
X355529351Y-286739474D03*
D10*
X355029351Y-282989474D03*
D13*
X363804351Y-288939474D03*
D14*
X360529351Y-277089474D03*
X365529351Y-279189474D03*
D13*
X352254351Y-286739474D03*
G04 #@! TD*
D10*
G04 #@! TO.C,S66*
X82666824Y-279918289D03*
D11*
X77166824Y-285868289D03*
D12*
X77166824Y-279918289D03*
D11*
X72166824Y-283668289D03*
D10*
X71666824Y-279918289D03*
D13*
X80441824Y-285868289D03*
D14*
X77166824Y-274018289D03*
X82166824Y-276118289D03*
D13*
X68891824Y-283668289D03*
G04 #@! TD*
D10*
G04 #@! TO.C,S44*
X195150770Y-331724761D03*
D11*
X188013287Y-335559972D03*
D12*
X189950418Y-329934136D03*
D11*
X184001945Y-331851990D03*
D10*
X184750066Y-328143511D03*
D48*
X191109861Y-336626207D03*
D14*
X191871270Y-324355576D03*
X195915170Y-327969006D03*
D48*
X180905371Y-330785754D03*
G04 #@! TD*
D49*
G04 #@! TO.C,J16*
X427100000Y-239750000D03*
D50*
X407100000Y-239750000D03*
G04 #@! TD*
D10*
G04 #@! TO.C,S27*
X108854337Y-302293461D03*
D11*
X103354337Y-308243461D03*
D12*
X103354337Y-302293461D03*
D11*
X98354337Y-306043461D03*
D10*
X97854337Y-302293461D03*
D13*
X106629337Y-308243461D03*
D14*
X103354337Y-296393461D03*
X108354337Y-298493461D03*
D13*
X95079337Y-306043461D03*
G04 #@! TD*
D20*
G04 #@! TO.C,BT11*
X218020800Y-163390000D03*
X218020800Y-158310000D03*
X210400800Y-160850000D03*
G04 #@! TD*
D10*
G04 #@! TO.C,S74*
X194545489Y-380129609D03*
D11*
X187187186Y-383521933D03*
D12*
X189464152Y-378024850D03*
D11*
X183409691Y-379575981D03*
D10*
X184382815Y-375920091D03*
D34*
X190212891Y-384775221D03*
D14*
X191721984Y-372573961D03*
X195537747Y-376427525D03*
D34*
X180383986Y-378322693D03*
G04 #@! TD*
D10*
G04 #@! TO.C,S72*
X126233018Y-359443459D03*
D11*
X120733018Y-365393459D03*
D12*
X120733018Y-359443459D03*
D11*
X115733018Y-363193459D03*
D10*
X115233018Y-359443459D03*
D13*
X124008018Y-365393459D03*
D14*
X120733018Y-353543459D03*
X125733018Y-355643459D03*
D13*
X112458018Y-363193459D03*
G04 #@! TD*
D10*
G04 #@! TO.C,S36*
X321460476Y-303159653D03*
D11*
X316900355Y-309857249D03*
D12*
X316020889Y-303972605D03*
D11*
X311630095Y-308420462D03*
D10*
X310581302Y-304785557D03*
D51*
X320139382Y-309373174D03*
D14*
X315148813Y-298137411D03*
X320404293Y-299475298D03*
D51*
X308391068Y-308904537D03*
G04 #@! TD*
D10*
G04 #@! TO.C,S20*
X225838746Y-301934627D03*
D11*
X218480443Y-305326951D03*
D12*
X220757409Y-299829868D03*
D11*
X214702948Y-301380999D03*
D10*
X215676072Y-297725109D03*
D34*
X221506148Y-306580239D03*
D14*
X223015241Y-294378979D03*
X226831004Y-298232543D03*
D34*
X211677243Y-300127711D03*
G04 #@! TD*
D10*
G04 #@! TO.C,S55*
X159066443Y-342805065D03*
D11*
X152616793Y-347709606D03*
D12*
X153650000Y-341850000D03*
D11*
X148074781Y-344674788D03*
D10*
X148233557Y-340894935D03*
D52*
X155842039Y-348278304D03*
D14*
X154674524Y-336039634D03*
X159233902Y-338975971D03*
D52*
X144849535Y-344106090D03*
G04 #@! TD*
D10*
G04 #@! TO.C,S12*
X346906802Y-263884265D03*
D11*
X341406802Y-269834265D03*
D12*
X341406802Y-263884265D03*
D11*
X336406802Y-267634265D03*
D10*
X335906802Y-263884265D03*
D13*
X344681802Y-269834265D03*
D14*
X341406802Y-257984265D03*
X346406802Y-260084265D03*
D13*
X333131802Y-267634265D03*
G04 #@! TD*
D10*
G04 #@! TO.C,S97*
X443351596Y-263114868D03*
D11*
X437851596Y-269064868D03*
D12*
X437851596Y-263114868D03*
D11*
X432851596Y-266864868D03*
D10*
X432351596Y-263114868D03*
D13*
X441126596Y-269064868D03*
D14*
X437851596Y-257214868D03*
X442851596Y-259314868D03*
D13*
X429576596Y-266864868D03*
G04 #@! TD*
D10*
G04 #@! TO.C,S28*
X132666841Y-302293461D03*
D11*
X127166841Y-308243461D03*
D12*
X127166841Y-302293461D03*
D11*
X122166841Y-306043461D03*
D10*
X121666841Y-302293461D03*
D13*
X130441841Y-308243461D03*
D14*
X127166841Y-296393461D03*
X132166841Y-298493461D03*
D13*
X118891841Y-306043461D03*
G04 #@! TD*
D10*
G04 #@! TO.C,S29*
X152972025Y-302143039D03*
D11*
X147369021Y-307996145D03*
D12*
X147472863Y-302047051D03*
D11*
X142408178Y-305709218D03*
D10*
X141973701Y-301951063D03*
D53*
X150643522Y-308053301D03*
D14*
X147575832Y-296147950D03*
X152538421Y-298334892D03*
D53*
X139133677Y-305652061D03*
G04 #@! TD*
D10*
G04 #@! TO.C,S23*
X306280215Y-285732248D03*
D11*
X302016579Y-292622378D03*
D12*
X300881265Y-286781696D03*
D11*
X296688663Y-291416843D03*
D10*
X295482315Y-287831144D03*
D45*
X305231408Y-291997478D03*
D14*
X299755492Y-280990096D03*
X305064327Y-282097468D03*
D45*
X293473834Y-292041742D03*
G04 #@! TD*
D20*
G04 #@! TO.C,BT10*
X194447500Y-158310000D03*
X194447500Y-163390000D03*
X202067500Y-160850000D03*
G04 #@! TD*
D10*
G04 #@! TO.C,S59*
X276188709Y-358126297D03*
D11*
X274400569Y-366029148D03*
D12*
X271425569Y-360876297D03*
D11*
X268970442Y-366623892D03*
D10*
X266662429Y-363626297D03*
D54*
X277236802Y-364391648D03*
D14*
X268475569Y-355766747D03*
X273855696Y-355085400D03*
D54*
X266134209Y-368261392D03*
G04 #@! TD*
D22*
G04 #@! TO.C,H6*
X203800000Y-195150000D03*
D23*
X203800000Y-195150000D03*
G04 #@! TD*
D10*
G04 #@! TO.C,S18*
X187676610Y-288098900D03*
D11*
X180979116Y-292659172D03*
D12*
X182317575Y-286861670D03*
D11*
X176602158Y-289390802D03*
D10*
X176958540Y-285624440D03*
D43*
X184170178Y-293395886D03*
D14*
X183644786Y-281112886D03*
X188044240Y-284283819D03*
D43*
X173411097Y-288654087D03*
G04 #@! TD*
D10*
G04 #@! TO.C,S58*
X216618197Y-364030853D03*
D11*
X209016418Y-366835394D03*
D12*
X211717661Y-361533905D03*
D11*
X205560164Y-362605227D03*
D10*
X206817125Y-359036957D03*
D55*
X211934464Y-368322213D03*
D14*
X214396205Y-356276967D03*
X217897858Y-360418033D03*
D55*
X202642118Y-361118408D03*
G04 #@! TD*
D20*
G04 #@! TO.C,BT14*
X333814200Y-158310000D03*
X333814200Y-163390000D03*
X341434200Y-160850000D03*
G04 #@! TD*
D10*
G04 #@! TO.C,S11*
X326729071Y-262820643D03*
D11*
X321768577Y-269227358D03*
D12*
X321250000Y-263300000D03*
D11*
X316595861Y-267471509D03*
D10*
X315770929Y-263779357D03*
D40*
X325031114Y-268941923D03*
D14*
X320735781Y-257422451D03*
X325899782Y-259078681D03*
D40*
X313333323Y-267756944D03*
G04 #@! TD*
D22*
G04 #@! TO.C,H8*
X417100000Y-211475000D03*
D23*
X417100000Y-211475000D03*
G04 #@! TD*
D10*
G04 #@! TO.C,S71*
X100040544Y-359443459D03*
D11*
X94540544Y-365393459D03*
D12*
X94540544Y-359443459D03*
D11*
X89540544Y-363193459D03*
D10*
X89040544Y-359443459D03*
D13*
X97815544Y-365393459D03*
D14*
X94540544Y-353543459D03*
X99540544Y-355643459D03*
D13*
X86265544Y-363193459D03*
G04 #@! TD*
D10*
G04 #@! TO.C,S92*
X443318515Y-282197941D03*
D11*
X437818515Y-288147941D03*
D12*
X437818515Y-282197941D03*
D11*
X432818515Y-285947941D03*
D10*
X432318515Y-282197941D03*
D13*
X441093515Y-288147941D03*
D14*
X437818515Y-276297941D03*
X442818515Y-278397941D03*
D13*
X429543515Y-285947941D03*
G04 #@! TD*
D10*
G04 #@! TO.C,S40*
X109331861Y-321343460D03*
D11*
X103831861Y-327293460D03*
D12*
X103831861Y-321343460D03*
D11*
X98831861Y-325093460D03*
D10*
X98331861Y-321343460D03*
D13*
X107106861Y-327293460D03*
D14*
X103831861Y-315443460D03*
X108831861Y-317543460D03*
D13*
X95556861Y-325093460D03*
G04 #@! TD*
D10*
G04 #@! TO.C,S75*
X293276109Y-376185723D03*
D11*
X290471738Y-383787565D03*
D12*
X288194772Y-378290482D03*
D11*
X285010437Y-383668447D03*
D10*
X283113435Y-380395241D03*
D56*
X293497444Y-382534277D03*
D14*
X285936940Y-372839593D03*
X291359973Y-372866324D03*
D56*
X281984732Y-384921736D03*
G04 #@! TD*
D10*
G04 #@! TO.C,S83*
X462270633Y-339162544D03*
D11*
X456770633Y-345112544D03*
D12*
X456770633Y-339162544D03*
D11*
X451770633Y-342912544D03*
D10*
X451270633Y-339162544D03*
D13*
X460045633Y-345112544D03*
D14*
X456770633Y-333262544D03*
X461770633Y-335362544D03*
D13*
X448495633Y-342912544D03*
G04 #@! TD*
D20*
G04 #@! TO.C,BT4*
X264080800Y-178610000D03*
X264080800Y-183690000D03*
X271700800Y-181150000D03*
G04 #@! TD*
D10*
G04 #@! TO.C,S7*
X229890237Y-281239336D03*
D11*
X222531934Y-284631660D03*
D12*
X224808900Y-279134577D03*
D11*
X218754439Y-280685708D03*
D10*
X219727563Y-277029818D03*
D34*
X225557639Y-285884948D03*
D14*
X227066732Y-273683688D03*
X230882495Y-277537252D03*
D34*
X215728734Y-279432420D03*
G04 #@! TD*
D10*
G04 #@! TO.C,S53*
X107411434Y-340393494D03*
D11*
X101911434Y-346343494D03*
D12*
X101911434Y-340393494D03*
D11*
X96911434Y-344143494D03*
D10*
X96411434Y-340393494D03*
D13*
X105186434Y-346343494D03*
D14*
X101911434Y-334493494D03*
X106911434Y-336593494D03*
D13*
X93636434Y-344143494D03*
G04 #@! TD*
D10*
G04 #@! TO.C,S25*
X346852350Y-282989474D03*
D11*
X341352350Y-288939474D03*
D12*
X341352350Y-282989474D03*
D11*
X336352350Y-286739474D03*
D10*
X335852350Y-282989474D03*
D13*
X344627350Y-288939474D03*
D14*
X341352350Y-277089474D03*
X346352350Y-279189474D03*
D13*
X333077350Y-286739474D03*
G04 #@! TD*
D10*
G04 #@! TO.C,S19*
X206865006Y-294403170D03*
D11*
X199795544Y-298362363D03*
D12*
X201634195Y-292703577D03*
D11*
X195720099Y-294724954D03*
D10*
X196403384Y-291003984D03*
D29*
X202910254Y-299374394D03*
D14*
X203457395Y-287092345D03*
X207563742Y-290634647D03*
D29*
X192605389Y-293712923D03*
G04 #@! TD*
D10*
G04 #@! TO.C,S9*
X285888545Y-269106916D03*
D11*
X282496385Y-276465295D03*
D12*
X280657734Y-270806509D03*
D11*
X277061265Y-275918056D03*
D10*
X275426923Y-272506102D03*
D31*
X285611095Y-275453265D03*
D14*
X278834534Y-265195277D03*
X284238752Y-265647409D03*
D31*
X273946555Y-276930087D03*
G04 #@! TD*
D57*
G04 #@! TO.C,U7*
X149075000Y-203550000D03*
X149700000Y-202549999D03*
X149700000Y-204550001D03*
X150325000Y-203550000D03*
G04 #@! TD*
D58*
G04 #@! TO.C,J3*
X184900000Y-203450000D03*
D59*
X192350000Y-203450000D03*
G04 #@! TD*
D10*
G04 #@! TO.C,S1*
X108753413Y-264228366D03*
D11*
X103253413Y-270178366D03*
D12*
X103253413Y-264228366D03*
D11*
X98253413Y-267978366D03*
D10*
X97753413Y-264228366D03*
D13*
X106528413Y-270178366D03*
D14*
X103253413Y-258328366D03*
X108253413Y-260428366D03*
D13*
X94978413Y-267978366D03*
G04 #@! TD*
D22*
G04 #@! TO.C,H9*
X472900000Y-204300000D03*
D23*
X472900000Y-204300000D03*
G04 #@! TD*
D10*
G04 #@! TO.C,S82*
X481240421Y-339113067D03*
D11*
X475740421Y-345063067D03*
D12*
X475740421Y-339113067D03*
D11*
X470740421Y-342863067D03*
D10*
X470240421Y-339113067D03*
D13*
X479015421Y-345063067D03*
D14*
X475740421Y-333213067D03*
X480740421Y-335313067D03*
D13*
X467465421Y-342863067D03*
G04 #@! TD*
D10*
G04 #@! TO.C,S38*
X361266839Y-302166466D03*
D11*
X355766839Y-308116466D03*
D12*
X355766839Y-302166466D03*
D11*
X350766839Y-305916466D03*
D10*
X350266839Y-302166466D03*
D13*
X359041839Y-308116466D03*
D14*
X355766839Y-296266466D03*
X360766839Y-298366466D03*
D13*
X347491839Y-305916466D03*
G04 #@! TD*
D10*
G04 #@! TO.C,S90*
X462269290Y-301148720D03*
D11*
X456769290Y-307098720D03*
D12*
X456769290Y-301148720D03*
D11*
X451769290Y-304898720D03*
D10*
X451269290Y-301148720D03*
D13*
X460044290Y-307098720D03*
D14*
X456769290Y-295248720D03*
X461769290Y-297348720D03*
D13*
X448494290Y-304898720D03*
G04 #@! TD*
D10*
G04 #@! TO.C,S93*
X462269290Y-282231012D03*
D11*
X456769290Y-288181012D03*
D12*
X456769290Y-282231012D03*
D11*
X451769290Y-285981012D03*
D10*
X451269290Y-282231012D03*
D13*
X460044290Y-288181012D03*
D14*
X456769290Y-276331012D03*
X461769290Y-278431012D03*
D13*
X448494290Y-285981012D03*
G04 #@! TD*
D10*
G04 #@! TO.C,S76*
X317476411Y-366161400D03*
D11*
X314672040Y-373763242D03*
D12*
X312395074Y-368266159D03*
D11*
X309210739Y-373644124D03*
D10*
X307313737Y-370370918D03*
D56*
X317697746Y-372509954D03*
D14*
X310137242Y-362815270D03*
X315560275Y-362842001D03*
D56*
X306185034Y-374897413D03*
G04 #@! TD*
D10*
G04 #@! TO.C,S3*
X147151065Y-263368470D03*
D11*
X141651065Y-269318470D03*
D12*
X141651065Y-263368470D03*
D11*
X136651065Y-267118470D03*
D10*
X136151065Y-263368470D03*
D13*
X144926065Y-269318470D03*
D14*
X141651065Y-257468470D03*
X146651065Y-259568470D03*
D13*
X133376065Y-267118470D03*
G04 #@! TD*
D10*
G04 #@! TO.C,S41*
X135524339Y-321342426D03*
D11*
X130024339Y-327292426D03*
D12*
X130024339Y-321342426D03*
D11*
X125024339Y-325092426D03*
D10*
X124524339Y-321342426D03*
D13*
X133299339Y-327292426D03*
D14*
X130024339Y-315442426D03*
X135024339Y-317542426D03*
D13*
X121749339Y-325092426D03*
G04 #@! TD*
D10*
G04 #@! TO.C,S67*
X77892471Y-298968285D03*
D11*
X72392471Y-304918285D03*
D12*
X72392471Y-298968285D03*
D11*
X67392471Y-302718285D03*
D10*
X66892471Y-298968285D03*
D13*
X75667471Y-304918285D03*
D14*
X72392471Y-293068285D03*
X77392471Y-295168285D03*
D13*
X64117471Y-302718285D03*
G04 #@! TD*
D10*
G04 #@! TO.C,S78*
X413654351Y-359443459D03*
D11*
X408154351Y-365393459D03*
D12*
X408154351Y-359443459D03*
D11*
X403154351Y-363193459D03*
D10*
X402654351Y-359443459D03*
D13*
X411429351Y-365393459D03*
D14*
X408154351Y-353543459D03*
X413154351Y-355643459D03*
D13*
X399879351Y-363193459D03*
G04 #@! TD*
D10*
G04 #@! TO.C,S17*
X167179863Y-283933648D03*
D11*
X161182215Y-289381649D03*
D12*
X161700792Y-283454291D03*
D11*
X156392981Y-286754242D03*
D10*
X156221721Y-282974934D03*
D46*
X164444753Y-289667085D03*
D14*
X162215011Y-277576742D03*
X167012957Y-280104530D03*
D46*
X153130447Y-286468807D03*
G04 #@! TD*
D10*
G04 #@! TO.C,S60*
X295200609Y-349717446D03*
D11*
X292396238Y-357319288D03*
D12*
X290119272Y-351822205D03*
D11*
X286934937Y-357200170D03*
D10*
X285037935Y-353926964D03*
D56*
X295421944Y-356066000D03*
D14*
X287861440Y-346371316D03*
X293284473Y-346398047D03*
D56*
X283909232Y-358453459D03*
G04 #@! TD*
D10*
G04 #@! TO.C,S30*
X173334605Y-304690833D03*
D11*
X167060051Y-309817476D03*
D12*
X167888131Y-303925381D03*
D11*
X162414893Y-306943021D03*
D10*
X162441657Y-303159929D03*
D60*
X170303179Y-310273268D03*
D14*
X168709252Y-298082799D03*
X173368329Y-300858228D03*
D60*
X159171764Y-306487229D03*
G04 #@! TD*
D61*
G04 #@! TO.C,J6*
X62662500Y-225600700D03*
D62*
X61162500Y-224850700D03*
X62662500Y-224100700D03*
X59662500Y-224100700D03*
X61162500Y-223350700D03*
X59662500Y-222600700D03*
X62662500Y-222600700D03*
X61162500Y-221850700D03*
X62662500Y-221100700D03*
X59662500Y-221100700D03*
X61162500Y-220350700D03*
X59662500Y-219600700D03*
X62662500Y-219600700D03*
X61162500Y-218850700D03*
X62662500Y-218100700D03*
X59662500Y-218100700D03*
X61162500Y-217350700D03*
X59662500Y-216600700D03*
X62662500Y-216600700D03*
D63*
X57162500Y-214250700D03*
X57162500Y-227450700D03*
G04 #@! TD*
D10*
G04 #@! TO.C,S46*
X267957386Y-340446048D03*
D11*
X266169246Y-348348899D03*
D12*
X263194246Y-343196048D03*
D11*
X260739119Y-348943643D03*
D10*
X258431106Y-345946048D03*
D54*
X269005479Y-346711399D03*
D14*
X260244246Y-338086498D03*
X265624373Y-337405151D03*
D54*
X257902886Y-350581143D03*
G04 #@! TD*
D10*
G04 #@! TO.C,S95*
X500237003Y-282197941D03*
D11*
X494737003Y-288147941D03*
D12*
X494737003Y-282197941D03*
D11*
X489737003Y-285947941D03*
D10*
X489237003Y-282197941D03*
D13*
X498012003Y-288147941D03*
D14*
X494737003Y-276297941D03*
X499737003Y-278397941D03*
D13*
X486462003Y-285947941D03*
G04 #@! TD*
D20*
G04 #@! TO.C,BT3*
X218020800Y-183690000D03*
X218020800Y-178610000D03*
X210400800Y-181150000D03*
G04 #@! TD*
D10*
G04 #@! TO.C,S68*
X74082464Y-318018284D03*
D11*
X68582464Y-323968284D03*
D12*
X68582464Y-318018284D03*
D11*
X63582464Y-321768284D03*
D10*
X63082464Y-318018284D03*
D13*
X71857464Y-323968284D03*
D14*
X68582464Y-312118284D03*
X73582464Y-314218284D03*
D13*
X60307464Y-321768284D03*
G04 #@! TD*
D10*
G04 #@! TO.C,S87*
X481275272Y-320140583D03*
D11*
X475775272Y-326090583D03*
D12*
X475775272Y-320140583D03*
D11*
X470775272Y-323890583D03*
D10*
X470275272Y-320140583D03*
D13*
X479050272Y-326090583D03*
D14*
X475775272Y-314240583D03*
X480775272Y-316340583D03*
D13*
X467500272Y-323890583D03*
G04 #@! TD*
D10*
G04 #@! TO.C,S15*
X127904336Y-283243464D03*
D11*
X122404336Y-289193464D03*
D12*
X122404336Y-283243464D03*
D11*
X117404336Y-286993464D03*
D10*
X116904336Y-283243464D03*
D13*
X125679336Y-289193464D03*
D14*
X122404336Y-277343464D03*
X127404336Y-279443464D03*
D13*
X114129336Y-286993464D03*
G04 #@! TD*
D10*
G04 #@! TO.C,S51*
X366029351Y-321343460D03*
D11*
X360529351Y-327293460D03*
D12*
X360529351Y-321343460D03*
D11*
X355529351Y-325093460D03*
D10*
X355029351Y-321343460D03*
D13*
X363804351Y-327293460D03*
D14*
X360529351Y-315443460D03*
X365529351Y-317543460D03*
D13*
X352254351Y-325093460D03*
G04 #@! TD*
D10*
G04 #@! TO.C,S99*
X481169772Y-263224422D03*
D11*
X475669772Y-269174422D03*
D12*
X475669772Y-263224422D03*
D11*
X470669772Y-266974422D03*
D10*
X470169772Y-263224422D03*
D13*
X478944772Y-269174422D03*
D14*
X475669772Y-257324422D03*
X480669772Y-259424422D03*
D13*
X467394772Y-266974422D03*
G04 #@! TD*
D15*
G04 #@! TO.C,J2*
X239250000Y-357030000D03*
D16*
X239250000Y-356030000D03*
G04 #@! TD*
D10*
G04 #@! TO.C,S21*
X266653644Y-297736901D03*
D11*
X264049227Y-305409548D03*
D12*
X261629144Y-299973953D03*
D11*
X258586679Y-305433432D03*
D10*
X256604644Y-302211005D03*
D25*
X267041088Y-304077486D03*
D14*
X259229398Y-294584035D03*
X264651272Y-294468797D03*
D25*
X255594818Y-306765494D03*
G04 #@! TD*
D10*
G04 #@! TO.C,S14*
X108854337Y-283243464D03*
D11*
X103354337Y-289193464D03*
D12*
X103354337Y-283243464D03*
D11*
X98354337Y-286993464D03*
D10*
X97854337Y-283243464D03*
D13*
X106629337Y-289193464D03*
D14*
X103354337Y-277343464D03*
X108354337Y-279443464D03*
D13*
X95079337Y-286993464D03*
G04 #@! TD*
D64*
G04 #@! TO.C,TP15*
X479600000Y-245100000D03*
G04 #@! TD*
G04 #@! TO.C,TP18*
X475450000Y-245100000D03*
G04 #@! TD*
G04 #@! TO.C,TP16*
X466600000Y-237450000D03*
G04 #@! TD*
M02*
