M48
; DRILL file {KiCad 9.0.0-9.0.0-2~ubuntu22.04.1} date 2025-03-10T11:03:09-0700
; FORMAT={-:-/ absolute / metric / decimal}
; #@! TF.CreationDate,2025-03-10T11:03:09-07:00
; #@! TF.GenerationSoftware,Kicad,Pcbnew,9.0.0-9.0.0-2~ubuntu22.04.1
; #@! TF.FileFunction,Plated,1,4,PTH
FMAT,2
METRIC
; #@! TA.AperFunction,Plated,PTH,ComponentDrill
T1C0.200
; #@! TA.AperFunction,Plated,PTH,ComponentDrill
T2C0.203
; #@! TA.AperFunction,Plated,PTH,ViaDrill
T3C0.300
; #@! TA.AperFunction,Plated,PTH,ViaDrill
T4C0.330
; #@! TA.AperFunction,Plated,PTH,ViaDrill
T5C0.381
; #@! TA.AperFunction,Plated,PTH,ComponentDrill
T6C0.500
; #@! TA.AperFunction,Plated,PTH,ComponentDrill
T7C0.580
; #@! TA.AperFunction,Plated,PTH,ComponentDrill
T8C0.700
; #@! TA.AperFunction,Plated,PTH,ComponentDrill
T9C1.000
; #@! TA.AperFunction,Plated,PTH,ComponentDrill
T10C1.016
; #@! TA.AperFunction,Plated,PTH,ComponentDrill
T11C1.270
; #@! TA.AperFunction,Plated,PTH,ComponentDrill
T12C1.830
; #@! TA.AperFunction,Plated,PTH,ComponentDrill
T13C2.200
; #@! TA.AperFunction,Plated,PTH,ComponentDrill
T14C2.350
%
G90
G05
T1
X99.825Y-212.975
X99.825Y-214.075
X99.825Y-215.175
X100.925Y-212.975
X100.925Y-214.075
X100.925Y-215.175
X102.025Y-212.975
X102.025Y-214.075
X102.025Y-215.175
T2
X149.075Y-203.55
X149.7Y-202.55
X149.7Y-204.55
X150.325Y-203.55
T3
X57.1Y-341.5
X59.45Y-322.55
X59.75Y-363.6
X61.25Y-214.638
X63.3Y-303.0
X63.994Y-206.324
X64.287Y-185.95
X64.337Y-195.812
X64.438Y-188.213
X64.438Y-193.487
X64.45Y-208.1
X65.05Y-214.3
X65.35Y-228.275
X65.388Y-195.262
X65.425Y-222.0
X65.438Y-188.213
X65.438Y-193.487
X65.487Y-185.95
X65.73Y-209.4
X66.3Y-230.15
X66.438Y-190.85
X66.8Y-198.4
X67.25Y-228.275
X68.0Y-284.45
X68.39Y-212.2
X68.438Y-185.732
X68.812Y-228.3
X69.06Y-195.1
X69.763Y-230.175
X70.4Y-197.4
X71.157Y-209.35
X72.062Y-225.562
X73.35Y-183.75
X73.867Y-211.547
X73.938Y-224.612
X73.938Y-226.512
X74.3Y-213.7
X74.3Y-243.387
X74.54Y-207.3
X74.54Y-208.3
X74.8Y-211.4
X75.05Y-201.445
X75.6Y-206.3
X75.65Y-241.512
X75.685Y-213.2
X75.7Y-239.37
X76.188Y-201.47
X76.56Y-206.3
X76.9Y-243.4
X77.3Y-201.395
X77.465Y-211.1
X77.985Y-214.487
X78.263Y-222.75
X79.737Y-218.35
X80.667Y-217.75
X80.95Y-304.85
X81.0Y-224.96
X81.15Y-196.2
X81.15Y-218.64
X81.6Y-207.8
X81.9Y-251.275
X82.597Y-220.4
X82.597Y-222.3
X82.65Y-205.045
X83.457Y-221.35
X83.457Y-223.25
X83.597Y-205.07
X84.5Y-205.095
X84.55Y-218.675
X85.3Y-220.4
X85.55Y-364.05
X85.799Y-226.799
X85.8Y-164.85
X85.8Y-168.15
X86.401Y-227.401
X86.499Y-222.401
X87.101Y-221.799
X87.75Y-213.45
X88.529Y-213.445
X88.856Y-226.494
X89.025Y-251.17
X89.025Y-252.02
X89.375Y-164.088
X89.45Y-213.4
X90.2Y-157.5
X90.39Y-201.98
X92.265Y-165.935
X92.55Y-162.55
X92.985Y-160.35
X93.012Y-247.013
X93.05Y-343.1
X93.613Y-246.412
X93.85Y-159.3
X93.9Y-210.716
X94.05Y-217.45
X94.15Y-305.1
X94.55Y-324.1
X94.922Y-213.841
X94.95Y-212.02
X94.95Y-227.4
X94.994Y-204.804
X95.0Y-267.0
X95.15Y-286.1
X95.4Y-218.36
X96.037Y-156.137
X96.075Y-163.95
X96.198Y-227.138
X96.25Y-211.99
X96.25Y-212.981
X96.35Y-206.7
X96.45Y-216.28
X96.6Y-219.025
X96.95Y-226.865
X97.55Y-211.05
X97.82Y-217.16
X97.875Y-159.6
X98.004Y-214.954
X98.1Y-225.1
X98.35Y-208.225
X98.85Y-224.65
X99.6Y-203.0
X99.65Y-220.45
X99.749Y-217.197
X100.1Y-210.6
X100.15Y-159.6
X100.15Y-160.55
X100.547Y-217.25
X100.55Y-219.6
X100.55Y-221.06
X101.15Y-209.4
X101.54Y-222.245
X101.665Y-159.3
X101.865Y-218.435
X102.6Y-221.75
X103.5Y-210.45
X103.85Y-213.453
X104.25Y-212.05
X104.65Y-213.453
X105.05Y-219.555
X106.0Y-217.11
X106.16Y-214.295
X107.3Y-203.95
X107.561Y-175.848
X107.586Y-176.712
X107.91Y-218.15
X108.1Y-208.45
X108.192Y-210.65
X109.45Y-207.55
X109.817Y-175.4
X110.291Y-176.582
X110.291Y-177.602
X110.68Y-210.53
X111.8Y-364.0
X113.95Y-266.95
X114.25Y-286.1
X118.35Y-305.15
X118.867Y-154.567
X120.8Y-324.15
X122.617Y-151.55
X123.367Y-151.5
X123.975Y-171.172
X124.05Y-343.25
X124.393Y-163.288
X124.917Y-171.8
X125.393Y-163.288
X126.3Y-365.4
X126.393Y-163.288
X128.38Y-162.4
X128.4Y-148.8
X128.63Y-161.468
X128.66Y-160.468
X129.555Y-160.745
X130.848Y-158.256
X131.493Y-163.758
X131.917Y-170.05
X132.483Y-157.8
X132.483Y-160.778
X132.759Y-170.459
X133.25Y-285.55
X133.474Y-161.778
X133.493Y-162.768
X133.5Y-266.15
X133.504Y-160.778
X138.65Y-304.7
X140.6Y-323.85
X142.3Y-205.66
X144.3Y-343.2
X145.5Y-207.65
X147.419Y-204.678
X147.886Y-202.36
X149.16Y-212.19
X149.18Y-201.3
X150.09Y-201.3
X150.17Y-205.85
X150.7Y-367.0
X152.6Y-285.5
X152.85Y-211.275
X153.4Y-207.275
X154.0Y-266.25
X154.124Y-204.192
X157.0Y-203.399
X158.75Y-305.45
X160.26Y-201.45
X160.3Y-354.25
X160.9Y-325.45
X163.9Y-346.75
X171.749Y-247.851
X172.05Y-273.95
X172.351Y-247.249
X172.9Y-287.55
X173.65Y-246.575
X173.65Y-247.425
X174.25Y-268.1
X174.549Y-246.151
X175.151Y-245.549
X177.85Y-249.7
X178.15Y-379.4
X178.2Y-308.85
X179.1Y-378.6
X179.667Y-146.651
X180.2Y-203.45
X180.349Y-244.549
X180.4Y-329.4
X180.951Y-245.151
X181.3Y-255.375
X181.3Y-256.225
X181.85Y-256.9
X182.95Y-226.8
X183.478Y-247.225
X183.8Y-352.1
X184.007Y-247.825
X184.35Y-246.625
X184.7Y-248.225
X185.45Y-245.1
X188.974Y-254.251
X189.35Y-228.4
X189.824Y-254.251
X190.35Y-256.3
X192.15Y-292.6
X192.775Y-235.825
X193.75Y-226.8
X193.818Y-359.802
X194.0Y-366.05
X195.35Y-272.8
X196.25Y-231.62
X197.15Y-359.1
X197.75Y-314.5
X198.1Y-240.15
X199.45Y-336.2
X200.46Y-354.2
X202.05Y-231.2
X202.1Y-230.1
X202.438Y-235.969
X202.65Y-360.0
X203.25Y-236.0
X203.5Y-258.1
X204.6Y-204.9
X204.6Y-234.45
X205.15Y-231.7
X205.2Y-235.65
X205.35Y-349.8
X206.55Y-346.25
X206.7Y-345.4
X207.043Y-257.572
X207.25Y-246.5
X209.3Y-266.6
X209.447Y-246.531
X211.35Y-298.9
X211.934Y-368.322
X212.1Y-246.55
X213.0Y-257.65
X214.9Y-246.55
X215.25Y-277.9
X216.25Y-257.7
X217.3Y-246.55
X217.7Y-254.15
X218.226Y-254.753
X218.949Y-258.901
X219.083Y-262.374
X219.25Y-359.732
X219.4Y-246.6
X219.55Y-260.075
X219.55Y-260.925
X219.55Y-261.725
X219.551Y-258.299
X221.15Y-344.95
X221.35Y-257.95
X221.493Y-262.548
X221.55Y-261.75
X221.874Y-349.224
X222.05Y-249.4
X222.1Y-258.575
X222.1Y-259.425
X222.55Y-347.4
X222.65Y-338.5
X223.0Y-260.075
X223.0Y-260.925
X223.05Y-317.85
X223.3Y-346.95
X223.4Y-345.25
X223.5Y-334.15
X224.15Y-254.85
X224.6Y-249.35
X224.6Y-344.55
X225.2Y-246.55
X225.2Y-340.97
X225.55Y-344.15
X226.1Y-346.95
X226.2Y-350.54
X226.85Y-246.55
X227.1Y-303.85
X227.557Y-349.043
X228.499Y-346.95
X228.6Y-246.6
X228.827Y-349.043
X229.45Y-347.35
X229.55Y-257.65
X229.6Y-254.75
X229.75Y-204.85
X229.75Y-244.2
X230.0Y-246.55
X230.128Y-348.58
X230.6Y-351.6
X230.75Y-342.9
X231.15Y-258.5
X231.25Y-349.2
X231.35Y-360.8
X231.408Y-343.5
X231.45Y-365.25
X231.65Y-358.68
X231.85Y-354.85
X232.1Y-347.12
X232.4Y-232.95
X232.45Y-249.4
X232.52Y-353.5
X232.55Y-231.25
X232.55Y-232.15
X232.55Y-291.8
X232.572Y-343.7
X232.6Y-303.85
X232.699Y-262.901
X232.86Y-348.15
X232.95Y-279.9
X232.95Y-309.85
X233.301Y-262.299
X233.573Y-347.75
X233.85Y-336.9
X234.05Y-356.45
X234.2Y-263.775
X234.2Y-264.625
X234.2Y-342.85
X234.2Y-378.95
X234.4Y-265.6
X234.55Y-266.5
X234.65Y-318.0
X234.75Y-351.85
X234.75Y-375.75
X234.8Y-359.95
X234.9Y-319.05
X234.95Y-334.15
X235.125Y-269.377
X235.15Y-274.35
X235.4Y-375.05
X235.449Y-261.249
X235.55Y-352.5
X235.6Y-359.9
X235.808Y-344.542
X235.95Y-274.35
X235.975Y-269.377
X236.001Y-333.1
X236.051Y-261.851
X236.1Y-347.5
X236.15Y-377.15
X236.2Y-346.0
X236.25Y-365.4
X236.35Y-352.9
X236.75Y-253.475
X236.75Y-254.325
X236.85Y-338.32
X236.9Y-279.85
X236.9Y-348.95
X237.0Y-263.775
X237.0Y-264.625
X237.05Y-266.55
X237.1Y-246.55
X237.1Y-265.65
X237.15Y-303.75
X237.15Y-309.85
X237.625Y-344.45
X237.65Y-291.9
X237.8Y-339.02
X238.3Y-346.55
X238.35Y-374.15
X238.4Y-344.25
X238.7Y-343.0
X238.75Y-339.37
X238.75Y-352.85
X238.75Y-353.81
X239.55Y-246.6
X240.05Y-341.7
X240.6Y-349.0
X240.993Y-340.89
X240.993Y-341.85
X241.45Y-318.2
X241.45Y-319.05
X241.6Y-338.82
X241.75Y-254.75
X241.8Y-246.55
X241.9Y-333.15
X242.05Y-334.15
X242.1Y-355.462
X243.85Y-254.8
X243.864Y-343.45
X243.88Y-341.55
X243.884Y-347.55
X244.0Y-246.6
X244.38Y-342.5
X244.896Y-262.001
X245.262Y-263.775
X245.262Y-264.625
X245.45Y-257.7
X245.497Y-261.399
X245.719Y-258.453
X245.8Y-254.85
X246.35Y-264.7
X246.4Y-259.05
X246.5Y-246.6
X246.872Y-259.696
X247.0Y-265.3
X247.667Y-147.3
X247.7Y-254.75
X248.95Y-246.65
X249.25Y-365.95
X249.3Y-254.9
X249.4Y-355.05
X250.15Y-326.7
X250.35Y-344.25
X251.126Y-351.326
X251.2Y-246.55
X251.25Y-254.75
X251.276Y-345.174
X251.3Y-330.5
X251.65Y-266.41
X252.15Y-349.95
X252.65Y-266.41
X252.7Y-349.3
X253.7Y-246.6
X253.7Y-253.475
X253.7Y-254.325
X254.05Y-284.45
X254.25Y-349.05
X254.325Y-260.631
X254.4Y-258.2
X254.4Y-259.0
X254.5Y-259.85
X254.5Y-306.25
X254.7Y-346.05
X254.85Y-265.25
X255.254Y-261.313
X255.254Y-262.163
X255.6Y-257.55
X255.75Y-246.55
X256.15Y-343.25
X256.25Y-262.775
X256.25Y-263.625
X256.25Y-264.5
X256.55Y-350.15
X257.1Y-257.55
X257.75Y-246.6
X258.4Y-257.55
X258.45Y-340.05
X258.6Y-287.4
X258.876Y-356.367
X259.9Y-249.35
X260.65Y-257.55
X261.8Y-249.3
X263.45Y-257.55
X264.5Y-249.25
X264.95Y-368.2
X266.05Y-257.6
X266.25Y-254.8
X266.3Y-250.0
X268.05Y-359.15
X269.2Y-320.75
X273.125Y-244.1
X273.2Y-388.25
X273.3Y-276.1
X273.6Y-297.65
X273.65Y-377.6
X273.9Y-340.7
X275.4Y-192.75
X276.8Y-235.4
X277.3Y-253.475
X277.3Y-254.325
X278.831Y-358.203
X279.1Y-357.45
X281.65Y-386.0
X282.8Y-357.8
X286.412Y-338.627
X287.65Y-313.0
X288.85Y-244.5
X289.7Y-245.25
X289.906Y-246.023
X292.05Y-332.3
X292.65Y-291.45
X293.15Y-270.3
X294.35Y-244.814
X295.422Y-356.066
X301.7Y-350.05
X306.2Y-375.8
X307.45Y-308.15
X310.372Y-246.656
X312.0Y-326.8
X312.4Y-287.15
X313.6Y-266.7
X313.9Y-246.5
X320.923Y-356.577
X321.25Y-345.15
X327.6Y-305.4
X330.35Y-360.25
X331.85Y-324.5
X332.25Y-285.65
X333.2Y-266.6
X333.2Y-362.2
X340.9Y-343.7
X346.75Y-305.1
X351.3Y-285.85
X351.375Y-291.875
X351.5Y-324.15
X352.35Y-266.85
X353.45Y-356.65
X356.65Y-318.85
X365.9Y-304.95
X369.25Y-267.6
X370.8Y-364.2
X371.0Y-266.9
X372.95Y-343.35
X377.8Y-241.3
X378.35Y-287.05
X378.95Y-241.4
X378.95Y-242.2
X381.1Y-286.85
X382.45Y-324.2
X382.649Y-312.801
X382.815Y-270.027
X387.8Y-246.5
X389.75Y-266.9
X390.35Y-303.2
X390.6Y-305.2
X392.365Y-289.193
X399.1Y-364.1
X400.25Y-241.7
X400.964Y-209.3
X401.55Y-251.277
X401.583Y-241.845
X402.15Y-270.15
X402.678Y-210.65
X404.05Y-343.45
X404.35Y-236.05
X405.25Y-236.35
X406.575Y-203.05
X406.75Y-244.25
X407.103Y-256.487
X407.425Y-203.05
X407.75Y-234.995
X407.85Y-256.2
X408.8Y-234.995
X408.85Y-297.15
X409.05Y-289.55
X409.35Y-243.5
X409.7Y-296.993
X410.1Y-247.556
X410.8Y-251.735
X410.85Y-243.5
X410.9Y-289.7
X411.8Y-253.575
X411.8Y-254.425
X412.4Y-243.5
X413.55Y-301.95
X413.7Y-283.5
X413.7Y-292.5
X413.9Y-243.5
X414.15Y-312.57
X414.175Y-241.65
X414.35Y-263.45
X414.6Y-280.65
X415.025Y-241.65
X415.4Y-317.9
X415.4Y-320.8
X415.478Y-246.7
X416.499Y-242.349
X416.722Y-246.75
X417.101Y-242.951
X418.037Y-277.462
X418.35Y-243.4
X419.06Y-280.65
X419.125Y-226.7
X419.525Y-235.7
X420.375Y-235.7
X420.45Y-283.45
X420.5Y-288.0
X420.5Y-292.1
X420.5Y-301.5
X420.775Y-227.95
X421.4Y-317.85
X421.4Y-320.8
X421.442Y-276.2
X421.442Y-295.4
X421.45Y-239.25
X421.45Y-301.45
X421.85Y-322.95
X422.05Y-235.35
X424.8Y-246.75
X425.4Y-234.995
X425.7Y-272.6
X426.05Y-366.55
X426.35Y-330.55
X426.4Y-234.995
X426.4Y-327.3
X426.449Y-324.5
X426.65Y-313.3
X426.9Y-343.05
X427.2Y-297.05
X427.326Y-289.824
X427.45Y-244.25
X427.45Y-339.5
X427.65Y-351.3
X427.7Y-235.05
X427.7Y-311.15
X428.55Y-326.05
X428.9Y-306.95
X428.9Y-320.8
X429.15Y-285.1
X429.6Y-266.1
X429.6Y-324.15
X429.6Y-343.2
X429.8Y-304.9
X434.9Y-234.025
X434.9Y-234.875
X435.75Y-243.65
X437.1Y-360.75
X437.35Y-348.85
X437.45Y-312.05
X439.1Y-361.7
X441.094Y-326.083
X448.25Y-285.25
X448.55Y-266.05
X448.55Y-323.9
X448.7Y-343.15
X448.8Y-304.95
X452.025Y-230.6
X452.2Y-252.95
X452.875Y-230.6
X453.672Y-252.183
X455.15Y-248.225
X455.15Y-249.075
X458.65Y-244.4
X459.25Y-347.35
X460.044Y-288.181
X462.05Y-235.35
X462.3Y-245.434
X463.45Y-235.05
X463.75Y-244.25
X465.15Y-314.5
X465.15Y-342.1
X465.15Y-349.35
X466.45Y-243.35
X466.6Y-235.7
X467.35Y-266.1
X467.35Y-285.1
X467.35Y-324.05
X467.4Y-343.05
X467.55Y-359.25
X467.65Y-304.9
X467.65Y-361.95
X467.9Y-234.9
X467.95Y-233.9
X469.25Y-251.8
X469.55Y-243.6
X470.75Y-243.7
X473.4Y-243.7
X475.2Y-243.65
X477.15Y-243.6
X477.6Y-247.55
X479.6Y-245.1
X480.65Y-249.75
X481.0Y-243.7
X482.5Y-274.05
X482.85Y-247.4
X483.3Y-243.7
X483.65Y-287.1
X483.75Y-289.1
X483.76Y-234.75
X483.78Y-235.75
X484.45Y-244.25
X484.45Y-266.75
X484.45Y-292.0
X485.95Y-284.95
X486.2Y-266.0
X486.45Y-352.45
X486.75Y-282.1
X486.75Y-314.35
X487.3Y-291.0
X490.631Y-247.019
X491.45Y-249.0
X491.65Y-291.05
X492.05Y-291.75
X492.4Y-247.98
X492.6Y-246.4
X492.75Y-241.007
X492.75Y-244.787
X494.1Y-242.44
X494.1Y-246.84
X495.175Y-245.19
X496.05Y-238.085
X497.05Y-250.1
X497.05Y-248.735
X498.85Y-248.91
X501.2Y-238.085
X501.2Y-249.235
X502.18Y-242.1
X503.85Y-250.98
X506.05Y-238.085
X506.05Y-249.235
X507.2Y-243.415
X507.2Y-245.855
T4
X75.1Y-241.1
X75.8Y-240.5
X76.2Y-241.9
X76.4Y-240.7
X76.8Y-241.3
X77.3Y-240.7
X79.1Y-195.2
X79.8Y-194.7
X79.8Y-196.0
X80.3Y-195.4
X80.4Y-194.1
X80.5Y-196.7
X81.0Y-194.8
X81.8Y-195.6
X95.5Y-221.3
X97.153Y-221.247
X167.1Y-233.479
X169.694Y-235.72
X201.881Y-248.901
T5
X54.9Y-312.3
X55.1Y-204.0
X55.3Y-180.2
X55.3Y-189.5
X55.3Y-199.8
X55.3Y-232.2
X55.4Y-208.9
X55.6Y-239.8
X55.7Y-324.7
X56.1Y-335.1
X56.8Y-223.7
X57.2Y-218.6
X57.3Y-261.8
X57.3Y-300.2
X58.0Y-291.3
X59.2Y-205.6
X60.2Y-274.9
X61.3Y-240.1
X61.3Y-282.4
X61.6Y-230.9
X61.8Y-180.3
X62.8Y-213.0
X63.5Y-328.0
X63.8Y-201.3
X64.0Y-204.4
X64.7Y-256.8
X65.3Y-172.6
X65.4Y-183.1
X66.7Y-248.4
X67.2Y-175.7
X67.6Y-219.2
X67.8Y-201.0
X68.0Y-234.3
X69.1Y-248.3
X69.2Y-204.6
X69.7Y-182.2
X69.8Y-176.9
X70.1Y-167.5
X70.2Y-171.2
X70.5Y-250.3
X70.9Y-239.6
X71.2Y-216.6
X71.6Y-190.7
X71.6Y-194.2
X72.1Y-255.8
X72.6Y-201.5
X73.0Y-219.9
X74.2Y-161.4
X74.2Y-204.5
X74.2Y-217.1
X74.2Y-248.2
X74.6Y-233.0
X74.8Y-180.5
X75.4Y-193.2
X75.4Y-197.0
X75.6Y-172.4
X75.6Y-269.1
X76.1Y-249.8
X76.7Y-174.5
X78.5Y-186.7
X78.5Y-255.2
X78.7Y-260.1
X78.8Y-196.9
X79.5Y-182.6
X79.6Y-155.5
X79.6Y-174.5
X79.7Y-171.5
X79.7Y-264.9
X80.4Y-233.8
X80.8Y-263.4
X81.1Y-228.3
X81.5Y-264.1
X82.2Y-264.9
X82.2Y-267.6
X82.6Y-327.7
X83.05Y-265.75
X83.2Y-149.0
X84.1Y-255.2
X84.6Y-236.2
X84.8Y-259.5
X85.0Y-231.7
X85.0Y-293.3
X85.2Y-187.0
X85.3Y-270.9
X85.4Y-263.9
X85.6Y-341.8
X85.8Y-244.6
X85.9Y-181.4
X86.0Y-178.6
X86.1Y-194.4
X86.4Y-210.0
X87.0Y-239.3
X87.1Y-187.0
X87.3Y-247.0
X88.8Y-306.7
X89.4Y-317.2
X89.8Y-192.4
X89.9Y-181.1
X90.0Y-147.3
X90.0Y-267.5
X90.3Y-275.2
X90.5Y-196.0
X90.7Y-278.9
X90.8Y-263.6
X91.0Y-206.9
X91.0Y-246.4
X91.6Y-233.6
X91.9Y-181.0
X91.9Y-218.0
X91.9Y-241.6
X91.9Y-244.6
X91.9Y-255.5
X92.0Y-236.9
X92.5Y-228.5
X93.3Y-271.1
X94.7Y-164.45
X94.8Y-165.72
X94.9Y-252.2
X95.4Y-258.6
X95.6Y-244.9
X96.075Y-165.9
X96.1Y-275.0
X96.6Y-254.5
X97.1Y-162.8
X97.1Y-249.7
X97.3Y-164.45
X97.3Y-165.72
X97.9Y-234.7
X98.8Y-253.1
X99.2Y-175.7
X99.5Y-149.7
X100.7Y-181.7
X100.9Y-243.9
X102.4Y-224.6
X102.4Y-238.3
X102.5Y-183.4
X102.5Y-191.5
X102.7Y-200.1
X103.0Y-180.1
X103.6Y-250.7
X105.0Y-171.2
X105.1Y-193.8
X105.1Y-244.1
X105.4Y-227.7
X106.2Y-239.7
X107.0Y-159.2
X107.1Y-212.9
X107.7Y-185.2
X108.7Y-230.9
X109.4Y-245.3
X110.1Y-254.6
X110.8Y-194.1
X110.9Y-232.3
X111.3Y-239.4
X111.4Y-214.6
X111.4Y-271.0
X111.8Y-250.8
X111.9Y-275.5
X112.4Y-263.6
X112.9Y-159.0
X113.0Y-152.7
X113.2Y-147.1
X113.8Y-191.5
X113.8Y-239.6
X113.8Y-276.9
X114.4Y-300.7
X114.5Y-291.9
X115.1Y-182.0
X115.8Y-175.3
X115.8Y-232.6
X116.9Y-152.3
X116.9Y-272.0
X116.9Y-316.9
X117.0Y-243.3
X117.3Y-253.9
X117.5Y-158.1
X117.7Y-205.8
X117.7Y-250.5
X118.0Y-146.0
X118.2Y-239.8
X118.6Y-198.8
X119.1Y-275.0
X119.7Y-232.1
X120.3Y-337.9
X121.1Y-181.0
X122.3Y-239.3
X122.5Y-188.7
X122.7Y-243.6
X123.5Y-184.0
X124.4Y-204.0
X125.3Y-231.6
X125.3Y-250.8
X125.7Y-254.8
X125.8Y-144.6
X126.0Y-167.9
X126.2Y-263.9
X126.6Y-239.7
X127.8Y-201.9
X128.0Y-165.5
X128.7Y-187.6
X128.8Y-215.1
X128.9Y-243.6
X129.5Y-197.5
X129.6Y-200.3
X129.8Y-185.0
X129.8Y-239.5
X130.4Y-198.5
X130.4Y-232.2
X130.45Y-196.7
X131.1Y-275.8
X131.3Y-195.8
X131.3Y-197.6
X131.4Y-199.6
X131.5Y-253.9
X131.5Y-263.9
X131.8Y-250.4
X132.3Y-196.6
X132.4Y-198.7
X132.6Y-232.2
X132.6Y-272.2
X132.7Y-165.7
X132.8Y-204.9
X133.0Y-173.3
X133.2Y-183.9
X133.4Y-197.8
X134.0Y-157.3
X134.1Y-191.9
X135.4Y-195.9
X135.5Y-170.5
X135.9Y-192.6
X136.1Y-239.8
X137.4Y-189.6
X137.6Y-154.2
X138.0Y-263.3
X138.1Y-209.6
X139.0Y-232.1
X139.5Y-243.9
X140.1Y-356.6
X140.4Y-201.3
X140.5Y-315.9
X140.6Y-197.1
X141.3Y-254.3
X141.4Y-239.7
X141.5Y-251.0
X141.8Y-189.6
X141.9Y-211.8
X142.4Y-193.3
X142.4Y-200.6
X143.4Y-337.4
X144.1Y-244.4
X144.5Y-211.6
X144.8Y-263.8
X144.9Y-144.6
X145.0Y-214.0
X145.1Y-232.6
X147.5Y-239.6
X147.6Y-219.9
X148.4Y-193.4
X148.8Y-253.7
X148.9Y-189.4
X149.1Y-250.3
X149.3Y-244.6
X150.4Y-197.0
X150.6Y-271.8
X151.3Y-232.9
X151.7Y-276.2
X152.1Y-152.5
X152.2Y-218.6
X153.0Y-263.5
X153.4Y-269.9
X153.7Y-187.9
X154.4Y-192.3
X154.5Y-199.7
X155.5Y-240.0
X155.6Y-244.8
X155.8Y-190.2
X156.4Y-232.7
X157.2Y-186.0
X157.4Y-172.5
X157.6Y-254.2
X158.1Y-272.5
X159.7Y-219.9
X159.8Y-185.8
X159.9Y-275.3
X160.1Y-240.0
X160.7Y-251.1
X161.2Y-348.3
X161.9Y-195.9
X162.4Y-243.8
X162.5Y-253.8
X162.6Y-201.1
X162.9Y-339.0
X163.9Y-153.9
X163.9Y-177.1
X164.6Y-212.8
X164.6Y-232.8
X164.7Y-190.3
X165.0Y-185.9
X165.6Y-209.5
X165.9Y-144.7
X166.0Y-266.3
X166.2Y-241.4
X166.8Y-244.1
X167.0Y-250.7
X167.4Y-164.0
X167.8Y-231.8
X167.8Y-254.2
X168.5Y-190.7
X169.2Y-243.3
X170.4Y-271.8
X170.5Y-185.9
X171.2Y-277.9
X172.05Y-271.1
X172.05Y-272.1
X172.05Y-273.1
X172.1Y-228.5
X173.3Y-208.2
X173.325Y-171.5
X174.1Y-236.6
X174.2Y-371.2
X174.3Y-185.8
X174.3Y-264.5
X174.4Y-189.7
X174.9Y-250.5
X174.9Y-254.2
X175.0Y-224.3
X175.5Y-357.7
X175.9Y-199.9
X176.2Y-258.4
X176.3Y-275.3
X177.7Y-239.5
X177.9Y-181.0
X179.3Y-356.2
X179.4Y-253.6
X179.6Y-236.4
X179.9Y-212.6
X179.9Y-336.3
X180.3Y-221.2
X180.6Y-261.0
X181.0Y-185.0
X181.1Y-266.9
X182.0Y-218.2
X182.2Y-144.8
X183.0Y-240.3
X183.3Y-161.9
X184.3Y-186.0
X184.9Y-345.4
X185.0Y-236.1
X185.1Y-194.0
X185.4Y-259.3
X186.8Y-254.0
X186.9Y-363.6
X187.8Y-249.6
X187.9Y-214.0
X188.1Y-185.5
X188.7Y-232.6
X190.4Y-241.5
X190.8Y-236.4
X191.0Y-275.0
X192.1Y-212.6
X192.1Y-270.3
X192.2Y-251.3
X193.0Y-194.3
X193.6Y-232.2
X194.1Y-217.8
X194.3Y-237.1
X195.0Y-252.3
X195.4Y-258.8
X195.8Y-278.3
X196.3Y-266.9
X196.6Y-217.7
X196.8Y-244.4
X197.1Y-227.4
X197.4Y-223.2
X197.7Y-214.0
X197.8Y-247.1
X197.9Y-260.6
X198.1Y-219.2
X198.3Y-251.9
X198.5Y-225.4
X198.7Y-365.6
X200.4Y-257.2
X200.7Y-232.3
X200.9Y-227.1
X200.9Y-239.1
X200.9Y-261.6
X201.1Y-246.1
X201.8Y-346.7
X202.3Y-267.5
X202.5Y-206.5
X203.8Y-209.8
X203.8Y-217.6
X204.0Y-225.3
X204.3Y-237.9
X204.4Y-229.1
X204.8Y-243.6
X206.1Y-391.4
X206.9Y-382.0
X207.1Y-144.9
X207.9Y-330.6
X208.5Y-219.6
X208.5Y-227.0
X208.5Y-235.8
X208.5Y-242.1
X208.6Y-222.3
X208.7Y-229.2
X209.0Y-214.4
X209.0Y-373.4
X209.6Y-194.5
X210.4Y-199.4
X211.4Y-351.6
X212.7Y-236.5
X212.9Y-337.3
X213.0Y-225.9
X213.0Y-242.5
X213.2Y-222.4
X213.3Y-207.9
X213.4Y-213.1
X213.5Y-218.0
X213.9Y-201.6
X214.7Y-284.2
X216.1Y-194.3
X216.2Y-227.2
X216.3Y-268.3
X217.1Y-271.6
X217.7Y-244.0
X218.2Y-341.6
X218.3Y-218.7
X218.3Y-235.9
X218.4Y-201.4
X218.4Y-215.1
X218.4Y-223.3
X218.5Y-240.0
X218.6Y-210.2
X218.9Y-228.2
X219.7Y-383.8
X220.5Y-194.6
X220.6Y-389.7
X220.7Y-320.7
X220.9Y-273.5
X221.8Y-351.2
X222.7Y-212.4
X222.7Y-240.9
X222.7Y-245.0
X222.8Y-218.8
X222.9Y-224.3
X222.9Y-235.6
X223.0Y-313.2
X223.1Y-208.0
X223.1Y-229.4
X223.2Y-186.6
X223.4Y-201.2
X225.3Y-357.1
X225.9Y-380.6
X226.6Y-153.7
X226.6Y-217.6
X226.6Y-223.0
X226.7Y-207.5
X226.9Y-363.5
X227.0Y-212.4
X227.0Y-236.4
X227.0Y-243.6
X227.1Y-338.6
X227.2Y-227.9
X227.6Y-315.0
X227.9Y-264.0
X228.3Y-372.6
X228.4Y-201.6
X228.7Y-168.1
X229.1Y-291.8
X229.1Y-293.9
X229.6Y-186.8
X229.8Y-289.0
X229.9Y-299.4
X230.0Y-194.1
X230.1Y-291.8
X230.6Y-267.5
X231.1Y-326.7
X231.4Y-291.8
X231.9Y-390.6
X232.4Y-216.6
X232.4Y-222.9
X232.6Y-229.0
X232.7Y-209.5
X232.7Y-243.1
X232.9Y-202.8
X234.2Y-201.9
X234.9Y-235.3
X234.9Y-383.2
X235.3Y-230.7
X235.7Y-194.3
X235.7Y-227.8
X236.0Y-213.2
X236.0Y-222.1
X236.1Y-207.2
X236.1Y-241.7
X236.7Y-186.7
X236.7Y-291.9
X237.9Y-230.7
X238.5Y-268.1
X238.6Y-336.0
X238.7Y-292.05
X238.8Y-388.9
X239.1Y-274.3
X239.5Y-360.3
X239.8Y-186.7
X239.8Y-194.2
X240.1Y-292.05
X240.2Y-224.6
X240.3Y-161.0
X240.3Y-230.7
X240.5Y-236.3
X241.7Y-296.7
X242.0Y-242.9
X242.3Y-177.2
X242.8Y-328.1
X243.3Y-144.9
X243.3Y-201.4
X243.8Y-230.7
X244.4Y-370.1
X244.6Y-235.9
X244.8Y-268.0
X244.8Y-381.5
X244.9Y-361.5
X245.1Y-186.9
X245.4Y-205.5
X246.0Y-337.2
X246.3Y-315.3
X246.5Y-353.3
X247.3Y-320.7
X248.0Y-230.6
X248.1Y-344.0
X248.4Y-281.0
X248.5Y-268.3
X248.7Y-391.3
X248.8Y-274.1
X249.2Y-243.4
X249.2Y-302.6
X249.5Y-313.0
X249.8Y-186.9
X249.9Y-194.0
X249.9Y-240.7
X250.2Y-235.9
X250.4Y-347.7
X250.5Y-225.3
X250.6Y-384.8
X251.0Y-201.6
X251.8Y-156.4
X252.1Y-230.6
X252.5Y-371.9
X252.8Y-172.9
X253.1Y-337.4
X253.2Y-353.1
X254.1Y-363.5
X255.2Y-269.5
X255.4Y-207.5
X255.8Y-236.2
X256.5Y-358.0
X256.6Y-186.4
X257.0Y-230.6
X257.1Y-243.9
X257.2Y-194.1
X259.5Y-226.0
X259.8Y-394.6
X260.2Y-201.9
X260.7Y-267.0
X261.4Y-210.7
X262.0Y-362.3
X262.1Y-236.5
X262.5Y-230.5
X262.5Y-383.6
X262.7Y-352.7
X263.1Y-207.2
X263.2Y-371.9
X264.9Y-240.7
X265.0Y-225.4
X266.3Y-314.6
X266.3Y-353.5
X266.6Y-207.2
X267.1Y-381.9
X268.4Y-230.6
X268.8Y-324.3
X268.8Y-343.8
X268.9Y-244.5
X269.0Y-332.5
X270.5Y-352.3
X270.7Y-211.0
X270.8Y-207.1
X270.8Y-236.2
X270.8Y-293.0
X271.5Y-222.5
X272.7Y-195.6
X273.7Y-236.5
X273.8Y-230.2
X274.4Y-266.7
X274.9Y-207.1
X274.9Y-345.2
X275.5Y-259.4
X275.6Y-392.3
X275.8Y-250.5
X277.3Y-145.2
X277.9Y-256.0
X278.1Y-247.3
X279.1Y-190.4
X279.1Y-199.1
X279.8Y-207.1
X279.8Y-230.3
X279.9Y-236.0
X280.2Y-243.6
X281.2Y-251.8
X281.5Y-199.1
X281.7Y-238.1
X282.8Y-218.2
X283.0Y-226.3
X283.3Y-189.9
X283.3Y-258.7
X283.8Y-233.4
X284.0Y-241.3
X284.3Y-308.3
X284.6Y-211.4
X285.0Y-199.1
X285.3Y-207.0
X285.3Y-334.4
X285.9Y-246.7
X285.9Y-255.6
X286.8Y-243.0
X288.1Y-237.6
X288.6Y-326.0
X289.2Y-199.0
X289.2Y-251.2
X289.7Y-265.7
X289.9Y-335.2
X290.0Y-232.4
X290.1Y-318.3
X290.7Y-239.5
X291.2Y-207.1
X291.3Y-284.7
X291.5Y-190.0
X291.8Y-258.3
X292.1Y-212.7
X292.4Y-248.3
X292.7Y-242.1
X293.2Y-187.0
X293.3Y-199.0
X293.3Y-235.0
X293.4Y-255.1
X293.7Y-370.3
X293.9Y-229.5
X294.6Y-189.7
X295.1Y-242.1
X296.0Y-251.6
X296.1Y-186.7
X296.4Y-161.7
X296.6Y-206.7
X298.2Y-199.0
X298.4Y-238.7
X298.6Y-242.1
X298.7Y-178.9
X299.1Y-379.4
X299.3Y-189.4
X299.8Y-248.1
X301.8Y-186.8
X302.6Y-206.8
X302.8Y-210.0
X302.8Y-242.0
X302.8Y-369.5
X303.4Y-235.3
X303.7Y-198.9
X304.4Y-327.9
X304.6Y-301.5
X306.5Y-248.1
X306.7Y-365.2
X306.9Y-242.0
X307.3Y-207.4
X307.9Y-190.0
X308.1Y-238.3
X308.6Y-185.8
X308.7Y-382.2
X308.8Y-151.8
X308.9Y-325.9
X309.4Y-312.7
X309.6Y-199.0
X309.7Y-207.4
X310.3Y-259.0
X310.5Y-248.1
X311.0Y-165.1
X311.1Y-320.2
X311.2Y-358.5
X311.8Y-242.0
X312.9Y-280.8
X313.2Y-207.4
X313.3Y-214.4
X313.9Y-186.5
X315.0Y-198.6
X316.9Y-190.2
X317.3Y-241.9
X317.4Y-207.3
X317.4Y-237.6
X318.5Y-145.5
X319.1Y-247.6
X319.6Y-243.7
X320.0Y-175.8
X320.4Y-189.4
X321.0Y-198.7
X321.5Y-207.3
X321.8Y-362.8
X322.2Y-186.9
X323.1Y-163.5
X323.3Y-247.7
X324.7Y-297.5
X325.1Y-198.4
X325.5Y-189.6
X325.6Y-211.1
X326.4Y-207.3
X326.5Y-244.1
X326.5Y-310.9
X327.5Y-198.4
X328.0Y-186.9
X329.3Y-247.6
X329.3Y-356.8
X330.0Y-322.8
X330.5Y-244.0
X331.0Y-198.4
X331.4Y-278.4
X331.5Y-213.4
X331.8Y-318.0
X331.9Y-207.2
X332.0Y-257.5
X332.6Y-240.5
X332.9Y-244.0
X333.5Y-247.5
X335.2Y-198.3
X335.5Y-372.9
X336.0Y-189.8
X336.4Y-244.0
X337.8Y-207.3
X338.6Y-247.7
X339.3Y-198.3
X339.8Y-362.1
X340.6Y-243.9
X341.8Y-236.8
X343.2Y-206.9
X344.2Y-198.3
X344.3Y-189.6
X344.4Y-212.9
X344.5Y-247.4
X344.5Y-322.3
X344.7Y-243.9
X344.9Y-310.5
X345.3Y-300.1
X345.7Y-295.1
X348.1Y-247.3
X348.7Y-147.8
X348.7Y-357.1
X349.2Y-207.0
X349.6Y-243.9
X349.7Y-198.2
X350.1Y-240.6
X350.1Y-315.0
X351.7Y-317.9
X352.2Y-280.6
X352.4Y-257.7
X352.6Y-216.8
X352.8Y-311.4
X353.6Y-207.6
X353.8Y-247.5
X355.1Y-243.8
X355.3Y-190.6
X355.3Y-362.5
X355.6Y-198.3
X356.0Y-207.6
X357.1Y-211.4
X359.5Y-207.6
X360.0Y-357.3
X361.0Y-197.9
X361.0Y-243.9
X361.1Y-370.8
X361.2Y-247.5
X362.1Y-186.6
X363.7Y-207.5
X363.8Y-361.0
X364.2Y-235.3
X364.3Y-190.8
X364.7Y-311.0
X365.0Y-297.1
X365.1Y-213.7
X365.1Y-294.9
X365.9Y-179.0
X366.4Y-243.5
X366.6Y-238.4
X367.0Y-198.0
X367.1Y-166.5
X367.2Y-370.1
X367.7Y-186.9
X367.8Y-207.5
X368.3Y-153.6
X368.5Y-247.7
X370.3Y-357.0
X370.9Y-257.3
X371.0Y-198.8
X372.3Y-286.3
X372.4Y-243.6
X372.7Y-189.5
X372.7Y-207.5
X373.3Y-315.2
X373.4Y-198.8
X373.5Y-217.2
X374.7Y-317.8
X374.8Y-187.5
X375.1Y-311.6
X375.1Y-369.6
X375.3Y-247.3
X376.0Y-294.0
X376.0Y-321.6
X376.9Y-198.8
X377.2Y-280.8
X377.3Y-190.5
X377.5Y-178.2
X378.2Y-207.4
X378.7Y-162.7
X379.0Y-245.4
X380.1Y-238.1
X380.1Y-247.7
X380.4Y-256.1
X381.0Y-187.6
X381.1Y-198.7
X381.6Y-234.8
X381.7Y-152.5
X383.2Y-370.0
X384.1Y-207.5
X384.6Y-304.6
X385.2Y-198.7
X385.3Y-189.9
X385.4Y-256.5
X386.2Y-241.9
X386.3Y-311.5
X387.4Y-295.0
X387.7Y-243.9
X387.8Y-186.9
X389.0Y-236.8
X389.5Y-207.1
X390.0Y-247.9
X390.1Y-198.7
X390.3Y-256.5
X390.6Y-168.2
X391.6Y-245.2
X391.7Y-241.4
X392.3Y-178.5
X392.5Y-228.3
X392.7Y-190.3
X393.1Y-256.5
X393.2Y-154.5
X393.7Y-312.1
X393.8Y-238.0
X393.9Y-217.5
X394.7Y-187.3
X395.1Y-212.4
X395.5Y-207.2
X395.6Y-198.6
X396.3Y-241.7
X397.5Y-233.8
X397.6Y-191.6
X397.7Y-210.4
X397.7Y-227.9
X398.1Y-219.8
X398.4Y-370.0
X398.6Y-280.4
X398.7Y-237.9
X398.8Y-187.4
X399.1Y-246.7
X399.8Y-206.6
X400.4Y-253.6
X400.5Y-321.4
X400.7Y-314.7
X400.8Y-243.3
X401.5Y-198.7
X401.7Y-328.3
X401.8Y-240.5
X402.5Y-274.7
X402.6Y-235.2
X403.6Y-286.6
X404.2Y-253.8
X404.4Y-291.2
X404.7Y-231.1
X405.0Y-216.0
X405.0Y-278.3
X405.8Y-211.1
X406.5Y-328.5
X406.6Y-311.8
X406.8Y-321.3
X406.9Y-198.3
X407.8Y-190.7
X408.2Y-219.8
X409.0Y-230.1
X409.3Y-281.5
X409.8Y-264.4
X409.9Y-268.7
X410.0Y-259.4
X410.0Y-305.9
X410.0Y-318.3
X410.2Y-276.4
X412.6Y-153.1
X412.9Y-198.4
X412.9Y-228.7
X413.1Y-327.7
X413.6Y-187.0
X413.7Y-207.7
X413.9Y-224.4
X414.2Y-190.9
X414.8Y-148.7
X415.1Y-254.8
X415.6Y-159.4
X415.6Y-183.5
X415.8Y-170.3
X416.3Y-198.9
X416.5Y-219.4
X417.1Y-228.3
X417.2Y-327.8
X417.6Y-251.4
X417.6Y-355.8
X417.9Y-259.3
X418.0Y-144.7
X418.1Y-234.7
X418.3Y-147.4
X418.4Y-154.1
X418.4Y-159.5
X418.4Y-254.2
X418.7Y-198.9
X418.9Y-166.5
X418.9Y-185.8
X419.1Y-202.4
X419.2Y-307.4
X419.3Y-362.2
X419.45Y-286.95
X419.5Y-178.6
X419.6Y-268.4
X419.9Y-172.1
X420.5Y-285.8
X420.5Y-286.8
X420.7Y-191.2
X421.4Y-345.8
X421.4Y-355.6
X422.0Y-327.1
X422.2Y-198.9
X422.3Y-311.1
X422.7Y-337.3
X423.0Y-203.2
X423.3Y-268.3
X423.6Y-254.6
X423.9Y-241.7
X424.1Y-257.2
X424.6Y-279.1
X424.7Y-251.5
X424.7Y-292.9
X425.2Y-370.6
X425.7Y-309.2
X426.4Y-198.8
X427.3Y-230.9
X428.5Y-251.1
X428.5Y-254.6
X428.9Y-276.5
X429.6Y-203.1
X429.8Y-233.1
X430.0Y-315.6
X430.5Y-198.8
X430.9Y-250.0
X431.2Y-328.3
X431.3Y-361.9
X433.3Y-228.5
X434.1Y-251.1
X434.1Y-309.2
X434.5Y-299.7
X434.6Y-245.3
X434.7Y-254.0
X434.8Y-202.3
X434.8Y-334.3
X435.3Y-355.5
X435.4Y-198.8
X436.9Y-228.9
X437.2Y-248.8
X438.5Y-239.8
X440.0Y-250.9
X440.1Y-244.4
X440.4Y-254.2
X440.4Y-367.9
X440.9Y-198.7
X441.2Y-237.1
X441.2Y-262.0
X441.7Y-229.2
X442.0Y-202.7
X442.5Y-310.2
X443.1Y-322.4
X443.8Y-248.5
X444.1Y-244.4
X444.8Y-227.4
X444.8Y-239.5
X445.2Y-345.8
X446.3Y-254.5
X446.4Y-245.0
X446.8Y-198.8
X447.0Y-296.9
X447.3Y-229.7
X447.4Y-318.3
X447.5Y-335.5
X447.7Y-236.9
X448.1Y-251.1
X448.6Y-274.7
X448.9Y-256.5
X448.9Y-277.2
X449.1Y-208.6
X449.1Y-290.1
X449.5Y-239.0
X449.5Y-244.2
X449.6Y-227.3
X449.7Y-204.6
X449.7Y-329.0
X449.8Y-213.8
X449.8Y-353.6
X449.9Y-219.2
X450.1Y-224.3
X450.9Y-310.0
X451.2Y-249.0
X451.3Y-254.5
X452.2Y-198.4
X453.8Y-318.2
X454.0Y-368.8
X454.2Y-281.0
X454.5Y-250.7
X454.7Y-205.9
X454.8Y-200.0
X454.8Y-211.4
X454.8Y-216.3
X454.8Y-220.4
X454.9Y-224.6
X454.9Y-228.1
X454.9Y-230.5
X454.9Y-244.1
X455.4Y-240.2
X456.1Y-253.9
X456.5Y-236.4
X457.2Y-244.7
X458.7Y-252.6
X459.3Y-230.1
X460.4Y-356.5
X460.7Y-240.1
X460.8Y-245.7
X461.3Y-291.0
X461.7Y-230.1
X461.9Y-251.8
X462.2Y-330.0
X464.6Y-251.6
X465.2Y-230.1
X465.9Y-275.4
X466.1Y-346.8
X466.2Y-253.5
X466.9Y-352.7
X467.3Y-317.4
X467.8Y-241.6
X468.7Y-295.2
X469.1Y-311.1
X469.4Y-230.0
X470.9Y-253.8
X472.1Y-240.8
X472.7Y-280.2
X472.9Y-368.4
X473.5Y-230.0
X475.0Y-232.9
X476.4Y-253.4
X478.4Y-230.0
X480.3Y-253.6
X480.4Y-239.6
X480.7Y-311.8
X480.8Y-323.1
X483.5Y-309.1
X483.8Y-321.1
X483.9Y-229.9
X485.2Y-333.0
X485.3Y-250.4
X485.4Y-343.7
X485.8Y-256.6
X486.7Y-253.5
X486.7Y-307.6
X486.8Y-234.7
X487.1Y-301.9
X487.3Y-247.2
X488.3Y-272.9
X488.7Y-296.1
X489.2Y-356.1
X489.4Y-320.5
X489.7Y-240.0
X489.8Y-230.0
X490.6Y-364.6
X490.7Y-244.1
X490.8Y-236.3
X491.3Y-251.5
X491.6Y-280.6
X492.2Y-261.7
X493.0Y-253.4
X494.7Y-338.0
X495.2Y-229.6
X496.1Y-235.7
X496.1Y-241.5
X497.5Y-273.1
X499.5Y-236.1
X499.7Y-245.8
X499.9Y-284.7
X501.2Y-229.7
X501.2Y-297.4
X502.6Y-321.4
X504.1Y-339.2
X504.9Y-289.3
X505.2Y-276.7
X505.3Y-254.8
X505.9Y-266.8
X506.1Y-235.8
T6
X95.25Y-186.995
X95.25Y-193.545
X95.25Y-195.395
X95.25Y-201.945
X111.2Y-196.891
X111.2Y-203.44
X226.7Y-353.25
X227.7Y-353.25
X239.25Y-356.03
X239.25Y-357.03
T7
X58.675Y-187.9
X58.675Y-189.0
X58.675Y-190.1
X58.675Y-191.2
X58.675Y-192.7
X58.675Y-193.8
X58.675Y-195.3
X58.675Y-196.4
X58.675Y-197.5
X58.675Y-198.6
X59.475Y-191.95
X59.475Y-194.55
X60.0Y-188.3
X60.0Y-189.4
X60.0Y-190.5
X60.0Y-196.0
X60.0Y-197.1
X60.0Y-198.2
X60.525Y-191.575
X60.525Y-194.925
X61.325Y-187.525
X61.325Y-188.625
X61.325Y-189.725
X61.325Y-190.825
X61.325Y-192.325
X61.325Y-194.175
X61.325Y-195.675
X61.325Y-196.775
X61.325Y-197.875
X61.325Y-198.975
T8
X59.662Y-216.601
X59.662Y-218.101
X59.662Y-219.601
X59.662Y-221.101
X59.662Y-222.601
X59.662Y-224.101
X61.162Y-217.351
X61.162Y-218.851
X61.162Y-220.351
X61.162Y-221.851
X61.162Y-223.351
X61.162Y-224.851
X62.662Y-216.601
X62.662Y-218.101
X62.662Y-219.601
X62.662Y-221.101
X62.662Y-222.601
X62.662Y-224.101
X62.662Y-225.601
T10
X58.9Y-249.1
X58.9Y-251.1
X58.9Y-253.1
X58.9Y-255.1
X61.52Y-249.1
X61.52Y-251.1
X61.52Y-253.1
X61.52Y-255.1
T11
X66.207Y-331.168
X68.582Y-312.118
X68.758Y-353.38
X71.207Y-333.268
X72.392Y-293.068
X73.582Y-314.218
X73.758Y-355.48
X77.167Y-274.018
X77.392Y-295.168
X82.167Y-276.118
X94.541Y-353.543
X99.541Y-355.643
X101.911Y-334.493
X103.253Y-258.328
X103.354Y-277.343
X103.354Y-296.393
X103.832Y-315.443
X106.911Y-336.593
X108.253Y-260.428
X108.354Y-279.443
X108.354Y-298.493
X108.832Y-317.543
X120.733Y-353.543
X122.336Y-258.262
X122.404Y-277.343
X125.733Y-355.643
X127.167Y-296.393
X127.336Y-260.362
X127.404Y-279.443
X130.024Y-315.442
X132.167Y-298.493
X132.882Y-334.493
X135.024Y-317.542
X137.882Y-336.593
X141.454Y-276.835
X141.651Y-257.468
X146.454Y-278.935
X146.651Y-259.568
X147.576Y-296.148
X150.191Y-315.709
X152.538Y-298.335
X154.675Y-336.04
X155.074Y-318.068
X159.234Y-338.976
X162.215Y-277.577
X163.122Y-360.727
X163.685Y-258.373
X166.938Y-364.58
X167.013Y-280.105
X168.483Y-260.901
X168.709Y-298.083
X171.561Y-318.757
X173.368Y-300.858
X174.912Y-340.62
X176.015Y-321.851
X179.198Y-343.943
X183.645Y-281.113
X185.069Y-261.611
X188.044Y-284.284
X189.253Y-303.166
X189.469Y-264.782
X191.722Y-372.574
X191.871Y-324.356
X193.481Y-306.563
X195.328Y-347.601
X195.538Y-376.428
X195.915Y-327.969
X199.143Y-351.454
X203.457Y-287.092
X206.785Y-267.49
X207.564Y-290.635
X209.308Y-309.958
X210.892Y-271.033
X211.452Y-332.47
X213.123Y-313.811
X214.396Y-356.277
X215.025Y-336.55
X217.898Y-360.418
X223.015Y-294.379
X226.831Y-298.233
X227.067Y-273.684
X230.882Y-277.537
X255.376Y-318.456
X258.2Y-273.06
X259.229Y-294.584
X260.244Y-338.086
X260.777Y-317.962
X263.622Y-272.945
X264.651Y-294.469
X265.624Y-337.405
X268.476Y-355.767
X273.856Y-355.085
X274.373Y-309.232
X278.767Y-328.998
X278.835Y-265.195
X279.265Y-286.535
X279.796Y-309.306
X284.19Y-328.978
X284.239Y-265.647
X284.669Y-286.987
X285.937Y-372.84
X287.861Y-346.371
X291.36Y-372.866
X293.284Y-346.398
X294.277Y-302.176
X298.423Y-321.386
X299.569Y-260.105
X299.654Y-302.883
X299.755Y-280.99
X303.819Y-321.932
X304.878Y-261.212
X305.064Y-282.097
X308.082Y-339.22
X310.137Y-362.815
X313.448Y-340.002
X315.149Y-298.137
X315.56Y-362.842
X319.862Y-316.967
X320.404Y-299.475
X320.461Y-277.68
X320.736Y-257.422
X325.094Y-318.397
X325.625Y-279.336
X325.9Y-259.079
X329.448Y-335.611
X334.612Y-337.267
X336.228Y-296.42
X340.727Y-315.612
X341.282Y-298.388
X341.352Y-277.089
X341.407Y-257.984
X345.78Y-317.58
X346.352Y-279.189
X346.407Y-260.084
X349.996Y-334.802
X355.049Y-336.77
X355.767Y-296.266
X360.529Y-277.089
X360.529Y-315.443
X360.535Y-258.129
X360.767Y-298.366
X365.529Y-279.189
X365.529Y-317.543
X365.535Y-260.229
X374.817Y-296.393
X379.54Y-258.177
X379.579Y-353.543
X379.817Y-298.493
X381.962Y-334.5
X384.54Y-260.277
X384.579Y-355.643
X386.962Y-336.6
X389.09Y-277.343
X391.472Y-315.443
X394.09Y-279.443
X396.472Y-317.543
X398.361Y-258.246
X398.629Y-296.393
X403.361Y-260.346
X403.629Y-298.493
X408.154Y-353.543
X412.917Y-334.493
X413.154Y-355.643
X417.917Y-336.593
X437.817Y-295.274
X437.819Y-276.298
X437.819Y-314.233
X437.819Y-333.249
X437.852Y-257.215
X442.817Y-297.374
X442.819Y-278.398
X442.819Y-316.333
X442.819Y-335.349
X442.852Y-259.315
X447.36Y-352.438
X452.36Y-354.538
X456.769Y-276.331
X456.769Y-295.249
X456.771Y-333.263
X456.801Y-314.246
X456.902Y-257.248
X461.769Y-278.431
X461.769Y-297.349
X461.771Y-335.363
X461.801Y-316.346
X461.902Y-259.348
X475.67Y-257.324
X475.74Y-333.213
X475.775Y-314.241
X475.786Y-276.298
X475.786Y-295.282
X475.85Y-352.2
X480.67Y-259.424
X480.74Y-335.313
X480.775Y-316.341
X480.786Y-278.398
X480.786Y-297.382
X480.85Y-354.3
X494.729Y-257.294
X494.737Y-276.298
X494.743Y-342.65
X494.8Y-304.85
X499.729Y-259.394
X499.737Y-278.398
X499.743Y-344.75
X499.8Y-306.95
T12
X140.767Y-160.85
X140.767Y-181.15
X148.387Y-158.31
X148.387Y-163.39
X148.387Y-178.61
X148.387Y-183.69
X194.373Y-178.61
X194.373Y-183.69
X194.447Y-158.31
X194.447Y-163.39
X201.992Y-181.15
X202.067Y-160.85
X210.401Y-160.85
X210.401Y-181.15
X218.021Y-158.31
X218.021Y-163.39
X218.021Y-178.61
X218.021Y-183.69
X263.981Y-158.31
X263.981Y-163.39
X264.081Y-178.61
X264.081Y-183.69
X271.601Y-160.85
X271.701Y-181.15
X280.109Y-160.85
X280.109Y-181.15
X287.729Y-158.31
X287.729Y-163.39
X287.729Y-178.61
X287.729Y-183.69
X333.714Y-178.61
X333.714Y-183.69
X333.814Y-158.31
X333.814Y-163.39
X341.334Y-181.15
X341.434Y-160.85
X349.743Y-160.85
X349.743Y-181.15
X357.363Y-158.31
X357.363Y-163.39
X357.363Y-178.61
X357.363Y-183.69
X403.322Y-178.61
X403.322Y-183.69
X403.447Y-158.31
X403.447Y-163.39
X410.942Y-181.15
X411.067Y-160.85
T13
X203.8Y-195.15
X267.45Y-195.1
X417.1Y-211.475
X472.9Y-204.3
T14
X57.162Y-214.251
X57.162Y-227.451
T9
G00X61.075Y-184.35
M15
G01X58.925Y-184.35
M16
G05
G00X61.075Y-202.15
M15
G01X58.925Y-202.15
M16
G05
M30
