M48
; DRILL file {KiCad 9.0.0-9.0.0-2~ubuntu22.04.1} date 2025-03-10T11:03:09-0700
; FORMAT={-:-/ absolute / metric / decimal}
; #@! TF.CreationDate,2025-03-10T11:03:09-07:00
; #@! TF.GenerationSoftware,Kicad,Pcbnew,9.0.0-9.0.0-2~ubuntu22.04.1
; #@! TF.FileFunction,NonPlated,1,4,NPTH
FMAT,2
METRIC
; #@! TA.AperFunction,NonPlated,NPTH,ComponentDrill
T1C1.050
; #@! TA.AperFunction,NonPlated,NPTH,ComponentDrill
T2C1.100
; #@! TA.AperFunction,NonPlated,NPTH,ComponentDrill
T3C1.150
; #@! TA.AperFunction,NonPlated,NPTH,ComponentDrill
T4C1.300
; #@! TA.AperFunction,NonPlated,NPTH,ComponentDrill
T5C1.600
; #@! TA.AperFunction,NonPlated,NPTH,ComponentDrill
T6C1.650
; #@! TA.AperFunction,NonPlated,NPTH,ComponentDrill
T7C1.702
; #@! TA.AperFunction,NonPlated,NPTH,ComponentDrill
T8C2.362
; #@! TA.AperFunction,NonPlated,NPTH,ComponentDrill
T9C3.000
; #@! TA.AperFunction,NonPlated,NPTH,ComponentDrill
T10C3.429
%
G90
G05
T1
X184.9Y-203.45
T2
X270.025Y-252.1
X484.1Y-239.75
T3
X427.1Y-239.75
T4
X192.35Y-203.45
T5
X201.225Y-252.1
X464.1Y-239.75
T6
X407.1Y-239.75
T7
X60.707Y-337.068
X63.082Y-318.018
X63.258Y-359.28
X66.892Y-298.968
X71.667Y-279.918
X71.707Y-337.068
X74.082Y-318.018
X74.258Y-359.28
X77.892Y-298.968
X82.667Y-279.918
X89.041Y-359.443
X96.411Y-340.393
X97.753Y-264.228
X97.854Y-283.243
X97.854Y-302.293
X98.332Y-321.343
X100.041Y-359.443
X107.411Y-340.393
X108.753Y-264.228
X108.854Y-283.243
X108.854Y-302.293
X109.332Y-321.343
X115.233Y-359.443
X116.836Y-264.162
X116.904Y-283.243
X121.667Y-302.293
X124.524Y-321.342
X126.233Y-359.443
X127.382Y-340.393
X127.836Y-264.162
X127.904Y-283.243
X132.667Y-302.293
X135.524Y-321.342
X135.954Y-282.735
X136.151Y-263.368
X138.382Y-340.393
X141.974Y-301.951
X144.39Y-321.313
X146.954Y-282.735
X147.151Y-263.368
X148.234Y-340.895
X152.972Y-302.143
X155.374Y-321.889
X155.783Y-364.073
X156.222Y-282.975
X157.692Y-263.771
X159.066Y-342.805
X162.442Y-303.16
X164.954Y-323.385
X165.945Y-368.283
X167.18Y-283.934
X168.072Y-344.896
X168.65Y-264.73
X173.335Y-304.691
X175.714Y-325.672
X176.959Y-285.624
X178.383Y-266.122
X178.698Y-347.743
X182.34Y-307.322
X184.383Y-375.92
X184.75Y-328.144
X187.677Y-288.099
X187.988Y-350.947
X189.101Y-268.597
X192.914Y-310.354
X194.545Y-380.13
X195.151Y-331.725
X196.403Y-291.004
X198.151Y-355.156
X199.731Y-271.402
X201.969Y-313.304
X203.922Y-335.362
X206.817Y-359.037
X206.865Y-294.403
X210.193Y-274.801
X212.131Y-317.514
X213.809Y-340.184
X215.676Y-297.725
X216.618Y-364.031
X219.728Y-277.03
X225.839Y-301.935
X229.89Y-281.239
X253.29Y-326.247
X255.575Y-280.687
X256.605Y-302.211
X258.431Y-345.946
X263.002Y-321.083
X265.625Y-276.213
X266.654Y-297.737
X266.662Y-363.626
X267.957Y-340.446
X271.484Y-316.763
X275.427Y-272.506
X275.857Y-293.846
X276.009Y-336.578
X276.189Y-358.126
X281.683Y-312.642
X283.113Y-380.395
X285.038Y-353.927
X285.889Y-269.107
X286.135Y-332.28
X286.319Y-290.447
X290.529Y-309.319
X293.276Y-376.186
X294.889Y-328.636
X295.201Y-349.717
X295.296Y-266.946
X295.482Y-287.831
X301.139Y-306.416
X304.234Y-346.31
X305.408Y-325.42
X306.094Y-264.847
X306.28Y-285.732
X307.314Y-370.371
X310.581Y-304.786
X314.884Y-343.555
X315.18Y-323.535
X315.496Y-284.037
X315.771Y-263.779
X317.476Y-366.161
X321.46Y-303.16
X324.483Y-341.968
X326.085Y-322.099
X326.454Y-283.078
X326.729Y-262.821
X330.885Y-302.462
X335.383Y-321.654
X335.441Y-341.009
X335.852Y-282.989
X335.907Y-263.884
X341.881Y-302.174
X344.652Y-340.844
X346.379Y-321.366
X346.852Y-282.989
X346.907Y-263.884
X350.267Y-302.166
X355.029Y-282.989
X355.029Y-321.343
X355.035Y-264.029
X355.648Y-340.556
X361.267Y-302.166
X366.029Y-282.989
X366.029Y-321.343
X366.035Y-264.029
X369.317Y-302.293
X374.04Y-264.077
X374.079Y-359.443
X376.462Y-340.4
X380.317Y-302.293
X383.59Y-283.243
X385.04Y-264.077
X385.079Y-359.443
X385.972Y-321.343
X387.462Y-340.4
X392.861Y-264.146
X393.129Y-302.293
X394.59Y-283.243
X396.972Y-321.343
X402.654Y-359.443
X403.861Y-264.146
X404.129Y-302.293
X407.417Y-340.393
X413.654Y-359.443
X418.417Y-340.393
X432.317Y-301.174
X432.319Y-282.198
X432.319Y-320.133
X432.319Y-339.149
X432.352Y-263.115
X441.86Y-358.338
X443.317Y-301.174
X443.319Y-282.198
X443.319Y-320.133
X443.319Y-339.149
X443.352Y-263.115
X451.269Y-282.231
X451.269Y-301.149
X451.271Y-339.163
X451.301Y-320.146
X451.402Y-263.148
X452.86Y-358.338
X462.269Y-282.231
X462.269Y-301.149
X462.271Y-339.163
X462.301Y-320.146
X462.402Y-263.148
X470.17Y-263.224
X470.24Y-339.113
X470.275Y-320.141
X470.286Y-282.198
X470.286Y-301.182
X470.35Y-358.1
X481.17Y-263.224
X481.24Y-339.113
X481.275Y-320.141
X481.286Y-282.198
X481.286Y-301.182
X481.35Y-358.1
X489.229Y-263.194
X489.237Y-282.198
X489.243Y-348.55
X489.3Y-310.75
X500.229Y-263.194
X500.237Y-282.198
X500.243Y-348.55
X500.3Y-310.75
T8
X56.19Y-245.53
X56.19Y-258.67
T9
X61.207Y-340.818
X63.582Y-321.768
X63.758Y-363.03
X66.207Y-343.018
X67.392Y-302.718
X68.582Y-323.968
X68.758Y-365.23
X72.167Y-283.668
X72.392Y-304.918
X77.167Y-285.868
X89.541Y-363.193
X94.541Y-365.393
X96.911Y-344.143
X98.253Y-267.978
X98.354Y-286.993
X98.354Y-306.043
X98.832Y-325.093
X101.911Y-346.343
X103.253Y-270.178
X103.354Y-289.193
X103.354Y-308.243
X103.832Y-327.293
X115.733Y-363.193
X117.336Y-267.912
X117.404Y-286.993
X120.733Y-365.393
X122.167Y-306.043
X122.336Y-270.112
X122.404Y-289.193
X125.024Y-325.092
X127.167Y-308.243
X127.882Y-344.143
X130.024Y-327.292
X132.882Y-346.343
X136.454Y-286.485
X136.651Y-267.118
X141.454Y-288.685
X141.651Y-269.318
X142.408Y-305.709
X144.693Y-325.084
X147.369Y-307.996
X148.075Y-344.675
X149.571Y-327.543
X152.617Y-347.71
X154.809Y-367.729
X156.393Y-286.754
X157.863Y-267.551
X158.587Y-371.675
X161.182Y-289.382
X162.415Y-306.943
X162.652Y-270.178
X164.664Y-327.157
X167.06Y-309.817
X167.585Y-348.647
X169.097Y-330.348
X171.845Y-352.067
X176.602Y-289.391
X178.026Y-269.889
X180.979Y-292.659
X181.787Y-311.064
X182.403Y-273.157
X183.41Y-379.576
X184.002Y-331.852
X185.987Y-314.557
X187.015Y-354.603
X187.187Y-383.522
X188.013Y-335.56
X190.793Y-358.549
X195.72Y-294.725
X199.048Y-275.123
X199.796Y-298.362
X200.995Y-316.96
X202.728Y-338.952
X203.123Y-278.76
X204.773Y-320.906
X205.56Y-362.605
X206.257Y-343.121
X209.016Y-366.835
X214.703Y-301.381
X218.48Y-305.327
X218.754Y-280.686
X222.532Y-284.632
X255.492Y-329.323
X257.558Y-283.909
X258.587Y-305.433
X260.739Y-348.944
X260.939Y-328.919
X263.02Y-283.886
X264.049Y-305.41
X266.169Y-348.349
X268.97Y-366.624
X273.352Y-320.053
X274.401Y-366.029
X277.061Y-275.918
X277.492Y-297.258
X277.935Y-339.835
X278.813Y-320.219
X282.496Y-276.465
X282.927Y-297.805
X283.397Y-339.906
X285.01Y-383.668
X286.935Y-357.2
X290.472Y-383.788
X292.001Y-312.804
X292.396Y-357.319
X296.463Y-332.076
X296.502Y-270.532
X296.689Y-291.417
X297.404Y-313.606
X301.83Y-271.737
X301.888Y-332.718
X302.017Y-292.622
X305.657Y-349.815
X309.211Y-373.644
X311.049Y-350.693
X311.63Y-308.42
X314.672Y-373.763
X316.165Y-327.187
X316.321Y-287.729
X316.596Y-267.472
X316.9Y-309.857
X321.409Y-328.716
X321.494Y-289.485
X321.769Y-269.227
X325.308Y-345.66
X330.48Y-347.416
X331.483Y-306.197
X335.981Y-325.389
X336.352Y-286.739
X336.407Y-267.634
X336.539Y-308.266
X341.037Y-327.458
X341.352Y-288.939
X341.407Y-269.834
X345.25Y-344.58
X350.306Y-346.648
X350.767Y-305.916
X355.529Y-286.739
X355.529Y-325.093
X355.535Y-267.779
X355.767Y-308.116
X360.529Y-288.939
X360.529Y-327.293
X360.535Y-269.979
X369.817Y-306.043
X374.54Y-267.827
X374.579Y-363.193
X374.817Y-308.243
X376.962Y-344.15
X379.54Y-270.027
X379.579Y-365.393
X381.962Y-346.35
X384.09Y-286.993
X386.472Y-325.093
X389.09Y-289.193
X391.472Y-327.293
X393.361Y-267.896
X393.629Y-306.043
X398.361Y-270.096
X398.629Y-308.243
X403.154Y-363.193
X407.917Y-344.143
X408.154Y-365.393
X412.917Y-346.343
X432.817Y-304.924
X432.819Y-285.948
X432.819Y-323.883
X432.819Y-342.899
X432.852Y-266.865
X437.817Y-307.124
X437.819Y-288.148
X437.819Y-326.083
X437.819Y-345.099
X437.852Y-269.065
X442.36Y-362.088
X447.36Y-364.288
X451.769Y-285.981
X451.769Y-304.899
X451.771Y-342.913
X451.801Y-323.896
X451.902Y-266.898
X456.769Y-288.181
X456.769Y-307.099
X456.771Y-345.113
X456.801Y-326.096
X456.902Y-269.098
X470.67Y-266.974
X470.74Y-342.863
X470.775Y-323.891
X470.786Y-285.948
X470.786Y-304.932
X470.85Y-361.85
X475.67Y-269.174
X475.74Y-345.063
X475.775Y-326.091
X475.786Y-288.148
X475.786Y-307.132
X475.85Y-364.05
X489.729Y-266.944
X489.737Y-285.948
X489.743Y-352.3
X489.8Y-314.5
X494.729Y-269.144
X494.737Y-288.148
X494.743Y-354.5
X494.8Y-316.7
T10
X66.207Y-337.068
X68.582Y-318.018
X68.758Y-359.28
X72.392Y-298.968
X77.167Y-279.918
X94.541Y-359.443
X101.911Y-340.393
X103.253Y-264.228
X103.354Y-283.243
X103.354Y-302.293
X103.832Y-321.343
X120.733Y-359.443
X122.336Y-264.162
X122.404Y-283.243
X127.167Y-302.293
X130.024Y-321.342
X132.882Y-340.393
X141.454Y-282.735
X141.651Y-263.368
X147.473Y-302.047
X149.882Y-321.601
X153.65Y-341.85
X160.864Y-366.178
X161.701Y-283.454
X163.171Y-264.251
X167.888Y-303.925
X170.334Y-324.528
X173.385Y-346.319
X182.318Y-286.862
X183.742Y-267.359
X187.627Y-308.838
X189.464Y-378.025
X189.95Y-329.934
X193.07Y-353.052
X201.634Y-292.704
X204.962Y-273.101
X207.05Y-315.409
X208.865Y-337.773
X211.718Y-361.534
X220.757Y-299.83
X224.809Y-279.135
X258.146Y-323.665
X260.6Y-278.45
X261.629Y-299.974
X263.194Y-343.196
X271.426Y-360.876
X276.584Y-314.703
X280.658Y-270.807
X281.072Y-334.429
X281.088Y-292.146
X288.195Y-378.29
X290.119Y-351.822
X295.834Y-307.867
X300.148Y-327.028
X300.695Y-265.897
X300.881Y-286.782
X309.559Y-344.932
X312.395Y-368.266
X316.021Y-303.973
X320.632Y-322.817
X320.975Y-283.557
X321.25Y-263.3
X329.962Y-341.488
X336.383Y-302.318
X340.881Y-321.51
X341.352Y-282.989
X341.407Y-263.884
X350.15Y-340.7
X355.767Y-302.166
X360.529Y-282.989
X360.529Y-321.343
X360.535Y-264.029
X374.817Y-302.293
X379.54Y-264.077
X379.579Y-359.443
X381.962Y-340.4
X389.09Y-283.243
X391.472Y-321.343
X398.361Y-264.146
X398.629Y-302.293
X408.154Y-359.443
X412.917Y-340.393
X437.817Y-301.174
X437.819Y-282.198
X437.819Y-320.133
X437.819Y-339.149
X437.852Y-263.115
X447.36Y-358.338
X456.769Y-282.231
X456.769Y-301.149
X456.771Y-339.163
X456.801Y-320.146
X456.902Y-263.148
X475.67Y-263.224
X475.74Y-339.113
X475.775Y-320.141
X475.786Y-282.198
X475.786Y-301.182
X475.85Y-358.1
X494.729Y-263.194
X494.737Y-282.198
X494.743Y-348.55
X494.8Y-310.75
M30
