G04 #@! TF.GenerationSoftware,KiCad,Pcbnew,9.0.0-9.0.0-2~ubuntu22.04.1*
G04 #@! TF.CreationDate,2025-03-10T11:03:09-07:00*
G04 #@! TF.ProjectId,RDAT,52444154-2e6b-4696-9361-645f70636258,rev?*
G04 #@! TF.SameCoordinates,Original*
G04 #@! TF.FileFunction,Copper,L3,Inr*
G04 #@! TF.FilePolarity,Positive*
%FSLAX46Y46*%
G04 Gerber Fmt 4.6, Leading zero omitted, Abs format (unit mm)*
G04 Created by KiCad (PCBNEW 9.0.0-9.0.0-2~ubuntu22.04.1) date 2025-03-10 11:03:09*
%MOMM*%
%LPD*%
G01*
G04 APERTURE LIST*
G04 #@! TA.AperFunction,ComponentPad*
%ADD10C,2.032000*%
G04 #@! TD*
G04 #@! TA.AperFunction,ComponentPad*
%ADD11R,0.850000X0.850000*%
G04 #@! TD*
G04 #@! TA.AperFunction,ComponentPad*
%ADD12O,0.850000X0.850000*%
G04 #@! TD*
G04 #@! TA.AperFunction,ComponentPad*
%ADD13C,2.745000*%
G04 #@! TD*
G04 #@! TA.AperFunction,ComponentPad*
%ADD14C,2.600000*%
G04 #@! TD*
G04 #@! TA.AperFunction,ComponentPad*
%ADD15C,0.800000*%
G04 #@! TD*
G04 #@! TA.AperFunction,ComponentPad*
%ADD16R,0.930000X0.930000*%
G04 #@! TD*
G04 #@! TA.AperFunction,ComponentPad*
%ADD17C,0.930000*%
G04 #@! TD*
G04 #@! TA.AperFunction,ComponentPad*
%ADD18O,4.150000X2.075000*%
G04 #@! TD*
G04 #@! TA.AperFunction,ComponentPad*
%ADD19C,1.524000*%
G04 #@! TD*
G04 #@! TA.AperFunction,HeatsinkPad*
%ADD20C,0.500000*%
G04 #@! TD*
G04 #@! TA.AperFunction,ComponentPad*
%ADD21C,0.499999*%
G04 #@! TD*
G04 #@! TA.AperFunction,ComponentPad*
%ADD22R,1.208000X1.208000*%
G04 #@! TD*
G04 #@! TA.AperFunction,ComponentPad*
%ADD23C,1.208000*%
G04 #@! TD*
G04 #@! TA.AperFunction,ComponentPad*
%ADD24C,3.366000*%
G04 #@! TD*
G04 #@! TA.AperFunction,ViaPad*
%ADD25C,0.685800*%
G04 #@! TD*
G04 #@! TA.AperFunction,ViaPad*
%ADD26C,0.600000*%
G04 #@! TD*
G04 #@! TA.AperFunction,ViaPad*
%ADD27C,0.889000*%
G04 #@! TD*
G04 #@! TA.AperFunction,Conductor*
%ADD28C,0.200000*%
G04 #@! TD*
G04 APERTURE END LIST*
D10*
G04 #@! TO.N,/Keyboard/Col_0*
G04 #@! TO.C,S79*
X447360080Y-352437669D03*
G04 #@! TO.N,Net-(D79-A)*
X452360080Y-354537669D03*
G04 #@! TD*
D11*
G04 #@! TO.N,GND*
G04 #@! TO.C,J1*
X227700000Y-353250000D03*
D12*
G04 #@! TO.N,/Keyboard/~{USB_BOOT}*
X226700000Y-353250000D03*
G04 #@! TD*
D10*
G04 #@! TO.N,/Keyboard/Col_11*
G04 #@! TO.C,S77*
X379579339Y-353543459D03*
G04 #@! TO.N,Net-(D77-A)*
X384579339Y-355643459D03*
G04 #@! TD*
G04 #@! TO.N,/Keyboard/Col_3*
G04 #@! TO.C,S56*
X174912057Y-340620407D03*
G04 #@! TO.N,Net-(D56-A)*
X179198167Y-343942946D03*
G04 #@! TD*
G04 #@! TO.N,/Keyboard/Col_9*
G04 #@! TO.C,S101*
X379540286Y-258176889D03*
G04 #@! TO.N,Net-(D101-A)*
X384540286Y-260276889D03*
G04 #@! TD*
D13*
G04 #@! TO.N,/BMS/Cell3+*
G04 #@! TO.C,BT2*
X194372500Y-178610000D03*
X194372500Y-183690000D03*
X201992500Y-181150000D03*
G04 #@! TD*
D10*
G04 #@! TO.N,/Keyboard/Col_8*
G04 #@! TO.C,S35*
X294276991Y-302176411D03*
G04 #@! TO.N,Net-(D35-A)*
X299653912Y-302882618D03*
G04 #@! TD*
G04 #@! TO.N,/Keyboard/Col_3*
G04 #@! TO.C,S69*
X66206858Y-331168283D03*
G04 #@! TO.N,Net-(D69-A)*
X71206858Y-333268283D03*
G04 #@! TD*
D14*
G04 #@! TO.N,GND*
G04 #@! TO.C,H5*
X267450000Y-195100000D03*
G04 #@! TD*
D15*
G04 #@! TO.N,/Charging IC/SRP*
G04 #@! TO.C,R_{SR}1*
X111200000Y-196890500D03*
G04 #@! TO.N,/BMS/POS_RAIL*
X111200000Y-203440500D03*
G04 #@! TD*
D10*
G04 #@! TO.N,/Keyboard/Col_7*
G04 #@! TO.C,S86*
X456801364Y-314246072D03*
G04 #@! TO.N,Net-(D86-A)*
X461801364Y-316346072D03*
G04 #@! TD*
G04 #@! TO.N,/Keyboard/Col_7*
G04 #@! TO.C,S8*
X258200254Y-273060082D03*
G04 #@! TO.N,Net-(D8-A)*
X263622128Y-272944844D03*
G04 #@! TD*
G04 #@! TO.N,/Keyboard/Col_12*
G04 #@! TO.C,S39*
X374816827Y-296393461D03*
G04 #@! TO.N,Net-(D39-A)*
X379816827Y-298493461D03*
G04 #@! TD*
D16*
G04 #@! TO.N,GND*
G04 #@! TO.C,J8*
X61325000Y-187525000D03*
D17*
G04 #@! TO.N,unconnected-(J8-PadA2)*
X61325000Y-188625000D03*
G04 #@! TO.N,unconnected-(J8-PadA3)*
X61325000Y-189725000D03*
G04 #@! TO.N,/usbC_Switcher/VBUS*
X61325000Y-190825000D03*
G04 #@! TO.N,/usbC_Switcher/CC1*
X60525000Y-191575000D03*
G04 #@! TO.N,/usbC_Switcher/PWR_C_D+*
X61325000Y-192325000D03*
G04 #@! TO.N,/usbC_Switcher/PWR_C_D-*
X61325000Y-194175000D03*
G04 #@! TO.N,unconnected-(J8-PadA8)*
X60525000Y-194925000D03*
G04 #@! TO.N,/usbC_Switcher/VBUS*
X61325000Y-195675000D03*
G04 #@! TO.N,unconnected-(J8-PadA10)*
X61325000Y-196775000D03*
G04 #@! TO.N,unconnected-(J8-PadA11)*
X61325000Y-197875000D03*
G04 #@! TO.N,GND*
X61325000Y-198975000D03*
X58675000Y-198600000D03*
G04 #@! TO.N,unconnected-(J8-PadB2)*
X58675000Y-197500000D03*
G04 #@! TO.N,unconnected-(J8-PadB3)*
X58675000Y-196400000D03*
G04 #@! TO.N,/usbC_Switcher/VBUS*
X58675000Y-195300000D03*
G04 #@! TO.N,/usbC_Switcher/CC2*
X59475000Y-194550000D03*
G04 #@! TO.N,/usbC_Switcher/PWR_C_D+*
X58675000Y-193800000D03*
G04 #@! TO.N,/usbC_Switcher/PWR_C_D-*
X58675000Y-192700000D03*
G04 #@! TO.N,unconnected-(J8-PadB8)*
X59475000Y-191950000D03*
G04 #@! TO.N,/usbC_Switcher/VBUS*
X58675000Y-191200000D03*
G04 #@! TO.N,unconnected-(J8-PadB10)*
X58675000Y-190100000D03*
G04 #@! TO.N,unconnected-(J8-PadB11)*
X58675000Y-189000000D03*
G04 #@! TO.N,GND*
X58675000Y-187900000D03*
X60000000Y-188300000D03*
X60000000Y-189400000D03*
X60000000Y-190500000D03*
X60000000Y-196000000D03*
X60000000Y-197100000D03*
X60000000Y-198200000D03*
D18*
X60000000Y-184350000D03*
X60000000Y-202150000D03*
G04 #@! TD*
D13*
G04 #@! TO.N,/BMS/Cell2+*
G04 #@! TO.C,BT13*
X287729200Y-163390000D03*
X287729200Y-158310000D03*
X280109200Y-160850000D03*
G04 #@! TD*
D10*
G04 #@! TO.N,/Keyboard/Col_5*
G04 #@! TO.C,S6*
X206785254Y-267490202D03*
G04 #@! TO.N,Net-(D6-A)*
X210891601Y-271032504D03*
G04 #@! TD*
D15*
G04 #@! TO.N,/Charging IC/ACP*
G04 #@! TO.C,R_{AC}1*
X95250000Y-201945000D03*
G04 #@! TO.N,Net-(R_{AC}1-Pad2)*
X95250000Y-195395000D03*
G04 #@! TD*
D10*
G04 #@! TO.N,/Keyboard/Col_7*
G04 #@! TO.C,S34*
X274373433Y-309232275D03*
G04 #@! TO.N,Net-(D34-A)*
X279796026Y-309306328D03*
G04 #@! TD*
G04 #@! TO.N,/Keyboard/Col_8*
G04 #@! TO.C,S22*
X279264852Y-286534905D03*
G04 #@! TO.N,Net-(D22-A)*
X284669070Y-286987037D03*
G04 #@! TD*
G04 #@! TO.N,/Keyboard/Col_4*
G04 #@! TO.C,S70*
X68758368Y-353379991D03*
G04 #@! TO.N,Net-(D70-A)*
X73758368Y-355479991D03*
G04 #@! TD*
G04 #@! TO.N,/Keyboard/Col_4*
G04 #@! TO.C,S31*
X189253054Y-303166443D03*
G04 #@! TO.N,Net-(D31-A)*
X193480523Y-306563279D03*
G04 #@! TD*
G04 #@! TO.N,/Keyboard/Col_7*
G04 #@! TO.C,S47*
X278766922Y-328998324D03*
G04 #@! TO.N,Net-(D47-A)*
X284189982Y-328977729D03*
G04 #@! TD*
G04 #@! TO.N,/Keyboard/Col_4*
G04 #@! TO.C,S57*
X195327539Y-347600672D03*
G04 #@! TO.N,Net-(D57-A)*
X199143302Y-351454236D03*
G04 #@! TD*
G04 #@! TO.N,/Keyboard/Col_12*
G04 #@! TO.C,S65*
X412916833Y-334493471D03*
G04 #@! TO.N,Net-(D65-A)*
X417916833Y-336593471D03*
G04 #@! TD*
D19*
G04 #@! TO.N,Net-(J5-VBUS1)*
G04 #@! TO.C,J5*
X61520000Y-249100000D03*
G04 #@! TO.N,/USBA_2.0/CON_USB1_D_N*
X61520000Y-251099999D03*
G04 #@! TO.N,/USBA_2.0/CON_USB1_D_P*
X61520000Y-253100000D03*
G04 #@! TO.N,GND*
X61520000Y-255099998D03*
G04 #@! TO.N,Net-(J5-VBUS2)*
X58900000Y-249100000D03*
G04 #@! TO.N,/USBA_2.0/CON_USB2_D_N*
X58900000Y-251099999D03*
G04 #@! TO.N,/USBA_2.0/CON_USB2_D_P*
X58900000Y-253100000D03*
G04 #@! TO.N,GND*
X58900000Y-255099998D03*
G04 #@! TD*
D10*
G04 #@! TO.N,/Keyboard/Col_10*
G04 #@! TO.C,S50*
X340726730Y-315611833D03*
G04 #@! TO.N,Net-(D50-A)*
X345779988Y-317580228D03*
G04 #@! TD*
G04 #@! TO.N,/Keyboard/Col_1*
G04 #@! TO.C,S2*
X122336482Y-258262220D03*
G04 #@! TO.N,Net-(D2-A)*
X127336482Y-260362220D03*
G04 #@! TD*
G04 #@! TO.N,/Keyboard/Col_2*
G04 #@! TO.C,S16*
X141454339Y-276835485D03*
G04 #@! TO.N,Net-(D16-A)*
X146454339Y-278935485D03*
G04 #@! TD*
D13*
G04 #@! TO.N,Earth*
G04 #@! TO.C,BT16*
X403447500Y-158310000D03*
X403447500Y-163390000D03*
X411067500Y-160850000D03*
G04 #@! TD*
D10*
G04 #@! TO.N,/Keyboard/Col_7*
G04 #@! TO.C,S73*
X163121786Y-360726929D03*
G04 #@! TO.N,Net-(D73-A)*
X166937549Y-364580493D03*
G04 #@! TD*
G04 #@! TO.N,/Keyboard/Col_8*
G04 #@! TO.C,S48*
X298423223Y-321385533D03*
G04 #@! TO.N,Net-(D48-A)*
X303818727Y-321931914D03*
G04 #@! TD*
D13*
G04 #@! TO.N,/BMS/Cell1+*
G04 #@! TO.C,BT15*
X357362500Y-163390000D03*
X357362500Y-158310000D03*
X349742500Y-160850000D03*
G04 #@! TD*
D10*
G04 #@! TO.N,/Keyboard/Col_3*
G04 #@! TO.C,S43*
X171560809Y-318757340D03*
G04 #@! TO.N,Net-(D43-A)*
X176014932Y-321851010D03*
G04 #@! TD*
G04 #@! TO.N,/Keyboard/Col_4*
G04 #@! TO.C,S96*
X456901584Y-257247941D03*
G04 #@! TO.N,Net-(D96-A)*
X461901584Y-259347941D03*
G04 #@! TD*
G04 #@! TO.N,/Keyboard/Col_6*
G04 #@! TO.C,S85*
X437818515Y-314232572D03*
G04 #@! TO.N,Net-(D85-A)*
X442818515Y-316332572D03*
G04 #@! TD*
G04 #@! TO.N,/Keyboard/Col_10*
G04 #@! TO.C,S89*
X475786227Y-295281793D03*
G04 #@! TO.N,Net-(D89-A)*
X480786227Y-297381793D03*
G04 #@! TD*
G04 #@! TO.N,/Keyboard/Col_5*
G04 #@! TO.C,S84*
X437818515Y-333249437D03*
G04 #@! TO.N,Net-(D84-A)*
X442818515Y-335349437D03*
G04 #@! TD*
D13*
G04 #@! TO.N,/BMS/Cell2+*
G04 #@! TO.C,BT5*
X287729200Y-183690000D03*
X287729200Y-178610000D03*
X280109200Y-181150000D03*
G04 #@! TD*
D10*
G04 #@! TO.N,/Keyboard/Col_10*
G04 #@! TO.C,S102*
X398360568Y-258246136D03*
G04 #@! TO.N,Net-(D102-A)*
X403360568Y-260346136D03*
G04 #@! TD*
G04 #@! TO.N,/Keyboard/Col_11*
G04 #@! TO.C,S103*
X389089874Y-277343497D03*
G04 #@! TO.N,Net-(D103-A)*
X394089874Y-279443497D03*
G04 #@! TD*
G04 #@! TO.N,/Keyboard/Col_10*
G04 #@! TO.C,S63*
X349995556Y-334802022D03*
G04 #@! TO.N,Net-(D63-A)*
X355048814Y-336770417D03*
G04 #@! TD*
G04 #@! TO.N,/Keyboard/Col_9*
G04 #@! TO.C,S88*
X494800000Y-304850000D03*
G04 #@! TO.N,Net-(D88-A)*
X499800000Y-306950000D03*
G04 #@! TD*
G04 #@! TO.N,/Keyboard/Col_12*
G04 #@! TO.C,S91*
X437817447Y-295273652D03*
G04 #@! TO.N,Net-(D91-A)*
X442817447Y-297373652D03*
G04 #@! TD*
G04 #@! TO.N,/Keyboard/Col_2*
G04 #@! TO.C,S42*
X150190768Y-315709378D03*
G04 #@! TO.N,Net-(D42-A)*
X155074010Y-318068180D03*
G04 #@! TD*
D13*
G04 #@! TO.N,/BMS/Cell1+*
G04 #@! TO.C,BT7*
X333714200Y-178610000D03*
X333714200Y-183690000D03*
X341334200Y-181150000D03*
G04 #@! TD*
D10*
G04 #@! TO.N,/Keyboard/Col_9*
G04 #@! TO.C,S62*
X329447567Y-335610610D03*
G04 #@! TO.N,Net-(D62-A)*
X334611568Y-337266840D03*
G04 #@! TD*
G04 #@! TO.N,/Keyboard/Col_11*
G04 #@! TO.C,S64*
X381961908Y-334500000D03*
G04 #@! TO.N,Net-(D64-A)*
X386961908Y-336600000D03*
G04 #@! TD*
G04 #@! TO.N,/Keyboard/Col_9*
G04 #@! TO.C,S49*
X319862365Y-316967145D03*
G04 #@! TO.N,Net-(D49-A)*
X325093695Y-318396549D03*
G04 #@! TD*
G04 #@! TO.N,/Keyboard/Col_10*
G04 #@! TO.C,S24*
X320460964Y-277679618D03*
G04 #@! TO.N,Net-(D24-A)*
X325624965Y-279335848D03*
G04 #@! TD*
G04 #@! TO.N,/Keyboard/Col_2*
G04 #@! TO.C,S94*
X475786227Y-276297941D03*
G04 #@! TO.N,Net-(D94-A)*
X480786227Y-278397941D03*
G04 #@! TD*
D15*
G04 #@! TO.N,Net-(R_{AC}1-Pad2)*
G04 #@! TO.C,R_{AC}2*
X95250000Y-193545000D03*
G04 #@! TO.N,/Charging IC/ACN*
X95250000Y-186995000D03*
G04 #@! TD*
D10*
G04 #@! TO.N,/Keyboard/Col_12*
G04 #@! TO.C,S13*
X360535220Y-258128765D03*
G04 #@! TO.N,Net-(D13-A)*
X365535220Y-260228765D03*
G04 #@! TD*
D13*
G04 #@! TO.N,/BMS/Cell1+*
G04 #@! TO.C,BT6*
X357362500Y-183690000D03*
X357362500Y-178610000D03*
X349742500Y-181150000D03*
G04 #@! TD*
D10*
G04 #@! TO.N,/Keyboard/Col_5*
G04 #@! TO.C,S32*
X209307691Y-309957875D03*
G04 #@! TO.N,Net-(D32-A)*
X213123454Y-313811439D03*
G04 #@! TD*
G04 #@! TO.N,/Keyboard/Col_5*
G04 #@! TO.C,S45*
X211451786Y-332470316D03*
G04 #@! TO.N,Net-(D45-A)*
X215025177Y-336549638D03*
G04 #@! TD*
D13*
G04 #@! TO.N,/BMS/POS_RAIL*
G04 #@! TO.C,BT9*
X148387500Y-163390000D03*
X148387500Y-158310000D03*
X140767500Y-160850000D03*
G04 #@! TD*
G04 #@! TO.N,/BMS/Cell2+*
G04 #@! TO.C,BT12*
X263980800Y-158310000D03*
X263980800Y-163390000D03*
X271600800Y-160850000D03*
G04 #@! TD*
D10*
G04 #@! TO.N,/Keyboard/Col_1*
G04 #@! TO.C,S54*
X132881837Y-334493463D03*
G04 #@! TO.N,Net-(D54-A)*
X137881837Y-336593463D03*
G04 #@! TD*
G04 #@! TO.N,/Keyboard/Col_2*
G04 #@! TO.C,S81*
X494742587Y-342650000D03*
G04 #@! TO.N,Net-(D81-A)*
X499742587Y-344750000D03*
G04 #@! TD*
G04 #@! TO.N,/Keyboard/Col_10*
G04 #@! TO.C,S37*
X336228362Y-296419661D03*
G04 #@! TO.N,Net-(D37-A)*
X341281620Y-298388056D03*
G04 #@! TD*
G04 #@! TO.N,/Keyboard/Col_6*
G04 #@! TO.C,S98*
X398629327Y-296393472D03*
G04 #@! TO.N,Net-(D98-A)*
X403629327Y-298493472D03*
G04 #@! TD*
G04 #@! TO.N,/Keyboard/Col_1*
G04 #@! TO.C,S80*
X475850009Y-352200212D03*
G04 #@! TO.N,Net-(D80-A)*
X480850009Y-354300212D03*
G04 #@! TD*
G04 #@! TO.N,/Keyboard/Col_4*
G04 #@! TO.C,S5*
X185069112Y-261610604D03*
G04 #@! TO.N,Net-(D5-A)*
X189468566Y-264781537D03*
G04 #@! TD*
G04 #@! TO.N,/Keyboard/Col_12*
G04 #@! TO.C,S52*
X391472381Y-315443493D03*
G04 #@! TO.N,Net-(D52-A)*
X396472381Y-317543493D03*
G04 #@! TD*
G04 #@! TO.N,/Keyboard/Col_8*
G04 #@! TO.C,S61*
X308081925Y-339220386D03*
G04 #@! TO.N,Net-(D61-A)*
X313448461Y-340001596D03*
G04 #@! TD*
G04 #@! TO.N,/Keyboard/Col_9*
G04 #@! TO.C,S10*
X299568810Y-260105022D03*
G04 #@! TO.N,Net-(D10-A)*
X304877645Y-261212394D03*
G04 #@! TD*
D13*
G04 #@! TO.N,Earth*
G04 #@! TO.C,BT8*
X403322500Y-178610000D03*
X403322500Y-183690000D03*
X410942500Y-181150000D03*
G04 #@! TD*
D10*
G04 #@! TO.N,/Keyboard/Col_3*
G04 #@! TO.C,S4*
X163684998Y-258373219D03*
G04 #@! TO.N,Net-(D4-A)*
X168482944Y-260901007D03*
G04 #@! TD*
D13*
G04 #@! TO.N,/BMS/POS_RAIL*
G04 #@! TO.C,BT1*
X148387500Y-183690000D03*
X148387500Y-178610000D03*
X140767500Y-181150000D03*
G04 #@! TD*
D10*
G04 #@! TO.N,/Keyboard/Col_6*
G04 #@! TO.C,S33*
X255375892Y-318455599D03*
G04 #@! TO.N,Net-(D33-A)*
X260776520Y-317962431D03*
G04 #@! TD*
G04 #@! TO.N,/Keyboard/Col_8*
G04 #@! TO.C,S100*
X494728976Y-257293739D03*
G04 #@! TO.N,Net-(D100-A)*
X499728976Y-259393739D03*
G04 #@! TD*
G04 #@! TO.N,/Keyboard/Col_12*
G04 #@! TO.C,S26*
X360529351Y-277089474D03*
G04 #@! TO.N,Net-(D26-A)*
X365529351Y-279189474D03*
G04 #@! TD*
G04 #@! TO.N,/Keyboard/Col_0*
G04 #@! TO.C,S66*
X77166824Y-274018289D03*
G04 #@! TO.N,Net-(D66-A)*
X82166824Y-276118289D03*
G04 #@! TD*
G04 #@! TO.N,/Keyboard/Col_4*
G04 #@! TO.C,S44*
X191871270Y-324355576D03*
G04 #@! TO.N,Net-(D44-A)*
X195915170Y-327969006D03*
G04 #@! TD*
G04 #@! TO.N,/Keyboard/Col_0*
G04 #@! TO.C,S27*
X103354337Y-296393461D03*
G04 #@! TO.N,Net-(D27-A)*
X108354337Y-298493461D03*
G04 #@! TD*
D13*
G04 #@! TO.N,/BMS/Cell3+*
G04 #@! TO.C,BT11*
X218020800Y-163390000D03*
X218020800Y-158310000D03*
X210400800Y-160850000D03*
G04 #@! TD*
D10*
G04 #@! TO.N,/Keyboard/Col_8*
G04 #@! TO.C,S74*
X191721984Y-372573961D03*
G04 #@! TO.N,Net-(D74-A)*
X195537747Y-376427525D03*
G04 #@! TD*
G04 #@! TO.N,/Keyboard/Col_6*
G04 #@! TO.C,S72*
X120733018Y-353543459D03*
G04 #@! TO.N,Net-(D72-A)*
X125733018Y-355643459D03*
G04 #@! TD*
G04 #@! TO.N,/Keyboard/Col_9*
G04 #@! TO.C,S36*
X315148813Y-298137411D03*
G04 #@! TO.N,Net-(D36-A)*
X320404293Y-299475298D03*
G04 #@! TD*
G04 #@! TO.N,/Keyboard/Col_6*
G04 #@! TO.C,S20*
X223015241Y-294378979D03*
G04 #@! TO.N,Net-(D20-A)*
X226831004Y-298232543D03*
G04 #@! TD*
G04 #@! TO.N,/Keyboard/Col_2*
G04 #@! TO.C,S55*
X154674524Y-336039634D03*
G04 #@! TO.N,Net-(D55-A)*
X159233902Y-338975971D03*
G04 #@! TD*
G04 #@! TO.N,/Keyboard/Col_11*
G04 #@! TO.C,S12*
X341406802Y-257984265D03*
G04 #@! TO.N,Net-(D12-A)*
X346406802Y-260084265D03*
G04 #@! TD*
G04 #@! TO.N,/Keyboard/Col_5*
G04 #@! TO.C,S97*
X437851596Y-257214868D03*
G04 #@! TO.N,Net-(D97-A)*
X442851596Y-259314868D03*
G04 #@! TD*
G04 #@! TO.N,/Keyboard/Col_1*
G04 #@! TO.C,S28*
X127166841Y-296393461D03*
G04 #@! TO.N,Net-(D28-A)*
X132166841Y-298493461D03*
G04 #@! TD*
G04 #@! TO.N,/Keyboard/Col_2*
G04 #@! TO.C,S29*
X147575832Y-296147950D03*
G04 #@! TO.N,Net-(D29-A)*
X152538421Y-298334892D03*
G04 #@! TD*
G04 #@! TO.N,/Keyboard/Col_9*
G04 #@! TO.C,S23*
X299755492Y-280990096D03*
G04 #@! TO.N,Net-(D23-A)*
X305064327Y-282097468D03*
G04 #@! TD*
D13*
G04 #@! TO.N,/BMS/Cell3+*
G04 #@! TO.C,BT10*
X194447500Y-158310000D03*
X194447500Y-163390000D03*
X202067500Y-160850000D03*
G04 #@! TD*
D10*
G04 #@! TO.N,/Keyboard/Col_6*
G04 #@! TO.C,S59*
X268475569Y-355766747D03*
G04 #@! TO.N,Net-(D59-A)*
X273855696Y-355085400D03*
G04 #@! TD*
D14*
G04 #@! TO.N,GND*
G04 #@! TO.C,H6*
X203800000Y-195150000D03*
G04 #@! TD*
D10*
G04 #@! TO.N,/Keyboard/Col_4*
G04 #@! TO.C,S18*
X183644786Y-281112886D03*
G04 #@! TO.N,Net-(D18-A)*
X188044240Y-284283819D03*
G04 #@! TD*
G04 #@! TO.N,/Keyboard/Col_5*
G04 #@! TO.C,S58*
X214396205Y-356276967D03*
G04 #@! TO.N,Net-(D58-A)*
X217897858Y-360418033D03*
G04 #@! TD*
D13*
G04 #@! TO.N,/BMS/Cell1+*
G04 #@! TO.C,BT14*
X333814200Y-158310000D03*
X333814200Y-163390000D03*
X341434200Y-160850000D03*
G04 #@! TD*
D10*
G04 #@! TO.N,/Keyboard/Col_10*
G04 #@! TO.C,S11*
X320735781Y-257422451D03*
G04 #@! TO.N,Net-(D11-A)*
X325899782Y-259078681D03*
G04 #@! TD*
D14*
G04 #@! TO.N,GND*
G04 #@! TO.C,H8*
X417100000Y-211475000D03*
G04 #@! TD*
D10*
G04 #@! TO.N,/Keyboard/Col_5*
G04 #@! TO.C,S71*
X94540544Y-353543459D03*
G04 #@! TO.N,Net-(D71-A)*
X99540544Y-355643459D03*
G04 #@! TD*
G04 #@! TO.N,/Keyboard/Col_0*
G04 #@! TO.C,S92*
X437818515Y-276297941D03*
G04 #@! TO.N,Net-(D92-A)*
X442818515Y-278397941D03*
G04 #@! TD*
G04 #@! TO.N,/Keyboard/Col_0*
G04 #@! TO.C,S40*
X103831861Y-315443460D03*
G04 #@! TO.N,Net-(D40-A)*
X108831861Y-317543460D03*
G04 #@! TD*
G04 #@! TO.N,/Keyboard/Col_9*
G04 #@! TO.C,S75*
X285936940Y-372839593D03*
G04 #@! TO.N,Net-(D75-A)*
X291359973Y-372866324D03*
G04 #@! TD*
G04 #@! TO.N,/Keyboard/Col_4*
G04 #@! TO.C,S83*
X456770633Y-333262544D03*
G04 #@! TO.N,Net-(D83-A)*
X461770633Y-335362544D03*
G04 #@! TD*
D13*
G04 #@! TO.N,/BMS/Cell2+*
G04 #@! TO.C,BT4*
X264080800Y-178610000D03*
X264080800Y-183690000D03*
X271700800Y-181150000D03*
G04 #@! TD*
D10*
G04 #@! TO.N,/Keyboard/Col_6*
G04 #@! TO.C,S7*
X227066732Y-273683688D03*
G04 #@! TO.N,Net-(D7-A)*
X230882495Y-277537252D03*
G04 #@! TD*
G04 #@! TO.N,/Keyboard/Col_0*
G04 #@! TO.C,S53*
X101911434Y-334493494D03*
G04 #@! TO.N,Net-(D53-A)*
X106911434Y-336593494D03*
G04 #@! TD*
G04 #@! TO.N,/Keyboard/Col_11*
G04 #@! TO.C,S25*
X341352350Y-277089474D03*
G04 #@! TO.N,Net-(D25-A)*
X346352350Y-279189474D03*
G04 #@! TD*
G04 #@! TO.N,/Keyboard/Col_5*
G04 #@! TO.C,S19*
X203457395Y-287092345D03*
G04 #@! TO.N,Net-(D19-A)*
X207563742Y-290634647D03*
G04 #@! TD*
D20*
G04 #@! TO.N,GND*
G04 #@! TO.C,U6*
X99825000Y-212975000D03*
X99825000Y-214075000D03*
X99825000Y-215175000D03*
X100925000Y-212975000D03*
X100925000Y-214075000D03*
X100925000Y-215175000D03*
X102025000Y-212975000D03*
X102025000Y-214075000D03*
X102025000Y-215175000D03*
G04 #@! TD*
D10*
G04 #@! TO.N,/Keyboard/Col_8*
G04 #@! TO.C,S9*
X278834534Y-265195277D03*
G04 #@! TO.N,Net-(D9-A)*
X284238752Y-265647409D03*
G04 #@! TD*
D21*
G04 #@! TO.N,GND*
G04 #@! TO.C,U7*
X149075000Y-203550000D03*
X149700000Y-202549999D03*
X149700000Y-204550001D03*
X150325000Y-203550000D03*
G04 #@! TD*
D10*
G04 #@! TO.N,/Keyboard/Col_0*
G04 #@! TO.C,S1*
X103253413Y-258328366D03*
G04 #@! TO.N,Net-(D1-A)*
X108253413Y-260428366D03*
G04 #@! TD*
D14*
G04 #@! TO.N,GND*
G04 #@! TO.C,H9*
X472900000Y-204300000D03*
G04 #@! TD*
D10*
G04 #@! TO.N,/Keyboard/Col_3*
G04 #@! TO.C,S82*
X475740421Y-333213067D03*
G04 #@! TO.N,Net-(D82-A)*
X480740421Y-335313067D03*
G04 #@! TD*
G04 #@! TO.N,/Keyboard/Col_11*
G04 #@! TO.C,S38*
X355766839Y-296266466D03*
G04 #@! TO.N,Net-(D38-A)*
X360766839Y-298366466D03*
G04 #@! TD*
G04 #@! TO.N,/Keyboard/Col_11*
G04 #@! TO.C,S90*
X456769290Y-295248720D03*
G04 #@! TO.N,Net-(D90-A)*
X461769290Y-297348720D03*
G04 #@! TD*
G04 #@! TO.N,/Keyboard/Col_1*
G04 #@! TO.C,S93*
X456769290Y-276331012D03*
G04 #@! TO.N,Net-(D93-A)*
X461769290Y-278431012D03*
G04 #@! TD*
G04 #@! TO.N,/Keyboard/Col_10*
G04 #@! TO.C,S76*
X310137242Y-362815270D03*
G04 #@! TO.N,Net-(D76-A)*
X315560275Y-362842001D03*
G04 #@! TD*
G04 #@! TO.N,/Keyboard/Col_2*
G04 #@! TO.C,S3*
X141651065Y-257468470D03*
G04 #@! TO.N,Net-(D3-A)*
X146651065Y-259568470D03*
G04 #@! TD*
G04 #@! TO.N,/Keyboard/Col_1*
G04 #@! TO.C,S41*
X130024339Y-315442426D03*
G04 #@! TO.N,Net-(D41-A)*
X135024339Y-317542426D03*
G04 #@! TD*
G04 #@! TO.N,/Keyboard/Col_1*
G04 #@! TO.C,S67*
X72392471Y-293068285D03*
G04 #@! TO.N,Net-(D67-A)*
X77392471Y-295168285D03*
G04 #@! TD*
G04 #@! TO.N,/Keyboard/Col_12*
G04 #@! TO.C,S78*
X408154351Y-353543459D03*
G04 #@! TO.N,Net-(D78-A)*
X413154351Y-355643459D03*
G04 #@! TD*
G04 #@! TO.N,/Keyboard/Col_3*
G04 #@! TO.C,S17*
X162215011Y-277576742D03*
G04 #@! TO.N,Net-(D17-A)*
X167012957Y-280104530D03*
G04 #@! TD*
G04 #@! TO.N,/Keyboard/Col_7*
G04 #@! TO.C,S60*
X287861440Y-346371316D03*
G04 #@! TO.N,Net-(D60-A)*
X293284473Y-346398047D03*
G04 #@! TD*
G04 #@! TO.N,/Keyboard/Col_3*
G04 #@! TO.C,S30*
X168709252Y-298082799D03*
G04 #@! TO.N,Net-(D30-A)*
X173368329Y-300858228D03*
G04 #@! TD*
D22*
G04 #@! TO.N,/HDMI/TMDS_D2+*
G04 #@! TO.C,J6*
X62662500Y-225600700D03*
D23*
G04 #@! TO.N,GND*
X61162500Y-224850700D03*
G04 #@! TO.N,/HDMI/TMDS_D2-*
X62662500Y-224100700D03*
G04 #@! TO.N,/HDMI/TMDS_D1+*
X59662500Y-224100700D03*
G04 #@! TO.N,GND*
X61162500Y-223350700D03*
G04 #@! TO.N,/HDMI/TMDS_D1-*
X59662500Y-222600700D03*
G04 #@! TO.N,/HDMI/TMDS_D0+*
X62662500Y-222600700D03*
G04 #@! TO.N,GND*
X61162500Y-221850700D03*
G04 #@! TO.N,/HDMI/TMDS_D0-*
X62662500Y-221100700D03*
G04 #@! TO.N,/HDMI/TMDS_CK+*
X59662500Y-221100700D03*
G04 #@! TO.N,GND*
X61162500Y-220350700D03*
G04 #@! TO.N,/HDMI/TMDS_CK-*
X59662500Y-219600700D03*
G04 #@! TO.N,unconnected-(J6-CEC-Pad13)*
X62662500Y-219600700D03*
G04 #@! TO.N,unconnected-(J6-UTILITY-Pad14)*
X61162500Y-218850700D03*
G04 #@! TO.N,/HDMI/DDC_SCL*
X62662500Y-218100700D03*
G04 #@! TO.N,/HDMI/DDC_SDA*
X59662500Y-218100700D03*
G04 #@! TO.N,GND*
X61162500Y-217350700D03*
G04 #@! TO.N,Net-(J6-+5V)*
X59662500Y-216600700D03*
G04 #@! TO.N,/HDMI/HPD*
X62662500Y-216600700D03*
D24*
G04 #@! TO.N,GND*
X57162500Y-214250700D03*
X57162500Y-227450700D03*
G04 #@! TD*
D10*
G04 #@! TO.N,/Keyboard/Col_6*
G04 #@! TO.C,S46*
X260244246Y-338086498D03*
G04 #@! TO.N,Net-(D46-A)*
X265624373Y-337405151D03*
G04 #@! TD*
G04 #@! TO.N,/Keyboard/Col_3*
G04 #@! TO.C,S95*
X494737003Y-276297941D03*
G04 #@! TO.N,Net-(D95-A)*
X499737003Y-278397941D03*
G04 #@! TD*
D13*
G04 #@! TO.N,/BMS/Cell3+*
G04 #@! TO.C,BT3*
X218020800Y-183690000D03*
X218020800Y-178610000D03*
X210400800Y-181150000D03*
G04 #@! TD*
D10*
G04 #@! TO.N,/Keyboard/Col_2*
G04 #@! TO.C,S68*
X68582464Y-312118284D03*
G04 #@! TO.N,Net-(D68-A)*
X73582464Y-314218284D03*
G04 #@! TD*
G04 #@! TO.N,/Keyboard/Col_8*
G04 #@! TO.C,S87*
X475775272Y-314240583D03*
G04 #@! TO.N,Net-(D87-A)*
X480775272Y-316340583D03*
G04 #@! TD*
G04 #@! TO.N,/Keyboard/Col_1*
G04 #@! TO.C,S15*
X122404336Y-277343464D03*
G04 #@! TO.N,Net-(D15-A)*
X127404336Y-279443464D03*
G04 #@! TD*
G04 #@! TO.N,/Keyboard/Col_11*
G04 #@! TO.C,S51*
X360529351Y-315443460D03*
G04 #@! TO.N,Net-(D51-A)*
X365529351Y-317543460D03*
G04 #@! TD*
G04 #@! TO.N,/Keyboard/Col_7*
G04 #@! TO.C,S99*
X475669772Y-257324422D03*
G04 #@! TO.N,Net-(D99-A)*
X480669772Y-259424422D03*
G04 #@! TD*
D11*
G04 #@! TO.N,/Keyboard/SWDIO*
G04 #@! TO.C,J2*
X239250000Y-357030000D03*
D12*
G04 #@! TO.N,/Keyboard/SWCLK*
X239250000Y-356030000D03*
G04 #@! TD*
D10*
G04 #@! TO.N,/Keyboard/Col_7*
G04 #@! TO.C,S21*
X259229398Y-294584035D03*
G04 #@! TO.N,Net-(D21-A)*
X264651272Y-294468797D03*
G04 #@! TD*
G04 #@! TO.N,/Keyboard/Col_0*
G04 #@! TO.C,S14*
X103354337Y-277343464D03*
G04 #@! TO.N,Net-(D14-A)*
X108354337Y-279443464D03*
G04 #@! TD*
D25*
G04 #@! TO.N,/~{PWR_LED}{slash}~{PSON}*
X95500000Y-221300000D03*
X97152981Y-221247019D03*
X169694058Y-235719900D03*
X167100000Y-233479100D03*
X201880822Y-248901065D03*
D26*
G04 #@! TO.N,/LattePanda_mu/HSIO0_TX+*
X253700000Y-253475000D03*
X277300000Y-253475000D03*
X236750000Y-253475000D03*
X217700000Y-254150000D03*
G04 #@! TO.N,/CPU_FAN/FAN_1_PWM*
X202050000Y-231200000D03*
X202438058Y-235969029D03*
G04 #@! TO.N,/Keyboard/KB_USB_D+*
X235975000Y-269377380D03*
X235950000Y-274350000D03*
G04 #@! TO.N,/LattePanda_mu/GPP_D0*
X467950000Y-233900000D03*
X462050000Y-235350000D03*
G04 #@! TO.N,+10V*
X275400000Y-192750000D03*
X276800000Y-235400000D03*
G04 #@! TO.N,/HDMI/DDI_B_TX0+*
X172350521Y-247249479D03*
X184007179Y-247825001D03*
G04 #@! TO.N,/HDMI/DDI_B_TX2-*
X80667500Y-217750000D03*
X84550000Y-218675000D03*
G04 #@! TO.N,/LattePanda_mu/~{PWR_SW}*
X247000000Y-265300000D03*
X407850000Y-256200000D03*
X254850000Y-265250000D03*
X234550000Y-266500000D03*
X409700000Y-296993472D03*
X237050000Y-266550000D03*
X219082553Y-262374232D03*
X221493002Y-262547969D03*
G04 #@! TO.N,/HDMI/DDI_B_TX0-*
X171749479Y-247850521D03*
X184700000Y-248225001D03*
X88855774Y-226494226D03*
X85300000Y-220400000D03*
G04 #@! TO.N,/LattePanda_mu/HSIO0_RX+*
X455150000Y-248225000D03*
X452875000Y-230600000D03*
G04 #@! TO.N,/LattePanda_mu/USB_2_P1-*
X236050521Y-261850521D03*
X452200000Y-252950000D03*
X255253808Y-262163246D03*
X232699479Y-262900521D03*
X218949479Y-258900521D03*
X453671683Y-252183139D03*
X244896209Y-262000521D03*
X222100000Y-259425000D03*
G04 #@! TO.N,/LattePanda_mu/HSIO_3_RX-*
X416499479Y-242349479D03*
X419525000Y-235700000D03*
G04 #@! TO.N,/LattePanda_mu/~{PLT_RST}*
X405250000Y-236350000D03*
X254500000Y-259850000D03*
X401550000Y-251277379D03*
X246400000Y-259050000D03*
G04 #@! TO.N,Net-(A1-~{BIOS_SEL})*
X190350000Y-256300000D03*
X181850000Y-256900000D03*
G04 #@! TO.N,/HDMI/DDI_B_DDC_SDA*
X77465000Y-211100000D03*
X96950000Y-226865000D03*
G04 #@! TO.N,/LattePanda_mu/~{RST_SW}*
X407103321Y-256487184D03*
X237100000Y-265650000D03*
X219550000Y-261725003D03*
X234400000Y-265600000D03*
X256250000Y-264500000D03*
X246350000Y-264700000D03*
X408850000Y-297150000D03*
X221550000Y-261750000D03*
G04 #@! TO.N,/USBA_2.0/CON_USB1_D_P*
X173650000Y-246575000D03*
X89024881Y-252019996D03*
X93613305Y-246411638D03*
X184350000Y-246625001D03*
G04 #@! TO.N,/Keyboard/KB_USB_D-*
X235125000Y-269377380D03*
X235149997Y-274350000D03*
G04 #@! TO.N,/LattePanda_mu/HSIO0_TX-*
X253700000Y-254325000D03*
X236750000Y-254325000D03*
X277300000Y-254325000D03*
X218226304Y-254752502D03*
G04 #@! TO.N,+BATT*
X229750000Y-204850000D03*
X231150000Y-258500000D03*
X229750000Y-244200000D03*
X204600000Y-204900000D03*
G04 #@! TO.N,/HDMI/DDI_B_DDC_SCL*
X71157500Y-209350000D03*
X96198072Y-227138143D03*
G04 #@! TO.N,/CPU_FAN/FAN_1_TAC*
X203250000Y-236000000D03*
X202100000Y-230100000D03*
G04 #@! TO.N,/HDMI/DDI_B_TX1+*
X174549479Y-246150521D03*
X180950521Y-245150521D03*
G04 #@! TO.N,/USBA_2.0/CON_USB2_D_P*
X181300000Y-255375000D03*
X188974488Y-254250977D03*
G04 #@! TO.N,/LattePanda_mu/~{PEWAKE}*
X254324999Y-260630627D03*
X410800000Y-251734920D03*
X410100000Y-247556000D03*
X246872350Y-259695670D03*
G04 #@! TO.N,/LattePanda_mu/USB_2_P7+*
X434900000Y-234875000D03*
X406575000Y-203050000D03*
G04 #@! TO.N,/HDMI/DDI_B_TX1-*
X180349479Y-244549479D03*
X175150521Y-245549479D03*
G04 #@! TO.N,/LattePanda_mu/HSIO_3_TX+*
X256250000Y-263625000D03*
X219550000Y-260925000D03*
X234200000Y-264625000D03*
X415025000Y-241650000D03*
X237000000Y-264625000D03*
X245261671Y-264625000D03*
X411800000Y-254425000D03*
X223000000Y-260925000D03*
G04 #@! TO.N,/LattePanda_mu/USB_2_P1+*
X245497251Y-261399479D03*
X255253808Y-261313246D03*
X233300521Y-262299479D03*
X219550521Y-258299479D03*
X235449479Y-261249479D03*
X222100000Y-258575000D03*
G04 #@! TO.N,/LattePanda_mu/GPP_F16_GSXCLK*
X419124999Y-226700000D03*
X400964190Y-209300000D03*
X427700000Y-235050000D03*
X420775001Y-227950000D03*
X435750000Y-243650000D03*
X402678270Y-210650000D03*
G04 #@! TO.N,/LattePanda_mu/GPP_E0_SATAXPCIE0*
X467900000Y-234900000D03*
X289700000Y-245250000D03*
X463450000Y-235050000D03*
X254400000Y-259000003D03*
X245719070Y-258453396D03*
X294350000Y-244814190D03*
G04 #@! TO.N,/USBA_2.0/CON_USB2_D_N*
X189824488Y-254250977D03*
X181300000Y-256225000D03*
G04 #@! TO.N,/HDMI/DDI_B_TX3-*
X85799479Y-226799479D03*
X86499479Y-222400521D03*
G04 #@! TO.N,/LattePanda_mu/HSIO0_RX-*
X452025000Y-230600000D03*
X455150000Y-249075000D03*
G04 #@! TO.N,/LattePanda_mu/HSIO_3_RX+*
X420375000Y-235700000D03*
X417100521Y-242950521D03*
G04 #@! TO.N,/LattePanda_mu/USB_2_P7-*
X434900000Y-234025000D03*
X407425000Y-203050000D03*
G04 #@! TO.N,/HDMI/DDI_B_HPD*
X94950000Y-227400000D03*
X65730000Y-209400000D03*
G04 #@! TO.N,/LattePanda_mu/REFCLK3-*
X401583389Y-241844881D03*
X400250000Y-241700000D03*
G04 #@! TO.N,/USBA_2.0/CON_USB1_D_N*
X183478030Y-247225001D03*
X93012263Y-247012680D03*
X89024881Y-251169996D03*
X173650000Y-247425000D03*
G04 #@! TO.N,/HDMI/DDI_B_TX3+*
X87100521Y-221799479D03*
X86400521Y-227400521D03*
G04 #@! TO.N,/LattePanda_mu/SUSCLK_WIFI*
X289906131Y-246022991D03*
X387800000Y-246500000D03*
X313900000Y-246500000D03*
X245450000Y-257700000D03*
X288850000Y-244500000D03*
X404350000Y-236050000D03*
X310372016Y-246656254D03*
X254400000Y-258200000D03*
G04 #@! TO.N,/LattePanda_mu/HSIO_3_TX-*
X223000000Y-260075000D03*
X414175000Y-241650000D03*
X237000000Y-263775000D03*
X411800000Y-253575000D03*
X219550000Y-260075000D03*
X234200000Y-263775000D03*
X245261671Y-263775000D03*
X256250000Y-262775000D03*
G04 #@! TO.N,Net-(ACFET1-G)*
X90390272Y-201980000D03*
X96350000Y-206700000D03*
X96250000Y-211990000D03*
G04 #@! TO.N,/Charging IC/ACP*
X93900000Y-210716000D03*
X94993543Y-204804205D03*
G04 #@! TO.N,Net-(BATFET1-G)*
X110680000Y-210530000D03*
X98350000Y-208225000D03*
G04 #@! TO.N,/BMS/Cell3+*
X179667500Y-146651000D03*
X124393500Y-163288200D03*
G04 #@! TO.N,/BMS/Cell2+*
X125393500Y-163288200D03*
X247667500Y-147300000D03*
G04 #@! TO.N,/BMS/Cell1+*
X126393500Y-163288200D03*
D27*
G04 #@! TO.N,Earth*
X181000000Y-185000000D03*
X184300000Y-186000000D03*
X367100000Y-166500000D03*
X153700000Y-187900000D03*
X163900000Y-153900000D03*
X152100000Y-152500000D03*
X323100000Y-163500000D03*
X378700000Y-162700000D03*
X318500000Y-145500000D03*
X240300000Y-161000000D03*
X413600000Y-187000000D03*
X134000000Y-157300000D03*
X133200000Y-183900000D03*
X188100000Y-185500000D03*
X148900000Y-189400000D03*
D26*
X133493500Y-162768200D03*
D27*
X415600000Y-183500000D03*
X226600000Y-153700000D03*
X239800000Y-186700000D03*
D26*
X133473500Y-161778200D03*
X123367500Y-151500000D03*
D27*
X183300000Y-161900000D03*
X207100000Y-144900000D03*
X165900000Y-144700000D03*
X398800000Y-187400000D03*
X157200000Y-186000000D03*
X174300000Y-185800000D03*
X116900000Y-152300000D03*
X125800000Y-144600000D03*
X374800000Y-187500000D03*
X249800000Y-186900000D03*
D26*
X118867500Y-154567240D03*
D27*
X311000000Y-165100000D03*
X223200000Y-186600000D03*
X368300000Y-153600000D03*
X367700000Y-186900000D03*
X129800000Y-185000000D03*
X387800000Y-186900000D03*
X393200000Y-154500000D03*
X252800000Y-172900000D03*
X348700000Y-147800000D03*
X157400000Y-172500000D03*
X242300000Y-177200000D03*
X128000000Y-165500000D03*
X251800000Y-156400000D03*
X163900000Y-177100000D03*
X118000000Y-146000000D03*
D26*
X122617500Y-151550000D03*
D27*
X133000000Y-173300000D03*
X301800000Y-186800000D03*
X137400000Y-189600000D03*
X243300000Y-144900000D03*
X308800000Y-151800000D03*
X177900000Y-181000000D03*
X165000000Y-185900000D03*
X392300000Y-178500000D03*
X236700000Y-186700000D03*
X293200000Y-187000000D03*
X414800000Y-148700000D03*
X320000000Y-175800000D03*
X159800000Y-185800000D03*
X126000000Y-167900000D03*
X390600000Y-168200000D03*
D26*
X128400000Y-148800000D03*
D27*
X381000000Y-187600000D03*
X256600000Y-186400000D03*
X415800000Y-170300000D03*
X170500000Y-185900000D03*
X412600000Y-153100000D03*
X167400000Y-164000000D03*
D26*
X128630000Y-161468200D03*
D27*
X144900000Y-144600000D03*
X277300000Y-145200000D03*
X415600000Y-159400000D03*
X228700000Y-168100000D03*
X296100000Y-186700000D03*
X173325000Y-171500000D03*
X362100000Y-186600000D03*
D26*
X128660000Y-160468200D03*
D27*
X182200000Y-144800000D03*
X328000000Y-186900000D03*
X229600000Y-186800000D03*
X141800000Y-189600000D03*
X135500000Y-170500000D03*
X117500000Y-158100000D03*
X132700000Y-165700000D03*
X313900000Y-186500000D03*
X298700000Y-178900000D03*
X377500000Y-178200000D03*
X245100000Y-186900000D03*
D26*
X131493500Y-163758200D03*
D27*
X365900000Y-179000000D03*
X394700000Y-187300000D03*
X381700000Y-152500000D03*
X308600000Y-185800000D03*
D26*
X133503500Y-160778200D03*
D27*
X322200000Y-186900000D03*
D26*
X128380000Y-162400000D03*
D27*
X296400000Y-161700000D03*
X137600000Y-154200000D03*
G04 #@! TO.N,GND*
X143400000Y-337400000D03*
X194100000Y-217800000D03*
X402600000Y-235200000D03*
X421400000Y-355600000D03*
X441200000Y-262000000D03*
X418900000Y-185800000D03*
X115800000Y-175300000D03*
X70900000Y-239600000D03*
X228300000Y-372600000D03*
X419500000Y-178600000D03*
X268800000Y-324300000D03*
X61800000Y-180300000D03*
X79700000Y-171500000D03*
X356000000Y-207600000D03*
X401700000Y-328300000D03*
D26*
X64287500Y-185950000D03*
D27*
X79600000Y-155500000D03*
X218400000Y-201400000D03*
X286800000Y-243000000D03*
X302800000Y-242000000D03*
D26*
X483780000Y-235750000D03*
D27*
X179900000Y-212600000D03*
X86100000Y-194400000D03*
X74200000Y-161400000D03*
X165600000Y-209500000D03*
X446800000Y-198800000D03*
D26*
X421400000Y-317850000D03*
D27*
X485200000Y-333000000D03*
X200400000Y-257200000D03*
X270800000Y-207100000D03*
X121100000Y-181000000D03*
D26*
X481000000Y-243700000D03*
X477600000Y-247550000D03*
D27*
X397700000Y-210400000D03*
X99500000Y-149700000D03*
X222700000Y-212400000D03*
X56800000Y-223700000D03*
X259800000Y-394600000D03*
X372400000Y-243600000D03*
X397600000Y-191600000D03*
D26*
X61250000Y-214638160D03*
X246500000Y-246600000D03*
D27*
X129600000Y-200300000D03*
X308700000Y-382200000D03*
X71200000Y-216600000D03*
X235300000Y-230700000D03*
X449700000Y-204600000D03*
X170400000Y-271800000D03*
X270800000Y-236200000D03*
D26*
X247700000Y-254750000D03*
D27*
X399800000Y-206600000D03*
D26*
X241750000Y-254750000D03*
D27*
X375100000Y-369600000D03*
X212900000Y-337300000D03*
X279100000Y-199100000D03*
X254100000Y-363500000D03*
X391600000Y-245200000D03*
X191000000Y-275000000D03*
X167000000Y-250700000D03*
D26*
X101540000Y-222245000D03*
D27*
X430000000Y-315600000D03*
D26*
X89374765Y-164087500D03*
D27*
X361000000Y-243900000D03*
X351700000Y-317900000D03*
D26*
X240993100Y-340890000D03*
D27*
X145000000Y-214000000D03*
X111800000Y-250800000D03*
D26*
X497050002Y-248734991D03*
D27*
X401800000Y-240500000D03*
X398100000Y-219800000D03*
X194300000Y-237100000D03*
X107000000Y-159200000D03*
D26*
X231850000Y-354849999D03*
X106000000Y-217110000D03*
D27*
X262500000Y-383600000D03*
X200900000Y-239100000D03*
X332600000Y-240500000D03*
X361000000Y-197900000D03*
X262500000Y-230500000D03*
X319600000Y-243700000D03*
X128700000Y-187600000D03*
X444100000Y-244400000D03*
X349200000Y-207000000D03*
X424700000Y-292900000D03*
X66700000Y-248400000D03*
X284600000Y-211400000D03*
X464600000Y-251600000D03*
D26*
X66300000Y-230150000D03*
D27*
X232900000Y-202800000D03*
X460400000Y-356500000D03*
X454800000Y-220400000D03*
X279900000Y-236000000D03*
X332900000Y-244000000D03*
X326500000Y-244100000D03*
X95600000Y-244900000D03*
X269000000Y-332500000D03*
X179300000Y-356200000D03*
X185400000Y-259300000D03*
X465900000Y-275400000D03*
X89800000Y-192400000D03*
X436900000Y-228900000D03*
X200900000Y-227100000D03*
X454700000Y-205900000D03*
X290700000Y-239500000D03*
X296600000Y-206700000D03*
X113200000Y-147100000D03*
X438500000Y-239800000D03*
X65300000Y-172600000D03*
X175900000Y-199900000D03*
X117700000Y-205800000D03*
X236000000Y-213200000D03*
X136100000Y-239800000D03*
X217700000Y-244000000D03*
X397700000Y-227900000D03*
X89400000Y-317200000D03*
X294600000Y-189700000D03*
X487100000Y-301900000D03*
X166200000Y-241400000D03*
X285000000Y-199100000D03*
X489400000Y-320500000D03*
D26*
X77300000Y-201395000D03*
D27*
X111900000Y-275500000D03*
X355100000Y-243800000D03*
X239100000Y-274300000D03*
X227100000Y-338600000D03*
X418100000Y-234700000D03*
X330500000Y-244000000D03*
X183000000Y-240300000D03*
X406800000Y-321300000D03*
X85300000Y-270900000D03*
X87300000Y-247000000D03*
X487300000Y-247200000D03*
X406900000Y-198300000D03*
X495200000Y-229600000D03*
X303700000Y-198900000D03*
X162600000Y-201100000D03*
X64000000Y-204400000D03*
X141300000Y-254300000D03*
X404700000Y-231100000D03*
D26*
X214900000Y-246550000D03*
X248950000Y-246650000D03*
D27*
X179900000Y-336300000D03*
X74200000Y-204500000D03*
X486800000Y-234700000D03*
X387700000Y-243900000D03*
X232400000Y-222900000D03*
X480300000Y-253600000D03*
X335500000Y-372900000D03*
X122300000Y-239300000D03*
X469100000Y-311100000D03*
X85400000Y-263900000D03*
X459300000Y-230100000D03*
X186800000Y-254000000D03*
X117000000Y-243300000D03*
X404200000Y-253800000D03*
D26*
X89450000Y-213400000D03*
D27*
X364200000Y-235300000D03*
X222700000Y-245000000D03*
X308900000Y-325900000D03*
X76100000Y-249800000D03*
X85800000Y-244600000D03*
D26*
X231650000Y-358680000D03*
D27*
X218300000Y-218700000D03*
X90000000Y-267500000D03*
X422000000Y-327100000D03*
X284300000Y-308300000D03*
X279100000Y-190400000D03*
X105100000Y-193800000D03*
X413700000Y-207700000D03*
X82200000Y-267600000D03*
D26*
X259900000Y-249350000D03*
D27*
X409900000Y-268700000D03*
X95400000Y-258600000D03*
X96100000Y-275000000D03*
X392700000Y-190300000D03*
X373400000Y-198800000D03*
X113800000Y-276900000D03*
X311800000Y-242000000D03*
X304600000Y-301500000D03*
X218600000Y-210200000D03*
D26*
X76187800Y-201470000D03*
X266250000Y-254800000D03*
D27*
X185000000Y-236100000D03*
X475000000Y-232900000D03*
X422200000Y-198900000D03*
X197800000Y-247100000D03*
X141500000Y-251000000D03*
D26*
X101664765Y-159300000D03*
D27*
X499700000Y-245800000D03*
X162500000Y-253800000D03*
X344300000Y-189600000D03*
X213200000Y-222400000D03*
X232600000Y-229000000D03*
X218900000Y-228200000D03*
X75600000Y-172400000D03*
X63500000Y-328000000D03*
D26*
X243883600Y-347550000D03*
X251200000Y-246550000D03*
D27*
X273800000Y-230200000D03*
D26*
X110291500Y-177601800D03*
D27*
X321800000Y-362800000D03*
X398700000Y-237900000D03*
D26*
X100149765Y-160550000D03*
D27*
X245400000Y-205500000D03*
X384600000Y-304600000D03*
X270700000Y-211000000D03*
X220700000Y-320700000D03*
X193600000Y-232200000D03*
X74200000Y-248200000D03*
D26*
X497050000Y-250100000D03*
D27*
X147500000Y-239600000D03*
D26*
X85799765Y-168150000D03*
D27*
X445200000Y-345800000D03*
X367000000Y-198000000D03*
X102400000Y-224600000D03*
X250500000Y-225300000D03*
X257100000Y-243900000D03*
X465200000Y-230100000D03*
X227200000Y-227900000D03*
X310500000Y-248100000D03*
X106200000Y-239700000D03*
X234200000Y-201900000D03*
X370300000Y-357000000D03*
X488700000Y-296100000D03*
X491600000Y-280600000D03*
X423900000Y-241700000D03*
X195000000Y-252300000D03*
X153400000Y-269900000D03*
X434600000Y-245300000D03*
X142400000Y-200600000D03*
X125300000Y-250800000D03*
X418300000Y-147400000D03*
X424100000Y-257200000D03*
D26*
X415400000Y-317900000D03*
D27*
X227900000Y-264000000D03*
X213400000Y-213100000D03*
X91000000Y-246400000D03*
X374700000Y-317800000D03*
D26*
X100550000Y-221060000D03*
D27*
X74800000Y-180500000D03*
D26*
X484450000Y-244250000D03*
D27*
X107100000Y-212900000D03*
X434800000Y-334300000D03*
X234900000Y-383200000D03*
X142400000Y-193300000D03*
X240200000Y-224600000D03*
X270800000Y-293000000D03*
X267100000Y-381900000D03*
D26*
X502180002Y-242099993D03*
D27*
X306500000Y-248100000D03*
X99200000Y-175700000D03*
X417200000Y-327800000D03*
X168500000Y-190700000D03*
X110800000Y-194100000D03*
X285300000Y-207000000D03*
X187800000Y-249600000D03*
X240500000Y-236300000D03*
X159700000Y-219900000D03*
X84100000Y-255200000D03*
X79500000Y-182600000D03*
X82600000Y-327700000D03*
X291500000Y-190000000D03*
X454900000Y-244100000D03*
X505200000Y-276700000D03*
D26*
X243880000Y-341550000D03*
D27*
X404400000Y-291200000D03*
X252100000Y-230600000D03*
X208600000Y-222300000D03*
X277900000Y-256000000D03*
X306700000Y-365200000D03*
X100700000Y-181700000D03*
X180300000Y-221200000D03*
X249900000Y-194000000D03*
D26*
X492750000Y-241007500D03*
X73867500Y-211547500D03*
D27*
X313200000Y-207400000D03*
X460700000Y-240100000D03*
D26*
X221350000Y-257950000D03*
D27*
X206100000Y-391400000D03*
D26*
X249300000Y-254900000D03*
X266300000Y-250000000D03*
D27*
X116900000Y-272000000D03*
X399100000Y-246700000D03*
X69700000Y-182200000D03*
X80400000Y-233800000D03*
X60200000Y-274900000D03*
X321000000Y-198700000D03*
X449700000Y-329000000D03*
X296000000Y-251600000D03*
X345700000Y-295100000D03*
X408200000Y-219800000D03*
X113000000Y-152700000D03*
X250400000Y-347700000D03*
X427300000Y-230900000D03*
X158100000Y-272500000D03*
D26*
X413900000Y-243500000D03*
D27*
X447700000Y-236900000D03*
X414200000Y-190900000D03*
X309400000Y-312700000D03*
X250200000Y-235900000D03*
X55100000Y-204000000D03*
X373500000Y-217200000D03*
X227000000Y-212400000D03*
X409800000Y-264400000D03*
X293300000Y-199000000D03*
X195400000Y-258800000D03*
X151300000Y-232900000D03*
X139500000Y-243900000D03*
X449800000Y-213800000D03*
X190800000Y-236400000D03*
X412900000Y-228700000D03*
X289200000Y-251200000D03*
X285900000Y-246700000D03*
D26*
X501200001Y-249234992D03*
D27*
X109400000Y-245300000D03*
X236100000Y-241700000D03*
X350100000Y-315000000D03*
X410000000Y-318300000D03*
X56100000Y-335100000D03*
X326400000Y-207300000D03*
X96600000Y-254500000D03*
X262100000Y-236500000D03*
X499500000Y-236100000D03*
D26*
X238750000Y-339370000D03*
D27*
X504900000Y-289300000D03*
X310300000Y-259000000D03*
X325500000Y-189600000D03*
X161900000Y-195900000D03*
X148800000Y-253700000D03*
X246000000Y-337200000D03*
X483500000Y-309100000D03*
X467800000Y-241600000D03*
X75400000Y-197000000D03*
X281500000Y-199100000D03*
X91900000Y-181000000D03*
X61600000Y-230900000D03*
X92500000Y-228500000D03*
X105100000Y-244100000D03*
D26*
X216250000Y-257700000D03*
D27*
X211400000Y-351600000D03*
D26*
X427450000Y-244250000D03*
D27*
X293700000Y-370300000D03*
X78500000Y-186700000D03*
X130400000Y-232200000D03*
X352800000Y-311400000D03*
X107700000Y-185200000D03*
D26*
X415400000Y-320800000D03*
D27*
X157600000Y-254200000D03*
X450900000Y-310000000D03*
X443800000Y-248500000D03*
X281200000Y-251800000D03*
X90500000Y-196000000D03*
X489700000Y-240000000D03*
X419100000Y-202400000D03*
X393100000Y-256500000D03*
X490600000Y-364600000D03*
X284000000Y-241300000D03*
D26*
X81900000Y-251274999D03*
D27*
X91900000Y-255500000D03*
X114500000Y-291900000D03*
X282800000Y-218200000D03*
X315000000Y-198600000D03*
X225900000Y-380600000D03*
D26*
X252650000Y-266410000D03*
X66437500Y-190850000D03*
D27*
X410200000Y-276400000D03*
X288600000Y-326000000D03*
X144800000Y-263800000D03*
X71600000Y-190700000D03*
X428900000Y-276500000D03*
D26*
X224600000Y-249350000D03*
X225200000Y-340970000D03*
D27*
X472700000Y-280200000D03*
X216100000Y-194300000D03*
X423600000Y-254600000D03*
X275500000Y-259400000D03*
X497500000Y-273100000D03*
X236000000Y-222100000D03*
X159900000Y-275300000D03*
X336400000Y-244000000D03*
X218300000Y-235900000D03*
X67600000Y-219200000D03*
X87100000Y-187000000D03*
X180600000Y-261000000D03*
X192200000Y-251300000D03*
X244800000Y-381500000D03*
X327500000Y-198400000D03*
X307900000Y-190000000D03*
X280200000Y-243600000D03*
X151700000Y-276200000D03*
D26*
X150170000Y-205850000D03*
D27*
X100900000Y-243900000D03*
X201100000Y-246100000D03*
X298400000Y-238700000D03*
X289700000Y-265700000D03*
X391700000Y-241400000D03*
X365000000Y-297100000D03*
X138100000Y-209600000D03*
D26*
X95400000Y-218360000D03*
D27*
X213000000Y-242500000D03*
D26*
X213000000Y-257650000D03*
D27*
X368500000Y-247700000D03*
X223400000Y-201200000D03*
X144100000Y-244400000D03*
X461900000Y-251800000D03*
X317400000Y-207300000D03*
X424700000Y-251500000D03*
X344900000Y-310500000D03*
X202500000Y-206500000D03*
X59200000Y-205600000D03*
X108700000Y-230900000D03*
X227000000Y-243600000D03*
X380100000Y-247700000D03*
X219700000Y-383800000D03*
D26*
X217300000Y-246550000D03*
D27*
X349600000Y-243900000D03*
X361200000Y-247500000D03*
X447000000Y-296900000D03*
X378200000Y-207400000D03*
D26*
X97820000Y-217160000D03*
D27*
X493000000Y-253400000D03*
D26*
X243850000Y-254800000D03*
D27*
X425700000Y-309200000D03*
X417600000Y-251400000D03*
X293900000Y-229500000D03*
X400500000Y-321400000D03*
X447400000Y-318300000D03*
X54900000Y-312300000D03*
X256500000Y-358000000D03*
X470900000Y-253800000D03*
X221800000Y-351200000D03*
X326500000Y-310900000D03*
X250600000Y-384800000D03*
X91000000Y-206900000D03*
X419200000Y-307400000D03*
X449500000Y-244200000D03*
X74600000Y-233000000D03*
X405000000Y-216000000D03*
X308100000Y-238300000D03*
X410000000Y-259400000D03*
X397500000Y-233800000D03*
X246500000Y-353300000D03*
X406600000Y-311800000D03*
X480800000Y-323100000D03*
X466900000Y-352700000D03*
X275600000Y-392300000D03*
X64700000Y-256800000D03*
X431200000Y-328300000D03*
D26*
X409350000Y-243500000D03*
D27*
X344500000Y-322300000D03*
X402500000Y-274700000D03*
X352600000Y-216800000D03*
X115800000Y-232600000D03*
X466200000Y-253500000D03*
X220900000Y-273500000D03*
X298200000Y-199000000D03*
X149300000Y-244600000D03*
X244400000Y-370100000D03*
X223000000Y-313200000D03*
X448900000Y-277200000D03*
X454500000Y-250700000D03*
X226600000Y-217600000D03*
D26*
X494100001Y-246839993D03*
D27*
X223100000Y-208000000D03*
X307300000Y-207400000D03*
X259500000Y-226000000D03*
X244900000Y-361500000D03*
X202300000Y-267500000D03*
D26*
X70400000Y-197400000D03*
D27*
X260200000Y-201900000D03*
X492200000Y-261700000D03*
X385300000Y-189900000D03*
X238800000Y-388900000D03*
D26*
X422050000Y-235350000D03*
D27*
X62800000Y-213000000D03*
X188700000Y-232600000D03*
D26*
X418350000Y-243400000D03*
D27*
X208700000Y-229200000D03*
X192100000Y-270300000D03*
X279800000Y-230300000D03*
X55300000Y-180200000D03*
D26*
X229600000Y-254750000D03*
D27*
X69200000Y-204600000D03*
X249500000Y-313000000D03*
X344500000Y-247400000D03*
X55300000Y-189500000D03*
X283000000Y-226300000D03*
X413900000Y-224400000D03*
X147600000Y-219900000D03*
X398400000Y-370000000D03*
X435300000Y-355500000D03*
X61300000Y-240100000D03*
X333500000Y-247500000D03*
X485400000Y-343700000D03*
X396300000Y-241700000D03*
X120300000Y-337900000D03*
X204800000Y-243600000D03*
X243300000Y-201400000D03*
X85600000Y-341800000D03*
D26*
X84500000Y-205095000D03*
D27*
X132800000Y-204900000D03*
D26*
X263450000Y-257550000D03*
D27*
X200900000Y-261600000D03*
X431300000Y-361900000D03*
X429800000Y-233100000D03*
X460800000Y-245700000D03*
X237900000Y-230700000D03*
D26*
X232520000Y-353500000D03*
D27*
X200700000Y-232300000D03*
X179600000Y-236400000D03*
X89900000Y-181100000D03*
X454900000Y-228100000D03*
X453800000Y-318200000D03*
D26*
X78262500Y-222750000D03*
D27*
X425200000Y-370600000D03*
X446400000Y-245000000D03*
X325600000Y-211100000D03*
X196800000Y-244400000D03*
X203800000Y-209800000D03*
X195800000Y-278300000D03*
X452200000Y-198400000D03*
X263100000Y-207200000D03*
X102500000Y-183400000D03*
X379000000Y-245400000D03*
X160100000Y-240000000D03*
X173300000Y-208200000D03*
X167800000Y-231800000D03*
X292400000Y-248300000D03*
X226900000Y-363500000D03*
D26*
X142300000Y-205660000D03*
D27*
X440900000Y-198700000D03*
D26*
X412400000Y-243500000D03*
D27*
X441700000Y-229200000D03*
X90700000Y-278900000D03*
X372700000Y-189500000D03*
X141400000Y-239700000D03*
X181100000Y-266900000D03*
D26*
X421850000Y-322950000D03*
X251650000Y-266410000D03*
X100149765Y-159600000D03*
D27*
X418400000Y-159500000D03*
X364300000Y-190800000D03*
X365100000Y-213700000D03*
X198700000Y-365600000D03*
X309600000Y-199000000D03*
X501200000Y-229700000D03*
X83200000Y-149000000D03*
X70500000Y-250300000D03*
X467300000Y-317400000D03*
X164600000Y-212800000D03*
X321500000Y-207300000D03*
X172100000Y-228500000D03*
X290100000Y-318300000D03*
X285300000Y-334400000D03*
X430900000Y-250000000D03*
X131100000Y-275800000D03*
D26*
X82650000Y-205045000D03*
D27*
X485300000Y-250400000D03*
X303400000Y-235300000D03*
X105400000Y-227700000D03*
X496100000Y-235700000D03*
X262700000Y-352700000D03*
X209600000Y-194500000D03*
X222900000Y-224300000D03*
D26*
X507200002Y-243414992D03*
D27*
X462200000Y-330000000D03*
X68000000Y-234300000D03*
X69100000Y-248300000D03*
X274400000Y-266700000D03*
X293300000Y-235000000D03*
X449500000Y-239000000D03*
X377300000Y-190500000D03*
X341800000Y-236800000D03*
X483900000Y-229900000D03*
X320400000Y-189400000D03*
X415100000Y-254800000D03*
X353600000Y-207600000D03*
X494700000Y-338000000D03*
X449900000Y-219200000D03*
X316900000Y-190200000D03*
X174900000Y-254200000D03*
X434500000Y-299700000D03*
X255400000Y-207500000D03*
X248800000Y-274100000D03*
X291300000Y-284700000D03*
X78800000Y-196900000D03*
X257200000Y-194100000D03*
X213500000Y-218000000D03*
X162900000Y-339000000D03*
X480400000Y-239600000D03*
X317300000Y-241900000D03*
X331500000Y-213400000D03*
X174900000Y-250500000D03*
X85900000Y-181400000D03*
X91900000Y-244600000D03*
X210400000Y-199400000D03*
X419300000Y-362200000D03*
X283800000Y-233400000D03*
X218500000Y-240000000D03*
X161200000Y-348300000D03*
D26*
X257100000Y-257550000D03*
D27*
X113800000Y-239600000D03*
D26*
X66800000Y-198400000D03*
D27*
X466100000Y-346800000D03*
X285900000Y-255600000D03*
X234900000Y-235300000D03*
X232700000Y-209500000D03*
X227600000Y-315000000D03*
D26*
X65487500Y-185950000D03*
D27*
X155800000Y-190200000D03*
D26*
X75050000Y-201445000D03*
D27*
X372300000Y-286300000D03*
X478400000Y-230000000D03*
X405800000Y-211100000D03*
D26*
X92984765Y-160350000D03*
D27*
X398600000Y-280400000D03*
X65400000Y-183100000D03*
X393700000Y-312100000D03*
X131500000Y-253900000D03*
X289900000Y-335200000D03*
X79600000Y-174500000D03*
X390000000Y-247900000D03*
X395500000Y-207200000D03*
D26*
X232450000Y-249400000D03*
D27*
X88800000Y-306700000D03*
X111300000Y-239400000D03*
X395100000Y-212400000D03*
X261400000Y-210700000D03*
D26*
X83597300Y-205070000D03*
D27*
X350100000Y-240600000D03*
X69800000Y-176900000D03*
X383200000Y-370000000D03*
X413100000Y-327700000D03*
X490700000Y-244100000D03*
X217100000Y-271600000D03*
X476400000Y-253400000D03*
X58000000Y-291300000D03*
X204300000Y-237900000D03*
X434700000Y-254000000D03*
X428500000Y-251100000D03*
X57300000Y-261800000D03*
X208500000Y-242100000D03*
X223100000Y-229400000D03*
X249200000Y-302600000D03*
D26*
X104250000Y-212050000D03*
D27*
X331000000Y-198400000D03*
X291800000Y-258300000D03*
X90000000Y-147300000D03*
X164600000Y-232800000D03*
X249900000Y-240700000D03*
X235700000Y-194300000D03*
X232700000Y-243100000D03*
X370900000Y-257300000D03*
X313300000Y-214400000D03*
X241700000Y-296700000D03*
X140100000Y-356600000D03*
X149100000Y-250300000D03*
X293400000Y-255100000D03*
X231100000Y-326700000D03*
X504100000Y-339200000D03*
D26*
X492600000Y-246400000D03*
X157000000Y-203399000D03*
D27*
X193000000Y-194300000D03*
X243800000Y-230700000D03*
D26*
X244380000Y-342500000D03*
D27*
X129800000Y-239500000D03*
D26*
X243863600Y-343450000D03*
D27*
X111400000Y-271000000D03*
X365100000Y-294900000D03*
X126200000Y-263900000D03*
D26*
X421400000Y-320800000D03*
D27*
X469400000Y-230000000D03*
D26*
X406750000Y-244250000D03*
D27*
X376900000Y-198800000D03*
X116900000Y-316900000D03*
X87000000Y-239300000D03*
D26*
X244000000Y-246600000D03*
D27*
X110100000Y-254600000D03*
D26*
X68390000Y-212200000D03*
D27*
X242800000Y-328100000D03*
D26*
X207043201Y-257571765D03*
D27*
X247300000Y-320700000D03*
X135900000Y-192600000D03*
X174200000Y-371200000D03*
X488300000Y-272900000D03*
X134100000Y-191900000D03*
X458700000Y-252600000D03*
X434800000Y-202300000D03*
D26*
X229550000Y-257650000D03*
D27*
X440400000Y-254200000D03*
X472100000Y-240800000D03*
X418900000Y-166500000D03*
X447500000Y-335500000D03*
X323300000Y-247700000D03*
X198300000Y-251900000D03*
D26*
X238750000Y-353810000D03*
X226850000Y-246550000D03*
X198100000Y-240150000D03*
D27*
X93300000Y-271100000D03*
X447300000Y-229700000D03*
X443100000Y-322400000D03*
X169200000Y-243300000D03*
X260700000Y-267000000D03*
D26*
X237100000Y-246550000D03*
X224150000Y-254850000D03*
D27*
X348100000Y-247300000D03*
X72100000Y-255800000D03*
D26*
X475200000Y-243650000D03*
D27*
X55600000Y-239800000D03*
X292700000Y-242100000D03*
X345300000Y-300100000D03*
D26*
X230000000Y-246550000D03*
X483300000Y-243700000D03*
D27*
X153000000Y-263500000D03*
X240300000Y-230700000D03*
X381100000Y-198700000D03*
D26*
X506050001Y-249234992D03*
D27*
X384100000Y-207500000D03*
D26*
X76560000Y-206300000D03*
D27*
X371000000Y-198800000D03*
X85000000Y-293300000D03*
X218400000Y-215100000D03*
X419900000Y-172100000D03*
X380100000Y-238100000D03*
X381600000Y-234800000D03*
X103600000Y-250700000D03*
X317400000Y-237600000D03*
X454000000Y-368800000D03*
D26*
X103500000Y-210450000D03*
D27*
X419600000Y-268400000D03*
X166800000Y-244100000D03*
X501200000Y-297400000D03*
X281700000Y-238100000D03*
X246300000Y-315300000D03*
X355600000Y-198300000D03*
X239500000Y-360300000D03*
X253200000Y-353100000D03*
X424600000Y-279100000D03*
X283300000Y-189900000D03*
X364700000Y-311000000D03*
X359500000Y-207600000D03*
X265000000Y-225400000D03*
X298600000Y-242100000D03*
D26*
X261800000Y-249300000D03*
D27*
X376000000Y-321600000D03*
X410000000Y-305900000D03*
X337800000Y-207300000D03*
X150400000Y-197000000D03*
X208500000Y-219600000D03*
X185100000Y-194000000D03*
X75600000Y-269100000D03*
X451200000Y-249000000D03*
X236100000Y-207200000D03*
X434100000Y-251100000D03*
D26*
X424800000Y-246750000D03*
D27*
X203800000Y-217600000D03*
X226600000Y-223000000D03*
X148400000Y-193400000D03*
D26*
X408800000Y-234995000D03*
D27*
X124400000Y-204000000D03*
X174300000Y-264500000D03*
X450100000Y-224300000D03*
X175500000Y-357700000D03*
X197400000Y-223200000D03*
D26*
X107910000Y-218150000D03*
D27*
X263200000Y-371900000D03*
D26*
X222050000Y-249400000D03*
D27*
X339300000Y-198300000D03*
D26*
X236850000Y-338320000D03*
X241800000Y-246550000D03*
D27*
X230600000Y-267500000D03*
X150600000Y-271800000D03*
X171200000Y-277900000D03*
X268900000Y-244500000D03*
X355300000Y-190600000D03*
X401500000Y-198700000D03*
X67800000Y-201000000D03*
X190400000Y-241500000D03*
X222700000Y-240900000D03*
X473500000Y-230000000D03*
X81100000Y-228300000D03*
X311200000Y-358500000D03*
X490800000Y-236300000D03*
X266300000Y-314600000D03*
X125300000Y-231600000D03*
X309700000Y-207400000D03*
X319100000Y-247600000D03*
X449100000Y-290100000D03*
D26*
X152850000Y-211275000D03*
D27*
X257000000Y-230600000D03*
X79700000Y-264900000D03*
X366400000Y-243500000D03*
X279800000Y-207100000D03*
X198500000Y-225400000D03*
D26*
X94950000Y-212020000D03*
D27*
X131800000Y-250400000D03*
X71600000Y-194200000D03*
X192100000Y-212600000D03*
X278100000Y-247300000D03*
X441200000Y-237100000D03*
X448900000Y-256500000D03*
D26*
X96600000Y-219025000D03*
D27*
X85200000Y-187000000D03*
X289200000Y-199000000D03*
X400700000Y-314700000D03*
X274900000Y-207100000D03*
X91600000Y-233600000D03*
X440400000Y-367900000D03*
X270500000Y-352300000D03*
X105000000Y-171200000D03*
X496100000Y-241500000D03*
X206900000Y-382000000D03*
X176200000Y-258400000D03*
X78500000Y-255200000D03*
X417600000Y-355800000D03*
X90300000Y-275200000D03*
X393900000Y-217500000D03*
X97900000Y-234700000D03*
D26*
X209447375Y-246531403D03*
D27*
X486700000Y-253500000D03*
X128900000Y-243600000D03*
X57300000Y-300200000D03*
X155600000Y-244800000D03*
X485800000Y-256600000D03*
X75400000Y-193200000D03*
X292100000Y-212700000D03*
X325100000Y-198400000D03*
X407800000Y-190700000D03*
X123500000Y-184000000D03*
X248000000Y-230600000D03*
X449100000Y-208600000D03*
X435400000Y-198800000D03*
D26*
X255600000Y-257550000D03*
D27*
X400400000Y-253600000D03*
X166000000Y-266300000D03*
X131500000Y-263900000D03*
X457200000Y-244700000D03*
X400800000Y-243300000D03*
X220600000Y-389700000D03*
X228400000Y-201600000D03*
D26*
X68437500Y-185732500D03*
X237800000Y-339020000D03*
D27*
X135400000Y-195900000D03*
X389500000Y-207100000D03*
D26*
X238300000Y-346550000D03*
D27*
X266600000Y-207200000D03*
X175000000Y-224300000D03*
X197700000Y-214000000D03*
X230000000Y-194100000D03*
D26*
X93850000Y-159300000D03*
D27*
X122500000Y-188700000D03*
X112900000Y-159000000D03*
X118200000Y-239800000D03*
X367200000Y-370100000D03*
X216300000Y-268300000D03*
X272700000Y-195600000D03*
X505300000Y-254800000D03*
X433300000Y-228500000D03*
X102400000Y-238300000D03*
X288100000Y-237600000D03*
X385400000Y-256500000D03*
D26*
X506050001Y-238084992D03*
D27*
X366600000Y-238400000D03*
X442000000Y-202700000D03*
X174100000Y-236600000D03*
X422700000Y-337300000D03*
X204400000Y-229100000D03*
D26*
X225200000Y-246550000D03*
D27*
X444800000Y-239500000D03*
X238500000Y-268100000D03*
X363800000Y-361000000D03*
X461700000Y-230100000D03*
X389000000Y-236800000D03*
X299100000Y-379400000D03*
X84800000Y-259500000D03*
D26*
X212100000Y-246550000D03*
X230128327Y-348579800D03*
D27*
X302800000Y-210000000D03*
X331400000Y-278400000D03*
X418000000Y-144700000D03*
D26*
X251250000Y-254750000D03*
D27*
X449800000Y-353600000D03*
X448600000Y-274700000D03*
X251000000Y-201600000D03*
X84600000Y-236200000D03*
X437200000Y-248800000D03*
X311100000Y-320200000D03*
X418400000Y-254200000D03*
X330000000Y-322800000D03*
D26*
X239550000Y-246600000D03*
D27*
X262000000Y-362300000D03*
D26*
X407750000Y-234995000D03*
D27*
X295100000Y-242100000D03*
X86400000Y-210000000D03*
D26*
X92550000Y-162550000D03*
X255750000Y-246550000D03*
D27*
X344400000Y-212900000D03*
X442500000Y-310200000D03*
X372700000Y-207500000D03*
X78700000Y-260100000D03*
X454900000Y-224600000D03*
X392500000Y-228300000D03*
X363700000Y-207500000D03*
D26*
X480650000Y-249750000D03*
D27*
X367800000Y-207500000D03*
X207900000Y-330600000D03*
X417900000Y-259300000D03*
X416500000Y-219400000D03*
X63800000Y-201300000D03*
X156400000Y-232700000D03*
X304400000Y-327900000D03*
X380400000Y-256100000D03*
X212700000Y-236500000D03*
X55300000Y-232200000D03*
X349700000Y-198200000D03*
X428500000Y-254600000D03*
X434100000Y-309200000D03*
X480700000Y-311800000D03*
X375100000Y-311600000D03*
X155500000Y-240000000D03*
X264900000Y-240700000D03*
X376000000Y-294000000D03*
X353800000Y-247500000D03*
X231900000Y-390600000D03*
X343200000Y-206900000D03*
X454800000Y-216300000D03*
X268800000Y-343800000D03*
X454200000Y-281000000D03*
D26*
X415478270Y-246700000D03*
X264500000Y-249250000D03*
D27*
X505900000Y-266800000D03*
D26*
X425400000Y-234995000D03*
D27*
X418400000Y-154100000D03*
X227000000Y-236400000D03*
D26*
X160260000Y-201450000D03*
D27*
X312900000Y-280800000D03*
X229800000Y-289000000D03*
D26*
X180200000Y-203450000D03*
D27*
X186900000Y-363600000D03*
X449600000Y-227300000D03*
X218400000Y-223300000D03*
D26*
X149180000Y-201300000D03*
D27*
X167800000Y-254200000D03*
D26*
X416721730Y-246750000D03*
X85799765Y-164850000D03*
D27*
X444800000Y-227400000D03*
X176300000Y-275300000D03*
X472900000Y-368400000D03*
X340600000Y-243900000D03*
D26*
X503850000Y-250980000D03*
D27*
X57200000Y-218600000D03*
X409000000Y-230100000D03*
X127800000Y-201900000D03*
D26*
X473400000Y-243700000D03*
D27*
X114400000Y-300700000D03*
X339800000Y-362100000D03*
X94900000Y-252200000D03*
X242000000Y-242900000D03*
X117700000Y-250500000D03*
D26*
X87750000Y-213450000D03*
D27*
X141900000Y-211800000D03*
X483800000Y-321100000D03*
X76700000Y-174500000D03*
X291200000Y-207100000D03*
X225300000Y-357100000D03*
X390100000Y-198700000D03*
X154400000Y-192300000D03*
X360000000Y-357300000D03*
X208500000Y-227000000D03*
X456100000Y-253900000D03*
D26*
X482850000Y-247400000D03*
D27*
X271500000Y-222500000D03*
X430500000Y-198800000D03*
X248400000Y-281000000D03*
X502600000Y-321400000D03*
D26*
X507200002Y-245854992D03*
D27*
X204000000Y-225300000D03*
X446300000Y-254500000D03*
D26*
X258400000Y-257550000D03*
D27*
X248500000Y-268300000D03*
X386300000Y-311500000D03*
D26*
X69060000Y-195100000D03*
D27*
X417100000Y-228300000D03*
X252500000Y-371900000D03*
X164700000Y-190300000D03*
X361100000Y-370800000D03*
D26*
X419060000Y-280650000D03*
D27*
X138000000Y-263300000D03*
X248700000Y-391300000D03*
D26*
X96450000Y-216280000D03*
D27*
X91900000Y-241600000D03*
X253100000Y-337400000D03*
D26*
X410850000Y-243500000D03*
D27*
X332000000Y-257500000D03*
X229100000Y-293900000D03*
D26*
X193750000Y-226800000D03*
X273125000Y-244100000D03*
D27*
X489800000Y-230000000D03*
X336000000Y-189800000D03*
D26*
X418037500Y-277462500D03*
D27*
X226700000Y-207500000D03*
X97100000Y-249700000D03*
X420700000Y-191200000D03*
X216200000Y-227200000D03*
X405000000Y-278300000D03*
D26*
X65050000Y-214300000D03*
X253700000Y-246600000D03*
D27*
X390300000Y-256500000D03*
X209000000Y-214400000D03*
X451300000Y-254500000D03*
X229900000Y-299400000D03*
X406500000Y-328500000D03*
D26*
X483760000Y-234750000D03*
X219400000Y-246600000D03*
D27*
X86000000Y-178600000D03*
X412900000Y-198400000D03*
X468700000Y-295200000D03*
D26*
X469550000Y-243600000D03*
D27*
X290000000Y-232400000D03*
D26*
X492750000Y-244787500D03*
D27*
X454800000Y-211400000D03*
X222800000Y-218800000D03*
X329300000Y-247600000D03*
X145100000Y-232600000D03*
X55700000Y-324700000D03*
D26*
X463750000Y-244250000D03*
D27*
X208500000Y-235800000D03*
X235700000Y-227800000D03*
X283300000Y-258700000D03*
X344200000Y-198300000D03*
X198100000Y-219200000D03*
X85000000Y-231700000D03*
X90800000Y-263600000D03*
X244800000Y-268000000D03*
X110900000Y-232300000D03*
X416300000Y-198900000D03*
X117300000Y-253900000D03*
X423000000Y-203200000D03*
D26*
X75685000Y-213200000D03*
D27*
X126600000Y-239700000D03*
D26*
X495175002Y-245189991D03*
D27*
X331800000Y-318000000D03*
D26*
X88529000Y-213445000D03*
D27*
X456500000Y-236400000D03*
X140600000Y-197100000D03*
X499900000Y-284700000D03*
X196600000Y-217700000D03*
X222900000Y-235600000D03*
D26*
X64337500Y-195812500D03*
D27*
X139000000Y-232100000D03*
D26*
X65387500Y-195262500D03*
D27*
X113800000Y-191500000D03*
X355300000Y-362500000D03*
D26*
X228600000Y-246600000D03*
D27*
X302600000Y-206800000D03*
D26*
X494100001Y-242439992D03*
D27*
X103000000Y-180100000D03*
X122700000Y-243600000D03*
X179400000Y-253600000D03*
X275800000Y-250500000D03*
X409300000Y-281500000D03*
D26*
X426400000Y-234995000D03*
D27*
X348700000Y-357100000D03*
X132600000Y-272200000D03*
D26*
X229450000Y-347350000D03*
D27*
X423300000Y-268300000D03*
D26*
X266050000Y-257600000D03*
X496050001Y-238084992D03*
D27*
X132600000Y-232200000D03*
X299800000Y-248100000D03*
X61300000Y-282400000D03*
X177700000Y-239500000D03*
X454900000Y-230500000D03*
D26*
X414150000Y-312570000D03*
D27*
X140400000Y-201300000D03*
X338600000Y-247700000D03*
D26*
X207250000Y-246500000D03*
D27*
X302800000Y-369500000D03*
D26*
X234050000Y-356450001D03*
D27*
X387400000Y-295000000D03*
X274900000Y-345200000D03*
X74200000Y-217100000D03*
D26*
X150090000Y-201300000D03*
D27*
X448100000Y-251100000D03*
X375300000Y-247300000D03*
X440100000Y-244400000D03*
X160700000Y-251100000D03*
X218200000Y-341600000D03*
D26*
X260650000Y-257550000D03*
D27*
X386200000Y-241900000D03*
X385200000Y-198700000D03*
X249200000Y-243400000D03*
X329300000Y-356800000D03*
X395600000Y-198600000D03*
X128800000Y-215100000D03*
X486700000Y-307600000D03*
X248100000Y-344000000D03*
X162400000Y-243800000D03*
X111400000Y-214600000D03*
X112400000Y-263600000D03*
X455400000Y-240200000D03*
X125700000Y-254800000D03*
D26*
X69762500Y-230175000D03*
D27*
X196300000Y-266900000D03*
X70100000Y-167500000D03*
X72600000Y-201500000D03*
D26*
X245800000Y-254850000D03*
D27*
X244600000Y-235900000D03*
X335200000Y-198300000D03*
D26*
X501200001Y-238084992D03*
D27*
X373300000Y-315200000D03*
X403600000Y-286600000D03*
X197100000Y-227400000D03*
X220500000Y-194600000D03*
X174400000Y-189700000D03*
D26*
X182950000Y-226800000D03*
D27*
X213300000Y-207900000D03*
X102500000Y-191500000D03*
D26*
X72062500Y-225562500D03*
D27*
X238600000Y-336000000D03*
X352200000Y-280600000D03*
X154500000Y-199700000D03*
X70200000Y-171200000D03*
X182000000Y-218200000D03*
X461300000Y-291000000D03*
X140500000Y-315900000D03*
X422300000Y-311100000D03*
X426400000Y-198800000D03*
X73000000Y-219900000D03*
D26*
X106160000Y-214295000D03*
D27*
X331900000Y-207200000D03*
X214700000Y-284200000D03*
D26*
X470750000Y-243700000D03*
D27*
X491300000Y-251500000D03*
X119700000Y-232100000D03*
D26*
X90199765Y-157500000D03*
D27*
X299300000Y-189400000D03*
X306900000Y-242000000D03*
X393800000Y-238000000D03*
X440000000Y-250900000D03*
X67200000Y-175700000D03*
X232400000Y-216600000D03*
X92000000Y-236900000D03*
X119100000Y-275000000D03*
X454800000Y-200000000D03*
X506100000Y-235800000D03*
X357100000Y-211400000D03*
X91900000Y-218000000D03*
X118600000Y-198800000D03*
X98800000Y-253100000D03*
X418700000Y-198900000D03*
X55300000Y-199800000D03*
X429600000Y-203100000D03*
X201800000Y-346700000D03*
X115100000Y-182000000D03*
X144500000Y-211600000D03*
D26*
X105050000Y-219555000D03*
D27*
X213000000Y-225900000D03*
X255200000Y-269500000D03*
X209000000Y-373400000D03*
X255800000Y-236200000D03*
X187900000Y-214000000D03*
X489200000Y-356100000D03*
D26*
X65425000Y-222000000D03*
D27*
X344700000Y-243900000D03*
D26*
X96037265Y-156137500D03*
D27*
X213900000Y-201600000D03*
X268400000Y-230600000D03*
D26*
X257750000Y-246600000D03*
D27*
X421400000Y-345800000D03*
X152200000Y-218600000D03*
X352400000Y-257700000D03*
X273700000Y-236500000D03*
X377200000Y-280800000D03*
X184900000Y-345400000D03*
X102700000Y-200100000D03*
X324700000Y-297500000D03*
X55400000Y-208900000D03*
X197900000Y-260600000D03*
X266300000Y-353500000D03*
X239800000Y-194200000D03*
D26*
X75700000Y-239370000D03*
G04 #@! TO.N,+3V3*
X421441718Y-295400000D03*
X221150000Y-344950000D03*
X232100000Y-347120000D03*
X221874265Y-349224265D03*
X234200000Y-342850000D03*
X73350000Y-183750000D03*
X185450000Y-245100000D03*
X63993999Y-206324000D03*
X192775000Y-235825000D03*
X238700000Y-343000000D03*
X196250000Y-231620000D03*
X242100000Y-355462500D03*
X238750000Y-352850000D03*
X236001000Y-333100000D03*
X421450000Y-301450000D03*
X232571611Y-343700000D03*
X241900000Y-333150000D03*
X177850000Y-249700000D03*
X421441718Y-276200000D03*
X421450000Y-239250000D03*
D25*
G04 #@! TO.N,+5V*
X79800000Y-194700000D03*
D26*
X237650000Y-291900000D03*
D25*
X81800000Y-195600000D03*
D27*
X231400000Y-291800000D03*
D25*
X80400000Y-194100000D03*
D27*
X238700000Y-292050000D03*
X419450000Y-286950000D03*
X82200000Y-264900000D03*
D25*
X75100000Y-241100000D03*
D27*
X172050000Y-272100000D03*
X420500000Y-286800000D03*
D26*
X420450000Y-283450000D03*
X420500000Y-288000000D03*
D25*
X77300000Y-240700000D03*
D27*
X172050000Y-271100000D03*
X81500000Y-264100000D03*
D25*
X80300000Y-195400000D03*
X75800000Y-240500000D03*
X79100000Y-195200000D03*
X81000000Y-194800000D03*
D27*
X236700000Y-291900000D03*
D26*
X81150000Y-196200000D03*
X172050000Y-273950000D03*
X232550000Y-291800000D03*
X420500000Y-292100000D03*
D27*
X240100000Y-292050000D03*
D25*
X80500000Y-196700000D03*
D26*
X81600000Y-207800000D03*
D27*
X80800000Y-263400000D03*
D26*
X75650000Y-241512500D03*
D27*
X229100000Y-291800000D03*
D26*
X189350000Y-228400000D03*
D25*
X76200000Y-241900000D03*
D27*
X230100000Y-291800000D03*
X83050000Y-265750000D03*
D25*
X79800000Y-196000000D03*
D27*
X420500000Y-285800000D03*
D25*
X76800000Y-241300000D03*
X76400000Y-240700000D03*
D26*
X420500000Y-301500000D03*
D27*
X172050000Y-273100000D03*
D26*
G04 #@! TO.N,/HDMI/TMDS_D2-*
X82597500Y-220400000D03*
X68812500Y-228300000D03*
G04 #@! TO.N,/HDMI/TMDS_D1+*
X73937500Y-226512500D03*
X81000000Y-224960000D03*
G04 #@! TO.N,/HDMI/TMDS_D1-*
X83457500Y-223250000D03*
X73937500Y-224612500D03*
G04 #@! TO.N,/HDMI/TMDS_D0+*
X81150000Y-218640000D03*
G04 #@! TO.N,/HDMI/TMDS_D0-*
X79737500Y-218350000D03*
G04 #@! TO.N,/HDMI/TMDS_CK+*
X67250000Y-228275000D03*
X83457500Y-221350000D03*
G04 #@! TO.N,/Charging IC/VREF*
X101865000Y-218435000D03*
X99650000Y-220450000D03*
G04 #@! TO.N,Net-(D111-K)*
X108100000Y-208450000D03*
X100100000Y-210600000D03*
G04 #@! TO.N,/Charging IC/SRP*
X108192460Y-210650000D03*
X107300000Y-203950000D03*
G04 #@! TO.N,Net-(U7-FB)*
X149160000Y-212190000D03*
X147419261Y-204678269D03*
G04 #@! TO.N,VCC_SIM*
X490630746Y-247019254D03*
X492400000Y-247980000D03*
G04 #@! TO.N,/VRM/voltIn*
X145500000Y-207650000D03*
X96074765Y-163950000D03*
D27*
X133400000Y-197800000D03*
X94800000Y-165720000D03*
X129500000Y-197500000D03*
X130450000Y-196700000D03*
X97300000Y-164450000D03*
X132400000Y-198700000D03*
X97300000Y-165720000D03*
X94700000Y-164450000D03*
X96074765Y-165900000D03*
X131400000Y-199600000D03*
X130400000Y-198500000D03*
X97100000Y-162800000D03*
X132300000Y-196600000D03*
D26*
X147885810Y-202359550D03*
D27*
X131300000Y-195800000D03*
X131300000Y-197600000D03*
D26*
G04 #@! TO.N,/BMS/SRP*
X132483500Y-157800000D03*
X132483500Y-160778200D03*
G04 #@! TO.N,/HDMI/TMDS_CK-*
X65350000Y-228275000D03*
X82597500Y-222300000D03*
G04 #@! TO.N,5V_HDMI_VCC*
X64450000Y-208100000D03*
X75600000Y-206300000D03*
G04 #@! TO.N,Net-(D1-A)*
X95000000Y-267000000D03*
G04 #@! TO.N,/Keyboard/Row_0*
X236900000Y-279850000D03*
X232950000Y-279900000D03*
X225550000Y-344150000D03*
G04 #@! TO.N,Net-(D2-A)*
X113950000Y-266950000D03*
G04 #@! TO.N,Net-(D3-A)*
X133500000Y-266150000D03*
G04 #@! TO.N,Net-(D4-A)*
X154000000Y-266250000D03*
G04 #@! TO.N,Net-(D5-A)*
X174250000Y-268100000D03*
G04 #@! TO.N,Net-(D6-A)*
X195350000Y-272800000D03*
G04 #@! TO.N,Net-(D7-A)*
X215250000Y-277900000D03*
G04 #@! TO.N,Net-(D8-A)*
X254050000Y-284450000D03*
G04 #@! TO.N,Net-(D9-A)*
X273300000Y-276100000D03*
G04 #@! TO.N,Net-(D10-A)*
X293150000Y-270300000D03*
G04 #@! TO.N,Net-(D11-A)*
X313600000Y-266700000D03*
G04 #@! TO.N,Net-(D12-A)*
X333200000Y-266600000D03*
G04 #@! TO.N,Net-(D13-A)*
X352350000Y-266850000D03*
G04 #@! TO.N,Net-(D14-A)*
X95150000Y-286100000D03*
G04 #@! TO.N,/Keyboard/Row_1*
X232600000Y-303850000D03*
X227100000Y-303850000D03*
X224600000Y-344550000D03*
X237150000Y-303750000D03*
G04 #@! TO.N,Net-(D15-A)*
X114250000Y-286100000D03*
G04 #@! TO.N,Net-(D16-A)*
X133250000Y-285550000D03*
G04 #@! TO.N,Net-(D17-A)*
X152600000Y-285500000D03*
G04 #@! TO.N,Net-(D18-A)*
X172900000Y-287550000D03*
G04 #@! TO.N,Net-(D19-A)*
X192150000Y-292600000D03*
G04 #@! TO.N,Net-(D20-A)*
X211350000Y-298900000D03*
G04 #@! TO.N,Net-(D21-A)*
X254500000Y-306250000D03*
G04 #@! TO.N,Net-(D22-A)*
X273600000Y-297650000D03*
G04 #@! TO.N,Net-(D23-A)*
X292650000Y-291450000D03*
G04 #@! TO.N,Net-(D24-A)*
X312400000Y-287150000D03*
G04 #@! TO.N,Net-(D25-A)*
X332250000Y-285650000D03*
G04 #@! TO.N,Net-(D26-A)*
X351300000Y-285850000D03*
G04 #@! TO.N,Net-(D27-A)*
X94150000Y-305100000D03*
G04 #@! TO.N,/Keyboard/Row_2*
X237625350Y-344449798D03*
X250150000Y-326700000D03*
X241450000Y-319050000D03*
X234900000Y-319050000D03*
G04 #@! TO.N,Net-(D28-A)*
X118350000Y-305150000D03*
G04 #@! TO.N,Net-(D29-A)*
X138650000Y-304700000D03*
G04 #@! TO.N,Net-(D30-A)*
X158750000Y-305450000D03*
G04 #@! TO.N,Net-(D31-A)*
X178200000Y-308850000D03*
G04 #@! TO.N,Net-(D32-A)*
X197750000Y-314500000D03*
G04 #@! TO.N,Net-(D33-A)*
X251300000Y-330500000D03*
G04 #@! TO.N,Net-(D34-A)*
X269200000Y-320750000D03*
G04 #@! TO.N,Net-(D35-A)*
X287650000Y-313000000D03*
G04 #@! TO.N,Net-(D36-A)*
X307450000Y-308150000D03*
G04 #@! TO.N,Net-(D37-A)*
X327600000Y-305400000D03*
G04 #@! TO.N,Net-(D38-A)*
X346750000Y-305100000D03*
G04 #@! TO.N,Net-(D39-A)*
X365900000Y-304950000D03*
G04 #@! TO.N,/Keyboard/Row_3*
X223500000Y-334150000D03*
X223400000Y-345250000D03*
X234950000Y-334150000D03*
X242050000Y-334150000D03*
G04 #@! TO.N,Net-(D40-A)*
X94550000Y-324100000D03*
G04 #@! TO.N,Net-(D41-A)*
X120800000Y-324150000D03*
G04 #@! TO.N,Net-(D42-A)*
X140600000Y-323850000D03*
G04 #@! TO.N,Net-(D43-A)*
X160900000Y-325450000D03*
G04 #@! TO.N,Net-(D44-A)*
X180400000Y-329400000D03*
G04 #@! TO.N,Net-(D45-A)*
X199450000Y-336200000D03*
G04 #@! TO.N,Net-(D46-A)*
X256550000Y-350150000D03*
G04 #@! TO.N,Net-(D47-A)*
X273900000Y-340700000D03*
G04 #@! TO.N,Net-(D48-A)*
X292050000Y-332300000D03*
G04 #@! TO.N,Net-(D49-A)*
X312000000Y-326800000D03*
G04 #@! TO.N,Net-(D50-A)*
X331850000Y-324500000D03*
G04 #@! TO.N,Net-(D51-A)*
X351500000Y-324150000D03*
G04 #@! TO.N,Net-(D52-A)*
X382450000Y-324200000D03*
G04 #@! TO.N,/Keyboard/Row_4*
X197150000Y-359100000D03*
X206700000Y-345400000D03*
G04 #@! TO.N,Net-(D53-A)*
X93050000Y-343100000D03*
G04 #@! TO.N,Net-(D54-A)*
X124050000Y-343250000D03*
G04 #@! TO.N,Net-(D55-A)*
X144300000Y-343200000D03*
G04 #@! TO.N,Net-(D56-A)*
X163900000Y-346750000D03*
G04 #@! TO.N,Net-(D57-A)*
X183800000Y-352100000D03*
G04 #@! TO.N,Net-(D58-A)*
X202650000Y-360000000D03*
G04 #@! TO.N,Net-(D59-A)*
X264950000Y-368200000D03*
G04 #@! TO.N,Net-(D60-A)*
X282800000Y-357800000D03*
G04 #@! TO.N,Net-(D61-A)*
X301700000Y-350050000D03*
G04 #@! TO.N,Net-(D62-A)*
X321250000Y-345150000D03*
G04 #@! TO.N,Net-(D63-A)*
X340900000Y-343700000D03*
G04 #@! TO.N,Net-(D64-A)*
X372950000Y-343350000D03*
G04 #@! TO.N,Net-(D65-A)*
X404050000Y-343450000D03*
G04 #@! TO.N,/Keyboard/Row_5*
X206550000Y-346250000D03*
X178150000Y-379400000D03*
G04 #@! TO.N,Net-(D66-A)*
X68000000Y-284450000D03*
G04 #@! TO.N,Net-(D67-A)*
X63300000Y-303000000D03*
G04 #@! TO.N,Net-(D68-A)*
X59450000Y-322550000D03*
G04 #@! TO.N,Net-(D69-A)*
X57100000Y-341500000D03*
G04 #@! TO.N,Net-(D70-A)*
X59750000Y-363600000D03*
G04 #@! TO.N,Net-(D71-A)*
X85550000Y-364050000D03*
G04 #@! TO.N,Net-(D72-A)*
X111800000Y-364000000D03*
G04 #@! TO.N,Net-(D73-A)*
X150700000Y-367000000D03*
G04 #@! TO.N,Net-(D74-A)*
X179100000Y-378600000D03*
G04 #@! TO.N,Net-(D75-A)*
X281650000Y-386000000D03*
G04 #@! TO.N,Net-(D76-A)*
X306200000Y-375800000D03*
G04 #@! TO.N,Net-(D77-A)*
X370800000Y-364200000D03*
G04 #@! TO.N,Net-(D78-A)*
X399100000Y-364100000D03*
G04 #@! TO.N,Net-(D79-A)*
X439100000Y-361700000D03*
G04 #@! TO.N,/Keyboard/Row_6*
X427450000Y-339500000D03*
X437100000Y-360750000D03*
X426900000Y-343050000D03*
X428550000Y-326050000D03*
X428900000Y-306950000D03*
X234200000Y-378950000D03*
X428900000Y-320800000D03*
X465150000Y-349350000D03*
X467550000Y-359250000D03*
X427650000Y-351300000D03*
X465150000Y-342100000D03*
X236199798Y-346000000D03*
G04 #@! TO.N,Net-(D80-A)*
X467650000Y-361950000D03*
G04 #@! TO.N,Net-(D81-A)*
X486450000Y-352450000D03*
G04 #@! TO.N,Net-(D82-A)*
X467400000Y-343050000D03*
G04 #@! TO.N,Net-(D83-A)*
X448700000Y-343150000D03*
G04 #@! TO.N,Net-(D84-A)*
X429600000Y-343200000D03*
G04 #@! TO.N,Net-(D85-A)*
X429600000Y-324150000D03*
G04 #@! TO.N,Net-(D86-A)*
X448550000Y-323900000D03*
G04 #@! TO.N,Net-(D87-A)*
X467350000Y-324050000D03*
G04 #@! TO.N,Net-(D88-A)*
X486750000Y-314350000D03*
G04 #@! TO.N,Net-(D89-A)*
X467650000Y-304900000D03*
G04 #@! TO.N,Net-(D90-A)*
X448800000Y-304950000D03*
G04 #@! TO.N,Net-(D91-A)*
X429800000Y-304900000D03*
G04 #@! TO.N,/Keyboard/Row_7*
X254250000Y-349050000D03*
X378350000Y-287050000D03*
X484450000Y-266750000D03*
X369250000Y-267600000D03*
X236100000Y-347500000D03*
X254700000Y-346050000D03*
X390350000Y-303200000D03*
X486750000Y-282100000D03*
X231350000Y-360800000D03*
G04 #@! TO.N,Net-(D92-A)*
X429150000Y-285100000D03*
G04 #@! TO.N,Net-(D93-A)*
X448250000Y-285250000D03*
G04 #@! TO.N,Net-(D94-A)*
X467350000Y-285100000D03*
G04 #@! TO.N,Net-(D95-A)*
X485950000Y-284950000D03*
G04 #@! TO.N,Net-(D96-A)*
X448550000Y-266050000D03*
G04 #@! TO.N,Net-(D97-A)*
X429600000Y-266100000D03*
G04 #@! TO.N,Net-(D98-A)*
X390600000Y-305200000D03*
G04 #@! TO.N,Net-(D99-A)*
X467350000Y-266100000D03*
G04 #@! TO.N,Net-(D100-A)*
X486200000Y-266000000D03*
G04 #@! TO.N,Net-(D101-A)*
X371000000Y-266900000D03*
G04 #@! TO.N,Net-(D102-A)*
X389750000Y-266900000D03*
G04 #@! TO.N,Net-(D103-A)*
X381100000Y-286850000D03*
G04 #@! TO.N,/HDMI/DDC_SCL*
X74540000Y-207300000D03*
X74800000Y-211400000D03*
G04 #@! TO.N,/Charging IC/Stat1*
X413700000Y-283500000D03*
X94050000Y-217450000D03*
X205150000Y-231700000D03*
X377800000Y-241300000D03*
X232550000Y-231250000D03*
X98003814Y-214953814D03*
G04 #@! TO.N,/Charging IC/Stat2*
X232550000Y-232150000D03*
X100546730Y-217250000D03*
X98850000Y-224650000D03*
X413700000Y-292500000D03*
X204600000Y-234450000D03*
X378950000Y-241399997D03*
G04 #@! TO.N,/Charging IC/\u002APG*
X413550000Y-301950000D03*
X378950000Y-242200000D03*
X98100000Y-225100000D03*
X99748515Y-217196553D03*
X232400000Y-232950000D03*
X205200000Y-235650000D03*
G04 #@! TO.N,/m.2_B_Key/SIM_DET*
X462300000Y-245433540D03*
X469250000Y-251800000D03*
X491450000Y-249000000D03*
X498850001Y-248909992D03*
G04 #@! TO.N,/HDMI/DDC_SDA*
X74540000Y-208300000D03*
X77985000Y-214487500D03*
X74300000Y-213700000D03*
G04 #@! TO.N,/usbC_Switcher/PWR_C_D-*
X64437500Y-188212500D03*
G04 #@! TO.N,/usbC_Switcher/PWR_C_D+*
X65437500Y-188212500D03*
G04 #@! TO.N,/usbC_Switcher/CC1*
X65437500Y-193487500D03*
G04 #@! TO.N,Net-(J5-VBUS1)*
X76900000Y-243400000D03*
G04 #@! TO.N,Net-(J5-VBUS2)*
X74300000Y-243387500D03*
G04 #@! TO.N,Net-(J4-SUSCLK)*
X466600000Y-235700000D03*
G04 #@! TO.N,Net-(J4-~{RESET})*
X466450000Y-243350000D03*
X458650000Y-244400000D03*
G04 #@! TO.N,Net-(J4-CONFIG_0)*
X479600000Y-245100000D03*
G04 #@! TO.N,Net-(J4-GPIO_11)*
X477150000Y-243600000D03*
G04 #@! TO.N,/usbC_Switcher/CC2*
X64437500Y-193487500D03*
G04 #@! TO.N,Net-(M3-G)*
X153399999Y-207274999D03*
X154124466Y-204192281D03*
G04 #@! TO.N,/Keyboard/USB_DM*
X241600000Y-338820000D03*
X240050000Y-341700000D03*
G04 #@! TO.N,/Keyboard/QSPI_SS*
X226200000Y-350540000D03*
X235808292Y-344542491D03*
G04 #@! TO.N,/BMS/LD*
X110291500Y-176581800D03*
X132758750Y-170458750D03*
G04 #@! TO.N,/Charging IC/ACSET*
X103850000Y-213453270D03*
X100550000Y-219600000D03*
G04 #@! TO.N,/Charging IC/ISET2*
X102600000Y-221750000D03*
X104650002Y-213453270D03*
G04 #@! TO.N,/Charging IC/\u002AACDRV*
X94922110Y-213840618D03*
X96250000Y-212981000D03*
G04 #@! TO.N,/~{PWR_LED}{slash}~{PSON}*
X414600000Y-280650000D03*
X209300000Y-266600000D03*
X414350000Y-263450000D03*
X203500000Y-258100000D03*
G04 #@! TO.N,/BMS/Q_DSG_S*
X124917500Y-171800000D03*
X107585594Y-176711928D03*
G04 #@! TO.N,Net-(U11-G1)*
X131917500Y-170050000D03*
X109817500Y-175400000D03*
G04 #@! TO.N,Net-(U11-G2)*
X130848049Y-158255855D03*
X107560608Y-175848406D03*
X123975196Y-171171730D03*
X129554890Y-160745109D03*
G04 #@! TO.N,/Keyboard/Col_0*
X222550000Y-347400000D03*
X258600000Y-287400000D03*
X233850000Y-336900000D03*
X233572611Y-347749999D03*
X222650000Y-338500000D03*
G04 #@! TO.N,/Keyboard/Col_1*
X237150000Y-309850000D03*
X460044290Y-288181012D03*
X232950000Y-309850000D03*
X80950000Y-304850000D03*
X232860000Y-348150001D03*
G04 #@! TO.N,/Keyboard/Col_2*
X194000000Y-366050000D03*
X205350000Y-349800000D03*
X160300000Y-354250000D03*
G04 #@! TO.N,/Keyboard/Col_3*
X231250000Y-349200000D03*
X249250000Y-365950000D03*
X230600000Y-351600000D03*
X491650000Y-291050000D03*
X249400000Y-355050000D03*
X487300000Y-291000000D03*
X231450000Y-365250000D03*
X223300000Y-346950000D03*
G04 #@! TO.N,/Keyboard/Col_4*
X234750000Y-351850000D03*
X193818446Y-359801932D03*
X200460302Y-354200000D03*
X234750000Y-375750000D03*
X234800000Y-359950000D03*
X459250000Y-347350000D03*
G04 #@! TO.N,/Keyboard/Col_5*
X437350000Y-348850000D03*
X219249875Y-359732238D03*
X235550000Y-352500000D03*
X235600000Y-359900000D03*
X211934464Y-368322213D03*
X235400000Y-375050000D03*
G04 #@! TO.N,/Keyboard/Col_6*
X223050000Y-317850000D03*
X234650000Y-318000000D03*
X437450000Y-312050000D03*
X427700000Y-311150000D03*
X126300000Y-365400000D03*
X426350000Y-330550000D03*
X273200000Y-388250000D03*
X241450000Y-318200000D03*
X427200000Y-297050000D03*
X441093515Y-326082572D03*
X426050000Y-366550000D03*
X236250000Y-365400000D03*
X236350000Y-352900000D03*
G04 #@! TO.N,/Keyboard/Col_7*
X236900000Y-348950000D03*
X238350000Y-374150000D03*
X286411741Y-338626662D03*
X236150000Y-377150000D03*
X295421944Y-356066000D03*
X465150000Y-314500000D03*
G04 #@! TO.N,/Keyboard/Col_8*
X251125735Y-351325735D03*
X426449000Y-324500000D03*
X484450000Y-292000000D03*
X273650000Y-377600000D03*
X320923335Y-356576665D03*
X426400000Y-327300000D03*
X333200000Y-362200000D03*
X426650000Y-313300000D03*
X492050000Y-291750000D03*
X330350000Y-360250000D03*
G04 #@! TO.N,/Keyboard/Col_9*
X425700000Y-272600000D03*
X252150000Y-349950000D03*
X258875735Y-356366747D03*
X427325735Y-289824265D03*
X382815286Y-270026889D03*
X278830829Y-358203359D03*
G04 #@! TO.N,/Keyboard/Col_10*
X268050000Y-359150000D03*
X483750000Y-289100000D03*
X252700000Y-349300000D03*
X279100000Y-357450000D03*
X353450000Y-356650000D03*
X483650000Y-287100000D03*
X402150000Y-270150000D03*
X482500000Y-274050000D03*
G04 #@! TO.N,/Keyboard/Col_11*
X410900000Y-289700000D03*
X409050000Y-289550000D03*
X356650000Y-318850000D03*
X351375187Y-291874813D03*
X392364874Y-289193497D03*
X251275735Y-345174265D03*
X256150000Y-343250000D03*
G04 #@! TO.N,/Keyboard/Col_12*
X250350000Y-344250000D03*
X382649183Y-312800817D03*
X258450000Y-340050000D03*
G04 #@! TO.N,/Keyboard/QSPI_SD1*
X231407756Y-343500000D03*
X227557200Y-349042800D03*
G04 #@! TO.N,/Keyboard/QSPI_SD2*
X226100000Y-346950000D03*
X230750000Y-342900000D03*
X228498527Y-346950000D03*
X228827200Y-349042800D03*
G04 #@! TO.N,Net-(Q9-G)*
X92264765Y-165935000D03*
X97874765Y-159600000D03*
G04 #@! TO.N,/Charging IC/ACN*
X99600000Y-203000000D03*
X109450000Y-207550000D03*
X101150000Y-209400000D03*
X97550000Y-211050000D03*
G04 #@! TO.N,/Keyboard/DVDD_L*
X240600000Y-349000000D03*
X240993100Y-341850000D03*
X238400000Y-344250000D03*
G04 #@! TD*
D28*
G04 #@! TO.N,/HDMI/TMDS_D1+*
X59662500Y-224630564D02*
X59662500Y-224100700D01*
X61544436Y-226512500D02*
X59662500Y-224630564D01*
X73937500Y-226512500D02*
X61544436Y-226512500D01*
G04 #@! TO.N,/HDMI/TMDS_D1-*
X58757500Y-224475564D02*
X58757500Y-223505700D01*
X74186443Y-227113500D02*
X61395436Y-227113500D01*
X74538500Y-226761443D02*
X74186443Y-227113500D01*
X74538500Y-225213500D02*
X74538500Y-226761443D01*
X73937500Y-224612500D02*
X74538500Y-225213500D01*
X58757500Y-223505700D02*
X59662500Y-222600700D01*
X61395436Y-227113500D02*
X58757500Y-224475564D01*
G04 #@! TO.N,/usbC_Switcher/PWR_C_D+*
X60209000Y-192341000D02*
X60842288Y-192341000D01*
X59215000Y-193335000D02*
X60209000Y-192341000D01*
X60858288Y-192325000D02*
X61325000Y-192325000D01*
X60842288Y-192341000D02*
X60858288Y-192325000D01*
X58675000Y-193800000D02*
X59140000Y-193335000D01*
X59140000Y-193335000D02*
X59215000Y-193335000D01*
G04 #@! TO.N,/usbC_Switcher/CC2*
X62741000Y-193409000D02*
X62819500Y-193487500D01*
X62819500Y-193487500D02*
X64437500Y-193487500D01*
X59475000Y-194550000D02*
X60616000Y-193409000D01*
X60616000Y-193409000D02*
X62741000Y-193409000D01*
G04 #@! TD*
G04 #@! TA.AperFunction,Conductor*
G04 #@! TO.N,/HDMI/TMDS_D1+*
G36*
X60245112Y-224216579D02*
G01*
X60252552Y-224221561D01*
X60254509Y-224228503D01*
X60223009Y-225044894D01*
X60219591Y-225052716D01*
X60088721Y-225183586D01*
X60080448Y-225187013D01*
X60073256Y-225184541D01*
X59335500Y-224609582D01*
X59331081Y-224601794D01*
X59332952Y-224593871D01*
X59657448Y-224106517D01*
X59664886Y-224101531D01*
X59669478Y-224101529D01*
X60245112Y-224216579D01*
G37*
G04 #@! TD.AperFunction*
G04 #@! TD*
G04 #@! TA.AperFunction,Conductor*
G04 #@! TO.N,/HDMI/TMDS_D1+*
G36*
X73875155Y-226223292D02*
G01*
X73881196Y-226229902D01*
X73881665Y-226231570D01*
X73938030Y-226510180D01*
X73938030Y-226514820D01*
X73881665Y-226793429D01*
X73876665Y-226800858D01*
X73867877Y-226802577D01*
X73866209Y-226802108D01*
X73350976Y-226615296D01*
X73344366Y-226609255D01*
X73343264Y-226604297D01*
X73343264Y-226420702D01*
X73346691Y-226412429D01*
X73350973Y-226409704D01*
X73866211Y-226222891D01*
X73875155Y-226223292D01*
G37*
G04 #@! TD.AperFunction*
G04 #@! TD*
G04 #@! TA.AperFunction,Conductor*
G04 #@! TO.N,/HDMI/TMDS_D1-*
G36*
X74191844Y-224456616D02*
G01*
X74192693Y-224458126D01*
X74264580Y-224611793D01*
X74384291Y-224867693D01*
X74424922Y-224954546D01*
X74425323Y-224963492D01*
X74422597Y-224967777D01*
X74292777Y-225097597D01*
X74284504Y-225101024D01*
X74279547Y-225099922D01*
X74128928Y-225029461D01*
X73783126Y-224867693D01*
X73777085Y-224861083D01*
X73777486Y-224852137D01*
X73778335Y-224850627D01*
X73935485Y-224613763D01*
X73938763Y-224610485D01*
X74175627Y-224453334D01*
X74184415Y-224451616D01*
X74191844Y-224456616D01*
G37*
G04 #@! TD.AperFunction*
G04 #@! TD*
G04 #@! TA.AperFunction,Conductor*
G04 #@! TO.N,/HDMI/TMDS_D1-*
G36*
X59655517Y-222598474D02*
G01*
X59662967Y-222603437D01*
X59664726Y-222607684D01*
X59778391Y-223183253D01*
X59776632Y-223192034D01*
X59770906Y-223196517D01*
X58894233Y-223514847D01*
X58885287Y-223514450D01*
X58881967Y-223512123D01*
X58751076Y-223381232D01*
X58747649Y-223372959D01*
X58748350Y-223368972D01*
X59066682Y-222492291D01*
X59072726Y-222485686D01*
X59079945Y-222484808D01*
X59655517Y-222598474D01*
G37*
G04 #@! TD.AperFunction*
G04 #@! TD*
G04 #@! TA.AperFunction,Conductor*
G04 #@! TO.N,/usbC_Switcher/PWR_C_D+*
G36*
X60947186Y-192072526D02*
G01*
X61311101Y-192314578D01*
X61316091Y-192322013D01*
X61314363Y-192330800D01*
X61311125Y-192334045D01*
X60953740Y-192573058D01*
X60944958Y-192574809D01*
X60937511Y-192569837D01*
X60935663Y-192565046D01*
X60912998Y-192411710D01*
X60779069Y-192277781D01*
X60775642Y-192269508D01*
X60778291Y-192262094D01*
X60931655Y-192074854D01*
X60939548Y-192070625D01*
X60947186Y-192072526D01*
G37*
G04 #@! TD.AperFunction*
G04 #@! TD*
G04 #@! TA.AperFunction,Conductor*
G04 #@! TO.N,/usbC_Switcher/PWR_C_D+*
G36*
X59210044Y-193239332D02*
G01*
X59214829Y-193246902D01*
X59215000Y-193248893D01*
X59215000Y-193433934D01*
X59214806Y-193436053D01*
X59133213Y-193879050D01*
X59128345Y-193886566D01*
X59119588Y-193888437D01*
X59119429Y-193888407D01*
X58756514Y-193816377D01*
X58681687Y-193801525D01*
X58674241Y-193796554D01*
X58672487Y-193792311D01*
X58586594Y-193355682D01*
X58588360Y-193346904D01*
X58595816Y-193341945D01*
X58595995Y-193341912D01*
X59201310Y-193237364D01*
X59210044Y-193239332D01*
G37*
G04 #@! TD.AperFunction*
G04 #@! TD*
G04 #@! TA.AperFunction,Conductor*
G04 #@! TO.N,/usbC_Switcher/CC2*
G36*
X64375155Y-193198292D02*
G01*
X64381196Y-193204902D01*
X64381665Y-193206570D01*
X64438030Y-193485180D01*
X64438030Y-193489820D01*
X64381665Y-193768429D01*
X64376665Y-193775858D01*
X64367877Y-193777577D01*
X64366209Y-193777108D01*
X63850976Y-193590296D01*
X63844366Y-193584255D01*
X63843264Y-193579297D01*
X63843264Y-193395702D01*
X63846691Y-193387429D01*
X63850973Y-193384704D01*
X64366211Y-193197891D01*
X64375155Y-193198292D01*
G37*
G04 #@! TD.AperFunction*
G04 #@! TD*
G04 #@! TA.AperFunction,Conductor*
G04 #@! TO.N,/usbC_Switcher/CC2*
G36*
X60057387Y-193830967D02*
G01*
X60061015Y-193833433D01*
X60191566Y-193963984D01*
X60194993Y-193972257D01*
X60194171Y-193976566D01*
X59934651Y-194631664D01*
X59928418Y-194638094D01*
X59921511Y-194638834D01*
X59481992Y-194552224D01*
X59474537Y-194547263D01*
X59472776Y-194543010D01*
X59386165Y-194103486D01*
X59387927Y-194094708D01*
X59393332Y-194090349D01*
X60048436Y-193830828D01*
X60057387Y-193830967D01*
G37*
G04 #@! TD.AperFunction*
G04 #@! TD*
M02*
