%TF.GenerationSoftware,KiCad,Pcbnew,9.0.0-9.0.0-2~ubuntu22.04.1*%
%TF.CreationDate,2025-03-10T11:10:46-07:00*%
%TF.ProjectId,RDAT,52444154-2e6b-4696-9361-645f70636258,rev?*%
%TF.SameCoordinates,Original*%
%TF.FileFunction,Component,L4,Bot*%
%TF.FilePolarity,Positive*%
%FSLAX46Y46*%
G04 Gerber Fmt 4.6, Leading zero omitted, Abs format (unit mm)*
G04 Created by KiCad (PCBNEW 9.0.0-9.0.0-2~ubuntu22.04.1) date 2025-03-10 11:10:46*
%MOMM*%
%LPD*%
G01*
G04 APERTURE LIST*
%ADD10C,0.050000*%
%TA.AperFunction,Profile*%
%ADD11C,0.038100*%
%TD*%
%TA.AperFunction,Profile*%
%ADD12C,0.050000*%
%TD*%
G04 APERTURE END LIST*
D10*
X135225027Y-372709593D02*
X135271202Y-372709639D01*
X135317229Y-372709705D01*
X135362936Y-372709791D01*
X135408497Y-372709896D01*
X135453744Y-372710021D01*
X135498848Y-372710165D01*
X135543641Y-372710328D01*
X135588294Y-372710511D01*
X135632642Y-372710713D01*
X135676851Y-372710934D01*
X135720760Y-372711173D01*
X135764532Y-372711432D01*
X135808009Y-372711709D01*
X135851350Y-372712005D01*
X135894402Y-372712319D01*
X135937320Y-372712653D01*
X135979954Y-372713004D01*
X136022455Y-372713374D01*
X136064676Y-372713761D01*
X136106766Y-372714168D01*
X136148582Y-372714592D01*
X136190268Y-372715034D01*
X136231683Y-372715494D01*
X136272972Y-372715972D01*
X136313993Y-372716467D01*
X136354889Y-372716981D01*
X136395524Y-372717511D01*
X136436034Y-372718060D01*
X136476286Y-372718626D01*
X136516416Y-372719209D01*
X136556292Y-372719809D01*
X136596047Y-372720428D01*
X136635553Y-372721062D01*
X136674939Y-372721714D01*
X136714080Y-372722383D01*
X136753103Y-372723069D01*
X136791884Y-372723771D01*
X136830549Y-372724492D01*
X136868976Y-372725227D01*
X136907288Y-372725981D01*
X136945367Y-372726750D01*
X136983331Y-372727536D01*
X137021066Y-372728338D01*
X137058688Y-372729158D01*
X137096084Y-372729993D01*
X137133369Y-372730845D01*
X137170431Y-372731712D01*
X137207384Y-372732596D01*
X137244117Y-372733496D01*
X137280743Y-372734413D01*
X137317152Y-372735344D01*
X137353455Y-372736292D01*
X137389544Y-372737256D01*
X137425529Y-372738236D01*
X137461304Y-372739231D01*
X137496976Y-372740242D01*
X137532441Y-372741268D01*
X137567803Y-372742311D01*
X137602963Y-372743368D01*
X137638021Y-372744442D01*
X137672879Y-372745530D01*
X137707638Y-372746635D01*
X137742199Y-372747754D01*
X137776662Y-372748889D01*
X137810930Y-372750038D01*
X137845102Y-372751204D01*
X137879082Y-372752383D01*
X137912966Y-372753579D01*
X137946662Y-372754788D01*
X137980263Y-372756014D01*
X138013679Y-372757254D01*
X138047001Y-372758509D01*
X138080141Y-372759778D01*
X138113188Y-372761064D01*
X138146055Y-372762362D01*
X138178831Y-372763677D01*
X138211430Y-372765005D01*
X138243939Y-372766349D01*
X138276273Y-372767706D01*
X138308518Y-372769079D01*
X138340592Y-372770465D01*
X138372577Y-372771868D01*
X138404394Y-372773282D01*
X138436123Y-372774713D01*
X138467687Y-372776157D01*
X138499163Y-372777617D01*
X138530477Y-372779089D01*
X138561705Y-372780577D01*
X138592772Y-372782077D01*
X138623755Y-372783594D01*
X138654579Y-372785122D01*
X138685320Y-372786667D01*
X138715905Y-372788224D01*
X138746407Y-372789796D01*
X138776756Y-372791381D01*
X138807024Y-372792981D01*
X138837140Y-372794594D01*
X138867176Y-372796222D01*
X138897063Y-372797863D01*
X138926870Y-372799518D01*
X138956531Y-372801186D01*
X138986113Y-372802870D01*
X139015551Y-372804565D01*
X139044911Y-372806276D01*
X139074129Y-372807998D01*
X139103270Y-372809736D01*
X139132271Y-372811486D01*
X139161196Y-372813251D01*
X139189984Y-372815028D01*
X139218697Y-372816821D01*
X139247274Y-372818625D01*
X139275777Y-372820444D01*
X139304146Y-372822275D01*
X139332442Y-372824121D01*
X139360607Y-372825978D01*
X139388699Y-372827851D01*
X139416662Y-372829735D01*
X139444554Y-372831635D01*
X139472318Y-372833546D01*
X139500011Y-372835472D01*
X139527579Y-372837409D01*
X139555077Y-372839362D01*
X139582452Y-372841326D01*
X139609757Y-372843304D01*
X139636941Y-372845295D01*
X139664057Y-372847300D01*
X139691053Y-372849316D01*
X139717982Y-372851348D01*
X139744793Y-372853390D01*
X139771537Y-372855448D01*
X139798166Y-372857517D01*
X139824728Y-372859601D01*
X139851177Y-372861695D01*
X139877561Y-372863805D01*
X139903832Y-372865926D01*
X139930039Y-372868062D01*
X139956136Y-372870209D01*
X139982168Y-372872370D01*
X140008093Y-372874543D01*
X140033954Y-372876730D01*
X140059709Y-372878929D01*
X140085401Y-372881142D01*
X140110989Y-372883366D01*
X140136515Y-372885605D01*
X140161938Y-372887856D01*
X140187299Y-372890120D01*
X140212560Y-372892396D01*
X140237760Y-372894686D01*
X140262860Y-372896988D01*
X140287900Y-372899304D01*
X140312843Y-372901631D01*
X140337727Y-372903973D01*
X140362514Y-372906325D01*
X140387243Y-372908693D01*
X140411877Y-372911071D01*
X140436453Y-372913464D01*
X140460937Y-372915867D01*
X140485363Y-372918286D01*
X140509698Y-372920715D01*
X140533977Y-372923159D01*
X140558165Y-372925614D01*
X140582298Y-372928083D01*
X140606343Y-372930563D01*
X140630332Y-372933058D01*
X140654235Y-372935564D01*
X140678083Y-372938084D01*
X140701846Y-372940616D01*
X140725555Y-372943161D01*
X140749180Y-372945718D01*
X140772752Y-372948289D01*
X140796242Y-372950872D01*
X140819679Y-372953468D01*
X140843035Y-372956076D01*
X140866340Y-372958698D01*
X140889565Y-372961332D01*
X140912738Y-372963979D01*
X140935834Y-372966638D01*
X140958879Y-372969311D01*
X140981848Y-372971996D01*
X141004766Y-372974694D01*
X141027609Y-372977404D01*
X141050403Y-372980129D01*
X141073123Y-372982864D01*
X141095794Y-372985614D01*
X141118394Y-372988375D01*
X141140944Y-372991151D01*
X141163424Y-372993937D01*
X141185855Y-372996739D01*
X141208218Y-372999551D01*
X141230533Y-373002378D01*
X141252780Y-373005216D01*
X141274980Y-373008069D01*
X141297114Y-373010933D01*
X141319202Y-373013811D01*
X141341224Y-373016701D01*
X141363200Y-373019605D01*
X141385113Y-373022521D01*
X141406980Y-373025451D01*
X141428785Y-373028392D01*
X141450545Y-373031348D01*
X141472244Y-373034316D01*
X141493899Y-373037298D01*
X141515494Y-373040292D01*
X141537045Y-373043300D01*
X141558538Y-373046320D01*
X141579987Y-373049354D01*
X141601380Y-373052400D01*
X141622729Y-373055460D01*
X141644023Y-373058533D01*
X141665275Y-373061619D01*
X141686472Y-373064718D01*
X141707627Y-373067831D01*
X141728730Y-373070956D01*
X141749790Y-373074096D01*
X141770799Y-373077248D01*
X141791768Y-373080414D01*
X141812685Y-373083592D01*
X141833562Y-373086785D01*
X141854390Y-373089990D01*
X141875178Y-373093210D01*
X141895919Y-373096442D01*
X141916619Y-373099688D01*
X141937273Y-373102948D01*
X141957888Y-373106221D01*
X141978458Y-373109507D01*
X141998989Y-373112808D01*
X142019476Y-373116121D01*
X142039925Y-373119449D01*
X142060331Y-373122790D01*
X142080699Y-373126145D01*
X142101026Y-373129513D01*
X142121315Y-373132896D01*
X142141565Y-373136292D01*
X142161777Y-373139702D01*
X142181950Y-373143126D01*
X142202088Y-373146564D01*
X142222187Y-373150016D01*
X142242250Y-373153481D01*
X142262277Y-373156961D01*
X142282269Y-373160455D01*
X142302225Y-373163963D01*
X142322146Y-373167486D01*
X142342033Y-373171022D01*
X142361886Y-373174573D01*
X142381705Y-373178138D01*
X142401491Y-373181717D01*
X142421245Y-373185311D01*
X142440965Y-373188919D01*
X142460655Y-373192542D01*
X142480312Y-373196179D01*
X142499940Y-373199831D01*
X142519535Y-373203497D01*
X142539102Y-373207178D01*
X142558636Y-373210874D01*
X142578144Y-373214584D01*
X142597620Y-373218310D01*
X142617071Y-373222050D01*
X142636490Y-373225805D01*
X142655885Y-373229576D01*
X142675249Y-373233360D01*
X142694590Y-373237161D01*
X142713901Y-373240976D01*
X142733189Y-373244807D01*
X142752448Y-373248653D01*
X142771686Y-373252515D01*
X142790895Y-373256391D01*
X142810084Y-373260284D01*
X142829244Y-373264191D01*
X142848386Y-373268115D01*
X142867499Y-373272053D01*
X142905663Y-373279978D01*
X142943740Y-373287967D01*
X142981733Y-373296020D01*
X143019646Y-373304137D01*
X143057481Y-373312319D01*
X143095243Y-373320567D01*
X143132935Y-373328882D01*
X143170560Y-373337264D01*
X143208122Y-373345713D01*
X143245624Y-373354231D01*
X143283070Y-373362818D01*
X143320463Y-373371475D01*
X143357808Y-373380202D01*
X143395107Y-373389001D01*
X143432364Y-373397872D01*
X143469583Y-373406817D01*
X143506768Y-373415835D01*
X143543922Y-373424927D01*
X143581049Y-373434096D01*
X143618154Y-373443341D01*
X143655239Y-373452664D01*
X143692309Y-373462065D01*
X143729367Y-373471545D01*
X143766419Y-373481106D01*
X143803467Y-373490749D01*
X143840516Y-373500475D01*
X143877571Y-373510284D01*
X143914634Y-373520179D01*
X143951712Y-373530160D01*
X143988807Y-373540229D01*
X144025925Y-373550386D01*
X144063070Y-373560634D01*
X144100247Y-373570973D01*
X144137460Y-373581405D01*
X144174715Y-373591931D01*
X144212015Y-373602554D01*
X144249366Y-373613274D01*
X144286774Y-373624094D01*
X144324243Y-373635014D01*
X144361778Y-373646037D01*
X144399386Y-373657164D01*
X144437071Y-373668397D01*
X144474839Y-373679739D01*
X144512697Y-373691190D01*
X144550650Y-373702754D01*
X144588704Y-373714433D01*
X144626866Y-373726227D01*
X144665143Y-373738141D01*
X144703540Y-373750176D01*
X144742064Y-373762335D01*
X144780724Y-373774620D01*
X144819526Y-373787034D01*
X144858478Y-373799579D01*
X144897587Y-373812259D01*
X144936862Y-373825077D01*
X144976311Y-373838036D01*
X145015943Y-373851138D01*
X145055767Y-373864388D01*
X145095791Y-373877790D01*
X145136026Y-373891345D01*
X145176482Y-373905060D01*
X145217169Y-373918937D01*
X145258098Y-373932980D01*
X145299281Y-373947196D01*
X145340729Y-373961587D01*
X145382455Y-373976159D01*
X145424471Y-373990917D01*
X145466792Y-374005867D01*
X145509432Y-374021014D01*
X145552406Y-374036364D01*
X145595729Y-374051923D01*
X145639418Y-374067699D01*
X145683492Y-374083698D01*
X145727967Y-374099929D01*
X145772865Y-374116398D01*
X145818205Y-374133114D01*
X145864010Y-374150087D01*
X145910304Y-374167325D01*
X145957111Y-374184840D01*
X146004459Y-374202643D01*
X146052376Y-374220744D01*
X146100894Y-374239158D01*
X146150044Y-374257897D01*
X146199863Y-374276976D01*
X146250390Y-374296411D01*
X146301667Y-374316221D01*
X146353740Y-374336422D01*
X146406658Y-374357038D01*
X146460476Y-374378089D01*
X146515255Y-374399601D01*
X146571061Y-374421603D01*
X146627968Y-374444124D01*
X146686059Y-374467199D01*
X146745428Y-374490866D01*
X146806178Y-374515170D01*
X146868429Y-374540160D01*
X146932319Y-374565893D01*
X146998006Y-374592436D01*
X147065675Y-374619865D01*
X147135546Y-374648271D01*
X147207882Y-374677765D01*
X147283003Y-374708480D01*
X147361306Y-374740581D01*
X147443294Y-374774278D01*
X147529624Y-374809844D01*
X147621181Y-374847648D01*
X147719213Y-374888210D01*
X147825594Y-374932309D01*
X147943380Y-374981219D01*
X148078277Y-375037315D01*
X148243791Y-375106221D01*
X148378768Y-375162444D01*
X148427912Y-375182916D01*
X272800000Y-397800000D02*
X272833670Y-397800018D01*
X272867282Y-397800015D01*
X272900829Y-397799993D01*
X272934316Y-397799951D01*
X272967740Y-397799888D01*
X273001105Y-397799806D01*
X273034406Y-397799704D01*
X273067648Y-397799583D01*
X273100827Y-397799441D01*
X273133948Y-397799280D01*
X273167006Y-397799099D01*
X273200006Y-397798899D01*
X273232943Y-397798678D01*
X273265823Y-397798439D01*
X273298640Y-397798179D01*
X273331400Y-397797901D01*
X273364098Y-397797602D01*
X273396739Y-397797285D01*
X273429318Y-397796947D01*
X273461841Y-397796591D01*
X273494302Y-397796215D01*
X273526707Y-397795820D01*
X273559051Y-397795405D01*
X273591339Y-397794972D01*
X273623566Y-397794519D01*
X273655737Y-397794047D01*
X273687849Y-397793556D01*
X273719904Y-397793045D01*
X273751900Y-397792516D01*
X273783840Y-397791968D01*
X273815722Y-397791400D01*
X273847547Y-397790814D01*
X273879315Y-397790209D01*
X273911026Y-397789584D01*
X273942680Y-397788941D01*
X273974279Y-397788279D01*
X274005820Y-397787599D01*
X274037306Y-397786899D01*
X274068735Y-397786181D01*
X274100109Y-397785444D01*
X274131426Y-397784688D01*
X274162689Y-397783914D01*
X274193895Y-397783121D01*
X274225047Y-397782310D01*
X274256143Y-397781480D01*
X274287185Y-397780631D01*
X274318172Y-397779764D01*
X274349104Y-397778878D01*
X274379982Y-397777975D01*
X274410805Y-397777052D01*
X274441574Y-397776111D01*
X274472290Y-397775152D01*
X274502951Y-397774175D01*
X274533560Y-397773179D01*
X274564114Y-397772165D01*
X274594615Y-397771133D01*
X274625063Y-397770083D01*
X274655458Y-397769014D01*
X274685800Y-397767928D01*
X274716089Y-397766823D01*
X274746326Y-397765700D01*
X274776510Y-397764559D01*
X274806642Y-397763400D01*
X274836722Y-397762223D01*
X274866751Y-397761029D01*
X274896727Y-397759816D01*
X274926652Y-397758585D01*
X274956525Y-397757336D01*
X274986347Y-397756070D01*
X275016117Y-397754786D01*
X275045837Y-397753484D01*
X275075506Y-397752164D01*
X275105125Y-397750826D01*
X275134692Y-397749471D01*
X275164210Y-397748098D01*
X275193677Y-397746707D01*
X275223094Y-397745299D01*
X275252461Y-397743873D01*
X275281779Y-397742429D01*
X275311046Y-397740968D01*
X275340266Y-397739490D01*
X275369434Y-397737994D01*
X275398555Y-397736480D01*
X275427625Y-397734949D01*
X275456648Y-397733400D01*
X275485621Y-397731834D01*
X275514547Y-397730251D01*
X275543423Y-397728650D01*
X275572252Y-397727032D01*
X275601032Y-397725397D01*
X275629766Y-397723744D01*
X275658449Y-397722074D01*
X275687088Y-397720387D01*
X275715677Y-397718683D01*
X275744220Y-397716961D01*
X275772715Y-397715222D01*
X275801165Y-397713466D01*
X275829565Y-397711693D01*
X275857921Y-397709903D01*
X275886229Y-397708096D01*
X275914492Y-397706272D01*
X275942707Y-397704430D01*
X275970878Y-397702572D01*
X275999001Y-397700697D01*
X276027081Y-397698804D01*
X276055112Y-397696895D01*
X276083101Y-397694969D01*
X276111042Y-397693026D01*
X276138941Y-397691066D01*
X276166791Y-397689089D01*
X276194600Y-397687095D01*
X276222361Y-397685085D01*
X276250081Y-397683057D01*
X276277753Y-397681013D01*
X276305384Y-397678952D01*
X276332968Y-397676875D01*
X276360512Y-397674780D01*
X276388008Y-397672669D01*
X276415464Y-397670541D01*
X276442873Y-397668397D01*
X276470243Y-397666235D01*
X276497565Y-397664058D01*
X276524849Y-397661863D01*
X276552086Y-397659652D01*
X276579284Y-397657425D01*
X276606436Y-397655181D01*
X276633549Y-397652920D01*
X276660616Y-397650643D01*
X276687645Y-397648349D01*
X276714628Y-397646039D01*
X276741574Y-397643712D01*
X276768474Y-397641369D01*
X276795337Y-397639009D01*
X276822154Y-397636633D01*
X276848934Y-397634240D01*
X276875669Y-397631832D01*
X276902368Y-397629406D01*
X276929021Y-397626965D01*
X276955639Y-397624507D01*
X276982211Y-397622033D01*
X277008749Y-397619542D01*
X277035241Y-397617035D01*
X277061698Y-397614512D01*
X277088111Y-397611972D01*
X277114489Y-397609416D01*
X277140822Y-397606845D01*
X277167122Y-397604256D01*
X277193377Y-397601652D01*
X277219599Y-397599031D01*
X277245776Y-397596394D01*
X277271921Y-397593741D01*
X277298021Y-397591072D01*
X277324088Y-397588386D01*
X277350112Y-397585685D01*
X277376103Y-397582967D01*
X277402051Y-397580233D01*
X277427967Y-397577483D01*
X277453839Y-397574717D01*
X277479681Y-397571935D01*
X277505478Y-397569137D01*
X277531245Y-397566322D01*
X277556969Y-397563492D01*
X277582662Y-397560645D01*
X277608312Y-397557783D01*
X277633933Y-397554904D01*
X277659510Y-397552010D01*
X277685058Y-397549099D01*
X277710563Y-397546173D01*
X277736040Y-397543230D01*
X277761473Y-397540272D01*
X277786879Y-397537297D01*
X277812241Y-397534307D01*
X277837576Y-397531300D01*
X277862868Y-397528278D01*
X277888134Y-397525239D01*
X277913356Y-397522185D01*
X277938552Y-397519115D01*
X277963706Y-397516029D01*
X277988833Y-397512926D01*
X278013919Y-397509809D01*
X278038978Y-397506674D01*
X278063996Y-397503525D01*
X278088988Y-397500359D01*
X278113939Y-397497178D01*
X278138865Y-397493980D01*
X278163749Y-397490767D01*
X278188609Y-397487537D01*
X278213427Y-397484292D01*
X278238221Y-397481030D01*
X278262974Y-397477754D01*
X278287704Y-397474461D01*
X278312393Y-397471153D01*
X278337059Y-397467827D01*
X278361683Y-397464488D01*
X278410848Y-397457759D01*
X278459886Y-397450967D01*
X278508801Y-397444112D01*
X278557594Y-397437193D01*
X278606265Y-397430211D01*
X278654816Y-397423165D01*
X278703249Y-397416056D01*
X278751564Y-397408883D01*
X278799764Y-397401647D01*
X278847849Y-397394347D01*
X278895821Y-397386984D01*
X278943681Y-397379557D01*
X278991431Y-397372066D01*
X279039072Y-397364512D01*
X279086605Y-397356894D01*
X279134032Y-397349212D01*
X279181354Y-397341466D01*
X279228573Y-397333656D01*
X279275689Y-397325783D01*
X279322706Y-397317845D01*
X279369623Y-397309842D01*
X279416443Y-397301776D01*
X279463166Y-397293645D01*
X279509795Y-397285449D01*
X279556331Y-397277189D01*
X279602775Y-397268864D01*
X279649129Y-397260474D01*
X279695394Y-397252019D01*
X279741572Y-397243499D01*
X279787665Y-397234913D01*
X279833674Y-397226262D01*
X279879600Y-397217544D01*
X279925446Y-397208762D01*
X279971212Y-397199913D01*
X280016901Y-397190997D01*
X280062514Y-397182015D01*
X280108052Y-397172967D01*
X280153518Y-397163851D01*
X280198914Y-397154668D01*
X280244239Y-397145418D01*
X280289498Y-397136100D01*
X280334691Y-397126715D01*
X280379819Y-397117261D01*
X280424886Y-397107738D01*
X280469892Y-397098147D01*
X280514840Y-397088486D01*
X280559731Y-397078756D01*
X280604567Y-397068956D01*
X280649350Y-397059086D01*
X280694082Y-397049146D01*
X280738766Y-397039135D01*
X280783402Y-397029052D01*
X280827993Y-397018898D01*
X280872541Y-397008672D01*
X280917049Y-396998373D01*
X280961517Y-396988001D01*
X281005949Y-396977556D01*
X281050347Y-396967037D01*
X281094712Y-396956444D01*
X281139047Y-396945776D01*
X281183355Y-396935032D01*
X281227637Y-396924212D01*
X281271896Y-396913316D01*
X281316134Y-396902343D01*
X281360355Y-396891292D01*
X281404559Y-396880163D01*
X281448751Y-396868955D01*
X281492932Y-396857667D01*
X281537105Y-396846299D01*
X281581274Y-396834849D01*
X281625440Y-396823318D01*
X281669606Y-396811704D01*
X281713776Y-396800007D01*
X281757952Y-396788226D01*
X281802138Y-396776359D01*
X281846336Y-396764407D01*
X281890550Y-396752368D01*
X281934782Y-396740241D01*
X281979037Y-396728025D01*
X282023318Y-396715719D01*
X282067628Y-396703322D01*
X282111971Y-396690834D01*
X282156351Y-396678252D01*
X282200771Y-396665575D01*
X282245235Y-396652804D01*
X282289748Y-396639935D01*
X282334313Y-396626968D01*
X282378935Y-396613902D01*
X282423618Y-396600734D01*
X282468367Y-396587464D01*
X282513186Y-396574090D01*
X282558081Y-396560610D01*
X282603056Y-396547023D01*
X282648117Y-396533326D01*
X282693269Y-396519519D01*
X282738517Y-396505599D01*
X282783868Y-396491564D01*
X282829327Y-396477412D01*
X282874901Y-396463140D01*
X282920596Y-396448747D01*
X282966419Y-396434231D01*
X283012377Y-396419588D01*
X283058477Y-396404816D01*
X283104727Y-396389912D01*
X283151135Y-396374874D01*
X283197709Y-396359698D01*
X283244458Y-396344381D01*
X283291392Y-396328920D01*
X283338519Y-396313312D01*
X283385850Y-396297552D01*
X283433395Y-396281636D01*
X283481167Y-396265561D01*
X283529176Y-396249322D01*
X283577434Y-396232915D01*
X283625956Y-396216333D01*
X283674755Y-396199574D01*
X283723846Y-396182629D01*
X283773245Y-396165494D01*
X283822968Y-396148163D01*
X283873033Y-396130628D01*
X283923459Y-396112882D01*
X283974267Y-396094917D01*
X284025479Y-396076726D01*
X284077119Y-396058298D01*
X284129211Y-396039624D01*
X284181784Y-396020693D01*
X284234867Y-396001495D01*
X284288493Y-395982015D01*
X284342697Y-395962241D01*
X284397519Y-395942156D01*
X284453001Y-395921746D01*
X284509190Y-395900991D01*
X284566139Y-395879870D01*
X284623907Y-395858362D01*
X284682558Y-395836439D01*
X284742168Y-395814074D01*
X284802820Y-395791234D01*
X284864609Y-395767880D01*
X284927647Y-395743970D01*
X284992063Y-395719453D01*
X285058007Y-395694269D01*
X285125662Y-395668348D01*
X285195243Y-395641605D01*
X285267020Y-395613933D01*
X285341327Y-395585202D01*
X285418594Y-395555242D01*
X285499388Y-395523832D01*
X285584487Y-395490663D01*
X285675011Y-395455298D01*
X285772686Y-395417056D01*
X285880441Y-395374787D01*
X286002885Y-395326677D01*
D11*
X508242448Y-366643000D02*
X508250000Y-148949245D01*
D12*
X508242448Y-366642982D02*
G75*
G02*
X502293203Y-372593048I-5950048J-18D01*
G01*
D11*
X53099377Y-149027150D02*
X53100001Y-366700755D01*
D12*
X148427912Y-375182916D02*
X196423277Y-395274824D01*
X59050000Y-372650000D02*
G75*
G02*
X53100000Y-366700755I0J5950000D01*
G01*
D11*
X59049377Y-143077148D02*
X502300000Y-143000000D01*
D12*
X286002885Y-395326677D02*
X338697115Y-375073323D01*
D10*
X209626162Y-397748147D02*
X209571825Y-397748130D01*
X209517705Y-397748094D01*
X209464203Y-397748038D01*
X209410912Y-397747962D01*
X209358222Y-397747866D01*
X209305739Y-397747751D01*
X209253838Y-397747618D01*
X209202141Y-397747464D01*
X209151009Y-397747292D01*
X209100076Y-397747101D01*
X209049693Y-397746892D01*
X208999505Y-397746664D01*
X208949851Y-397746418D01*
X208900388Y-397746153D01*
X208851445Y-397745870D01*
X208802688Y-397745569D01*
X208754438Y-397745251D01*
X208706370Y-397744913D01*
X208658796Y-397744560D01*
X208611400Y-397744187D01*
X208564484Y-397743798D01*
X208517743Y-397743391D01*
X208471469Y-397742968D01*
X208425367Y-397742526D01*
X208379721Y-397742068D01*
X208334243Y-397741592D01*
X208289209Y-397741101D01*
X208244339Y-397740591D01*
X208199903Y-397740066D01*
X208155628Y-397739524D01*
X208111775Y-397738966D01*
X208068081Y-397738390D01*
X208024798Y-397737800D01*
X207981671Y-397737191D01*
X207938945Y-397736568D01*
X207896372Y-397735928D01*
X207854191Y-397735273D01*
X207812160Y-397734601D01*
X207770511Y-397733914D01*
X207729009Y-397733210D01*
X207687880Y-397732493D01*
X207646896Y-397731757D01*
X207606276Y-397731008D01*
X207565798Y-397730242D01*
X207525676Y-397729463D01*
X207485693Y-397728666D01*
X207446058Y-397727856D01*
X207406559Y-397727029D01*
X207367400Y-397726188D01*
X207328376Y-397725331D01*
X207289683Y-397724461D01*
X207251122Y-397723574D01*
X207212886Y-397722674D01*
X207174779Y-397721757D01*
X207136990Y-397720828D01*
X207099328Y-397719882D01*
X207061976Y-397718924D01*
X207024749Y-397717948D01*
X206987825Y-397716961D01*
X206951024Y-397715957D01*
X206914520Y-397714941D01*
X206878136Y-397713908D01*
X206842043Y-397712864D01*
X206806069Y-397711803D01*
X206770378Y-397710730D01*
X206734804Y-397709641D01*
X206699508Y-397708540D01*
X206664327Y-397707422D01*
X206629417Y-397706294D01*
X206594621Y-397705149D01*
X206560090Y-397703992D01*
X206525670Y-397702819D01*
X206491511Y-397701636D01*
X206457461Y-397700435D01*
X206423666Y-397699224D01*
X206389978Y-397697997D01*
X206356540Y-397696758D01*
X206323207Y-397695504D01*
X206290119Y-397694238D01*
X206257135Y-397692957D01*
X206224390Y-397691665D01*
X206191747Y-397690357D01*
X206159339Y-397689038D01*
X206127031Y-397687703D01*
X206094953Y-397686357D01*
X206062974Y-397684996D01*
X206031220Y-397683624D01*
X205999563Y-397682237D01*
X205968126Y-397680839D01*
X205936785Y-397679425D01*
X205905660Y-397678001D01*
X205874630Y-397676561D01*
X205843811Y-397675111D01*
X205813085Y-397673645D01*
X205782566Y-397672170D01*
X205752138Y-397670678D01*
X205721914Y-397669176D01*
X205691779Y-397667659D01*
X205661844Y-397666132D01*
X205631997Y-397664589D01*
X205602345Y-397663037D01*
X205572780Y-397661468D01*
X205543407Y-397659890D01*
X205514120Y-397658297D01*
X205485020Y-397656693D01*
X205456004Y-397655074D01*
X205427172Y-397653446D01*
X205398424Y-397651802D01*
X205369855Y-397650148D01*
X205341369Y-397648479D01*
X205313059Y-397646800D01*
X205284830Y-397645106D01*
X205256774Y-397643403D01*
X205228797Y-397641684D01*
X205200990Y-397639955D01*
X205173262Y-397638212D01*
X205145700Y-397636458D01*
X205118214Y-397634690D01*
X205090893Y-397632912D01*
X205063647Y-397631118D01*
X205036561Y-397629316D01*
X205009550Y-397627498D01*
X204982696Y-397625671D01*
X204955915Y-397623828D01*
X204929288Y-397621977D01*
X204902734Y-397620110D01*
X204876331Y-397618233D01*
X204849999Y-397616342D01*
X204823816Y-397614441D01*
X204797702Y-397612526D01*
X204771734Y-397610601D01*
X204745835Y-397608661D01*
X204720078Y-397606711D01*
X204694390Y-397604747D01*
X204668841Y-397602773D01*
X204643359Y-397600784D01*
X204618014Y-397598786D01*
X204592736Y-397596773D01*
X204567592Y-397594751D01*
X204542513Y-397592714D01*
X204517565Y-397590667D01*
X204492682Y-397588606D01*
X204467928Y-397586535D01*
X204443237Y-397584450D01*
X204418673Y-397582355D01*
X204394171Y-397580245D01*
X204369793Y-397578126D01*
X204345477Y-397575992D01*
X204321282Y-397573849D01*
X204297148Y-397571691D01*
X204273133Y-397569524D01*
X204249178Y-397567342D01*
X204225339Y-397565150D01*
X204201560Y-397562944D01*
X204177895Y-397560728D01*
X204154288Y-397558498D01*
X204130793Y-397556258D01*
X204107356Y-397554003D01*
X204084028Y-397551739D01*
X204060757Y-397549461D01*
X204037593Y-397547172D01*
X204014485Y-397544870D01*
X203991483Y-397542557D01*
X203968536Y-397540230D01*
X203945691Y-397537893D01*
X203922901Y-397535542D01*
X203900212Y-397533181D01*
X203877577Y-397530806D01*
X203855041Y-397528421D01*
X203832557Y-397526021D01*
X203810170Y-397523611D01*
X203787835Y-397521187D01*
X203765595Y-397518753D01*
X203743406Y-397516305D01*
X203721311Y-397513847D01*
X203699265Y-397511374D01*
X203677311Y-397508891D01*
X203655406Y-397506394D01*
X203633591Y-397503887D01*
X203611824Y-397501365D01*
X203590145Y-397498833D01*
X203568514Y-397496287D01*
X203546968Y-397493731D01*
X203525470Y-397491160D01*
X203504055Y-397488579D01*
X203482687Y-397485983D01*
X203461401Y-397483378D01*
X203440161Y-397480757D01*
X203419001Y-397478127D01*
X203397886Y-397475482D01*
X203376850Y-397472826D01*
X203355858Y-397470156D01*
X203334943Y-397467476D01*
X203314072Y-397464781D01*
X203293275Y-397462076D01*
X203272522Y-397459356D01*
X203251842Y-397456625D01*
X203231205Y-397453880D01*
X203210639Y-397451124D01*
X203190115Y-397448354D01*
X203169661Y-397445573D01*
X203149248Y-397442777D01*
X203128904Y-397439971D01*
X203108600Y-397437150D01*
X203088362Y-397434318D01*
X203068165Y-397431471D01*
X203048033Y-397428614D01*
X203027940Y-397425741D01*
X203007910Y-397422858D01*
X202987920Y-397419960D01*
X202967990Y-397417051D01*
X202948100Y-397414127D01*
X202928269Y-397411192D01*
X202908476Y-397408242D01*
X202888742Y-397405280D01*
X202869045Y-397402304D01*
X202849404Y-397399317D01*
X202829801Y-397396314D01*
X202810253Y-397393300D01*
X202790741Y-397390272D01*
X202771282Y-397387231D01*
X202751860Y-397384176D01*
X202732489Y-397381109D01*
X202713154Y-397378027D01*
X202693869Y-397374932D01*
X202674619Y-397371824D01*
X202655418Y-397368702D01*
X202636251Y-397365566D01*
X202617132Y-397362418D01*
X202598047Y-397359255D01*
X202579007Y-397356079D01*
X202560001Y-397352889D01*
X202541039Y-397349686D01*
X202522110Y-397346468D01*
X202503224Y-397343237D01*
X202484370Y-397339991D01*
X202465558Y-397336732D01*
X202446777Y-397333458D01*
X202428037Y-397330171D01*
X202409327Y-397326870D01*
X202390657Y-397323554D01*
X202372017Y-397320224D01*
X202353414Y-397316880D01*
X202334842Y-397313522D01*
X202316305Y-397310149D01*
X202297798Y-397306762D01*
X202279326Y-397303360D01*
X202260882Y-397299944D01*
X202242472Y-397296513D01*
X202224090Y-397293068D01*
X202205740Y-397289608D01*
X202187418Y-397286133D01*
X202169127Y-397282643D01*
X202150863Y-397279138D01*
X202132627Y-397275619D01*
X202114419Y-397272084D01*
X202096239Y-397268534D01*
X202078085Y-397264970D01*
X202059957Y-397261390D01*
X202041855Y-397257794D01*
X202023778Y-397254183D01*
X202005727Y-397250557D01*
X201987699Y-397246916D01*
X201969696Y-397243259D01*
X201951715Y-397239586D01*
X201933759Y-397235897D01*
X201915823Y-397232193D01*
X201897912Y-397228473D01*
X201880020Y-397224736D01*
X201862151Y-397220985D01*
X201844300Y-397217216D01*
X201826473Y-397213432D01*
X201808661Y-397209631D01*
X201790873Y-397205815D01*
X201773100Y-397201981D01*
X201755348Y-397198131D01*
X201719895Y-397190382D01*
X201684509Y-397182565D01*
X201649188Y-397174681D01*
X201613926Y-397166728D01*
X201578720Y-397158706D01*
X201543567Y-397150614D01*
X201508462Y-397142452D01*
X201473402Y-397134217D01*
X201438383Y-397125910D01*
X201403401Y-397117530D01*
X201368453Y-397109076D01*
X201333533Y-397100546D01*
X201298639Y-397091941D01*
X201263767Y-397083258D01*
X201228911Y-397074497D01*
X201194069Y-397065658D01*
X201159236Y-397056738D01*
X201124408Y-397047737D01*
X201089582Y-397038654D01*
X201054752Y-397029487D01*
X201019914Y-397020236D01*
X200985065Y-397010899D01*
X200950199Y-397001475D01*
X200915313Y-396991963D01*
X200880402Y-396982361D01*
X200845462Y-396972668D01*
X200810487Y-396962883D01*
X200775473Y-396953003D01*
X200740416Y-396943029D01*
X200705310Y-396932958D01*
X200670151Y-396922788D01*
X200634934Y-396912518D01*
X200599654Y-396902147D01*
X200564304Y-396891672D01*
X200528881Y-396881092D01*
X200493379Y-396870404D01*
X200457792Y-396859608D01*
X200422115Y-396848701D01*
X200386341Y-396837681D01*
X200350466Y-396826547D01*
X200314482Y-396815294D01*
X200278384Y-396803923D01*
X200242166Y-396792430D01*
X200205820Y-396780812D01*
X200169341Y-396769068D01*
X200132722Y-396757195D01*
X200095954Y-396745190D01*
X200059032Y-396733051D01*
X200021948Y-396720774D01*
X199984693Y-396708357D01*
X199947261Y-396695796D01*
X199909643Y-396683088D01*
X199871830Y-396670231D01*
X199833814Y-396657220D01*
X199795585Y-396644052D01*
X199757135Y-396630723D01*
X199718453Y-396617229D01*
X199679530Y-396603567D01*
X199640354Y-396589731D01*
X199600916Y-396575718D01*
X199561204Y-396561523D01*
X199521206Y-396547140D01*
X199480910Y-396532566D01*
X199440302Y-396517794D01*
X199399370Y-396502820D01*
X199358100Y-396487636D01*
X199316476Y-396472238D01*
X199274483Y-396456618D01*
X199232106Y-396440769D01*
X199189327Y-396424686D01*
X199146128Y-396408359D01*
X199102491Y-396391781D01*
X199058395Y-396374943D01*
X199013820Y-396357837D01*
X198968742Y-396340453D01*
X198923139Y-396322781D01*
X198876985Y-396304809D01*
X198830253Y-396286527D01*
X198782914Y-396267923D01*
X198734939Y-396248982D01*
X198686294Y-396229691D01*
X198636944Y-396210035D01*
X198586851Y-396189997D01*
X198535974Y-396169559D01*
X198484269Y-396148703D01*
X198431687Y-396127408D01*
X198378177Y-396105650D01*
X198323680Y-396083406D01*
X198268133Y-396060647D01*
X198211468Y-396037344D01*
X198153607Y-396013463D01*
X198094464Y-395988967D01*
X198033945Y-395963814D01*
X197971942Y-395937959D01*
X197908332Y-395911348D01*
X197842978Y-395883921D01*
X197775719Y-395855609D01*
X197706370Y-395826331D01*
X197634713Y-395795992D01*
X197560491Y-395764482D01*
X197483394Y-395731665D01*
X197403041Y-395697377D01*
X197318959Y-395661411D01*
X197230542Y-395623506D01*
X197136993Y-395583315D01*
X197037225Y-395540368D01*
X196929678Y-395493987D01*
X196811958Y-395443135D01*
X196680018Y-395386057D01*
X196525843Y-395319280D01*
X196423277Y-395274824D01*
X338697115Y-375073323D02*
X338906413Y-374992871D01*
X339194536Y-374882125D01*
X339335261Y-374828053D01*
X339473812Y-374774839D01*
X339610224Y-374722477D01*
X339744537Y-374670959D01*
X339876787Y-374620279D01*
X340007010Y-374570430D01*
X340135246Y-374521404D01*
X340261529Y-374473196D01*
X340385899Y-374425798D01*
X340447378Y-374402400D01*
X340508392Y-374379203D01*
X340568946Y-374356205D01*
X340629044Y-374333405D01*
X340688692Y-374310802D01*
X340747895Y-374288396D01*
X340806655Y-374266186D01*
X340864980Y-374244170D01*
X340922872Y-374222349D01*
X340980336Y-374200720D01*
X341037378Y-374179284D01*
X341094002Y-374158039D01*
X341150213Y-374136985D01*
X341206014Y-374116120D01*
X341261412Y-374095444D01*
X341316410Y-374074957D01*
X341371013Y-374054656D01*
X341425226Y-374034541D01*
X341479054Y-374014612D01*
X341532500Y-373994868D01*
X341585571Y-373975307D01*
X341638270Y-373955929D01*
X341690602Y-373936732D01*
X341742572Y-373917717D01*
X341794184Y-373898883D01*
X341845443Y-373880227D01*
X341896354Y-373861750D01*
X341946921Y-373843451D01*
X341997149Y-373825329D01*
X342047043Y-373807382D01*
X342096607Y-373789611D01*
X342145846Y-373772013D01*
X342194764Y-373754590D01*
X342243367Y-373737338D01*
X342291659Y-373720259D01*
X342339644Y-373703350D01*
X342387328Y-373686611D01*
X342434714Y-373670041D01*
X342481808Y-373653639D01*
X342528614Y-373637405D01*
X342575137Y-373621337D01*
X342621381Y-373605435D01*
X342667352Y-373589698D01*
X342713053Y-373574124D01*
X342758490Y-373558714D01*
X342803666Y-373543466D01*
X342848588Y-373528379D01*
X342893258Y-373513453D01*
X342937683Y-373498686D01*
X342981867Y-373484078D01*
X343025813Y-373469629D01*
X343069528Y-373455336D01*
X343113015Y-373441199D01*
X343156280Y-373427218D01*
X343177830Y-373420285D01*
X343199327Y-373413391D01*
X343220769Y-373406535D01*
X343242160Y-373399718D01*
X343263498Y-373392938D01*
X343284784Y-373386197D01*
X343306019Y-373379494D01*
X343327204Y-373372829D01*
X343348339Y-373366201D01*
X343369425Y-373359611D01*
X343390462Y-373353059D01*
X343411451Y-373346544D01*
X343432392Y-373340066D01*
X343453287Y-373333626D01*
X343474135Y-373327223D01*
X343494937Y-373320857D01*
X343515694Y-373314527D01*
X343536406Y-373308235D01*
X343557075Y-373301979D01*
X343577699Y-373295760D01*
X343598281Y-373289577D01*
X343618821Y-373283431D01*
X343639319Y-373277320D01*
X343659776Y-373271247D01*
X343680192Y-373265209D01*
X343700568Y-373259207D01*
X343720905Y-373253240D01*
X343741203Y-373247310D01*
X343761463Y-373241415D01*
X343781685Y-373235556D01*
X343801870Y-373229732D01*
X343822018Y-373223943D01*
X343842131Y-373218190D01*
X343862208Y-373212472D01*
X343882251Y-373206788D01*
X343902259Y-373201140D01*
X343922234Y-373195526D01*
X343942176Y-373189947D01*
X343962085Y-373184402D01*
X343981963Y-373178892D01*
X344001809Y-373173417D01*
X344021624Y-373167975D01*
X344041410Y-373162568D01*
X344061166Y-373157194D01*
X344080893Y-373151855D01*
X344100591Y-373146549D01*
X344120262Y-373141277D01*
X344139906Y-373136039D01*
X344159523Y-373130834D01*
X344179114Y-373125662D01*
X344198680Y-373120524D01*
X344218220Y-373115418D01*
X344237737Y-373110346D01*
X344257230Y-373105307D01*
X344276699Y-373100301D01*
X344296146Y-373095327D01*
X344315571Y-373090386D01*
X344334975Y-373085477D01*
X344354358Y-373080601D01*
X344373721Y-373075757D01*
X344393064Y-373070946D01*
X344412388Y-373066166D01*
X344431694Y-373061418D01*
X344450981Y-373056703D01*
X344470252Y-373052019D01*
X344489505Y-373047366D01*
X344508743Y-373042745D01*
X344527965Y-373038156D01*
X344547172Y-373033598D01*
X344566364Y-373029071D01*
X344585543Y-373024575D01*
X344604708Y-373020111D01*
X344623861Y-373015677D01*
X344643002Y-373011274D01*
X344662131Y-373006901D01*
X344681250Y-373002560D01*
X344700358Y-372998248D01*
X344719456Y-372993967D01*
X344738545Y-372989717D01*
X344757626Y-372985496D01*
X344776698Y-372981306D01*
X344795763Y-372977145D01*
X344814821Y-372973014D01*
X344833873Y-372968913D01*
X344852920Y-372964842D01*
X344871961Y-372960800D01*
X344890998Y-372956787D01*
X344910030Y-372952804D01*
X344929060Y-372948850D01*
X344948086Y-372944925D01*
X344967111Y-372941029D01*
X344986134Y-372937162D01*
X345005155Y-372933324D01*
X345024177Y-372929514D01*
X345043198Y-372925733D01*
X345062220Y-372921980D01*
X345081244Y-372918255D01*
X345100269Y-372914559D01*
X345119297Y-372910891D01*
X345138328Y-372907251D01*
X345157362Y-372903639D01*
X345176401Y-372900054D01*
X345195445Y-372896497D01*
X345214494Y-372892968D01*
X345233548Y-372889466D01*
X345252610Y-372885992D01*
X345271678Y-372882545D01*
X345290754Y-372879125D01*
X345309839Y-372875732D01*
X345328932Y-372872366D01*
X345348035Y-372869027D01*
X345367147Y-372865714D01*
X345386271Y-372862428D01*
X345405405Y-372859169D01*
X345424551Y-372855936D01*
X345443710Y-372852729D01*
X345462881Y-372849549D01*
X345482066Y-372846394D01*
X345501266Y-372843266D01*
X345520479Y-372840163D01*
X345539708Y-372837086D01*
X345558953Y-372834035D01*
X345578215Y-372831009D01*
X345597493Y-372828009D01*
X345616789Y-372825034D01*
X345636103Y-372822084D01*
X345655435Y-372819159D01*
X345674788Y-372816260D01*
X345694160Y-372813385D01*
X345713552Y-372810535D01*
X345732966Y-372807710D01*
X345752401Y-372804909D01*
X345771858Y-372802132D01*
X345791338Y-372799381D01*
X345810842Y-372796653D01*
X345830369Y-372793949D01*
X345849922Y-372791270D01*
X345869499Y-372788614D01*
X345889102Y-372785982D01*
X345908731Y-372783374D01*
X345928387Y-372780790D01*
X345948071Y-372778229D01*
X345967782Y-372775691D01*
X345987523Y-372773177D01*
X346007292Y-372770686D01*
X346027092Y-372768218D01*
X346046921Y-372765773D01*
X346066782Y-372763350D01*
X346086674Y-372760951D01*
X346106598Y-372758574D01*
X346126555Y-372756220D01*
X346146545Y-372753888D01*
X346166569Y-372751578D01*
X346186628Y-372749291D01*
X346206721Y-372747025D01*
X346226850Y-372744782D01*
X346247016Y-372742561D01*
X346267218Y-372740361D01*
X346287457Y-372738183D01*
X346307734Y-372736027D01*
X346328050Y-372733892D01*
X346348405Y-372731778D01*
X346368800Y-372729686D01*
X346389235Y-372727614D01*
X346409710Y-372725564D01*
X346430227Y-372723535D01*
X346450786Y-372721526D01*
X346471388Y-372719539D01*
X346492033Y-372717571D01*
X346512721Y-372715625D01*
X346533454Y-372713699D01*
X346554232Y-372711792D01*
X346575055Y-372709907D01*
X346595925Y-372708041D01*
X346616841Y-372706195D01*
X346637804Y-372704369D01*
X346658815Y-372702563D01*
X346679874Y-372700776D01*
X346700983Y-372699009D01*
X346722141Y-372697261D01*
X346743349Y-372695533D01*
X346764607Y-372693824D01*
X346785917Y-372692134D01*
X346807279Y-372690463D01*
X346828694Y-372688811D01*
X346850161Y-372687177D01*
X346871682Y-372685563D01*
X346893258Y-372683966D01*
X346914888Y-372682389D01*
X346936573Y-372680829D01*
X346958315Y-372679288D01*
X346980113Y-372677765D01*
X347001968Y-372676260D01*
X347023880Y-372674773D01*
X347045851Y-372673304D01*
X347067881Y-372671852D01*
X347089971Y-372670418D01*
X347112120Y-372669002D01*
X347134330Y-372667603D01*
X347156601Y-372666221D01*
X347178934Y-372664856D01*
X347201329Y-372663509D01*
X347223787Y-372662178D01*
X347246309Y-372660864D01*
X347268895Y-372659567D01*
X347291545Y-372658287D01*
X347314261Y-372657023D01*
X347337042Y-372655775D01*
X347382805Y-372653329D01*
X347428838Y-372650947D01*
X347475146Y-372648629D01*
X347521734Y-372646373D01*
X347568606Y-372644179D01*
X347615767Y-372642046D01*
X347663221Y-372639973D01*
X347710974Y-372637960D01*
X347759029Y-372636005D01*
X347807393Y-372634107D01*
X347856068Y-372632266D01*
X347905060Y-372630480D01*
X347954373Y-372628750D01*
X348004013Y-372627074D01*
X348053984Y-372625450D01*
X348104289Y-372623880D01*
X348154935Y-372622360D01*
X348205926Y-372620892D01*
X348257266Y-372619473D01*
X348308960Y-372618103D01*
X348361013Y-372616781D01*
X348413429Y-372615506D01*
X348466213Y-372614278D01*
X348519370Y-372613095D01*
X348572904Y-372611957D01*
X348626820Y-372610863D01*
X348681123Y-372609811D01*
X348735817Y-372608802D01*
X348790906Y-372607833D01*
X348846397Y-372606905D01*
X348902292Y-372606017D01*
X348958598Y-372605167D01*
X349015317Y-372604355D01*
X349072456Y-372603580D01*
X349130019Y-372602841D01*
X349188010Y-372602137D01*
X349246435Y-372601467D01*
X349305297Y-372600831D01*
X349364601Y-372600228D01*
X349424353Y-372599656D01*
X349484556Y-372599115D01*
X349545216Y-372598604D01*
X349606337Y-372598123D01*
X349667923Y-372597669D01*
X349729980Y-372597243D01*
X349792511Y-372596844D01*
X349855522Y-372596471D01*
X349919018Y-372596122D01*
X349983002Y-372595798D01*
X350047480Y-372595496D01*
X350112457Y-372595217D01*
X350177936Y-372594959D01*
X350243922Y-372594722D01*
X350310421Y-372594505D01*
X350444974Y-372594126D01*
X350581631Y-372593816D01*
X350720430Y-372593568D01*
X350861409Y-372593375D01*
X351004603Y-372593229D01*
X351150050Y-372593125D01*
X351297788Y-372593055D01*
X351447854Y-372593013D01*
X351600285Y-372592991D01*
X351912391Y-372592982D01*
D12*
X502300000Y-143000000D02*
G75*
G02*
X508250000Y-148949245I0J-5950000D01*
G01*
X351912391Y-372592982D02*
X502293203Y-372592982D01*
X53099377Y-149026392D02*
G75*
G02*
X59049377Y-143077147I5950003J-758D01*
G01*
X59050000Y-372650000D02*
X135225027Y-372709593D01*
X209626162Y-397748147D02*
X272800000Y-397800000D01*
M02*
